<svg width="400" height="91.40767824497257" xmlns="http://www.w3.org/2000/svg">

 <g>
  <title>background</title>
  <rect fill="#eeeeee" id="canvas_background" height="93.407678" width="402" y="-1" x="-1"/>
 </g>
 <g>
  <title>Layer 1</title>
  <g id="svgg">
   <path fill-rule="evenodd" fill="#000000" d="m152.832993,44.993999l0,14.173l1.668015,0l1.667999,0l-0.042999,-14.125l-0.043015,-14.125l-1.625,-0.048l-1.625,-0.048l0,14.173m-49.332993,0.756001l0,13.417l1.748001,0l1.748001,0l0.043999,-6.209l0.042999,-6.208l7.25,0l7.25,0l0.043999,6.208l0.043999,6.209l1.748001,0l1.748001,0l0,-13.417l0,-13.417l-1.75,0l-1.75,0l0,5.667l0,5.667l-7.334,0l-7.333,0l0,-5.667l0,-5.667l-1.75,0l-1.75,0l0,13.417m33.513,-7.328999c-4.626999,0.836998 -6.891006,4.257999 -6.891006,10.411999c0,7.008999 3.095001,10.667 9.02301,10.667c6.104996,0 9.194992,-3.582001 9.184998,-10.646c-0.012009,-8.056 -4.022995,-11.754002 -11.317001,-10.432999m51.442993,-0.081001c-1.447998,0.360001 -2.980988,1.483002 -3.649994,2.673c-0.488998,0.868999 -0.638992,0.689999 -0.638992,-0.758999c0,-1.812 0.05899,-1.754002 -1.794006,-1.754002l-1.591995,0l0.108994,3.027c0.061005,1.664001 0.110001,8.113998 0.110001,14.333l0,11.306999l1.673004,0l1.672989,0l-0.018997,-5.514999c-0.019989,-5.742001 -0.00499,-5.983002 0.335007,-5.164001c1.354004,3.27 7.884003,4.046001 10.804993,1.283001c3.74501,-3.542 3.800003,-14.542 0.089005,-17.933998c-1.533005,-1.401001 -4.757996,-2.081001 -7.100006,-1.497002m21.014008,0.058998c-1.289001,0.347 -1.882996,0.935001 -2.764008,2.736l-0.788986,1.615002l-0.047012,-2.042l-0.046997,-2.041l-1.578003,0l-1.577988,0l0,10.25l0,10.25l1.665985,0l1.667007,0l0,-5.737999c0,-10.091999 0.888,-12.271999 4.914001,-12.069l1.253006,0.063l0,-1.524002l0,-1.523998l-0.521011,-0.104c-0.731003,-0.146 -1.274994,-0.113998 -2.175995,0.127998m12.095993,0.013c-4.709991,0.855 -6.815994,4.077 -6.810989,10.421001c0.005997,7.341 2.763992,10.584999 8.994995,10.577999c5.647995,-0.007 8.475006,-2.716999 9.072006,-8.695999c0.889999,-8.924999 -3.491013,-13.713001 -11.256012,-12.303001m20.476013,0.007c-4.012009,0.872002 -5.625,3.882999 -5.625,10.498001c0,4.750999 0.584991,6.948002 2.290985,8.604c2.990005,2.902 9.147003,2.103001 11.052002,-1.433998c0.536011,-0.996002 0.617004,-0.697002 0.532013,1.954998c-0.156006,4.866001 -1.499008,6.551003 -5.209015,6.535004c-2.280991,-0.010002 -3.501999,-0.612003 -4.262985,-2.103004c-0.209015,-0.41 -0.443008,-0.640999 -0.650009,-0.640999c-0.360992,0 -2.893005,0.355999 -2.968002,0.417c-0.026001,0.021999 0.112,0.464001 0.306,0.981998c1.889999,5.053005 12.069,5.378002 14.94101,0.478001c1.115997,-1.903999 1.108002,-1.816998 1.177002,-14.001999l0.061996,-11.041l-1.576004,0l-1.576004,0l-0.14299,1.708l-0.143005,1.708l-0.449005,-0.764c-1.442993,-2.455002 -4.51799,-3.604 -7.758987,-2.900002m23.761002,-0.02c-1.399994,0.377003 -3.291016,2.730003 -3.306,4.113003c-0.002014,0.197998 -0.029022,0.195999 -0.164001,-0.012001c-0.08902,-0.138 -0.162018,-1.056 -0.164001,-2.042l-0.002014,-1.791l-1.583984,0l-1.583008,0l0,10.25l0,10.25l1.648987,0l1.649017,0l0.080994,-6.459c0.087006,-6.956001 0.187012,-7.860001 1.029999,-9.289001c0.920013,-1.559998 1.985992,-2.125 3.902008,-2.069l1.272003,0.038002l0.048981,-1.445999c0.061005,-1.84 -0.529999,-2.162003 -2.828979,-1.543003m12.279999,-0.068996c-2.822021,0.403999 -4.709015,1.642998 -5.681,3.73c-0.565002,1.213997 -0.542023,1.772999 0.072998,1.772999c0.260986,0 1.048981,0.049 1.75,0.108002c1.204987,0.101997 1.274994,0.088997 1.274994,-0.230003c0,-1.760998 1.875,-2.959 4.583008,-2.93c2.997986,0.033001 4.230988,1.269001 4.381989,4.390003l0.078003,1.622997l-3.897003,0.086002c-4.967987,0.108997 -6.212006,0.418999 -7.889984,1.966c-1.624023,1.496998 -2.234009,4.954998 -1.291016,7.327999c1.791016,4.509998 9.471008,4.507 12.367004,-0.005001c0.670013,-1.044998 0.764008,-1.042 0.904999,0.022003c0.312012,2.350998 1.617004,3.278 4.346008,3.089996c1.91098,-0.132 1.916992,-0.135998 1.916992,-1.299l0,-0.981998l-0.928009,0c-2.100006,0 -2.117981,-0.064999 -2.244995,-7.75c-0.102997,-6.206001 -0.139984,-6.577 -0.790985,-7.838001c-1.22702,-2.378998 -4.94101,-3.656998 -8.953003,-3.081997m23.484985,0.007999c-1.649994,0.327999 -2.944,1.223999 -3.824005,2.650997c-0.832977,1.348003 -0.91098,1.292 -0.91098,-0.655998l0,-1.666l-1.608002,0l-1.608002,0l0.108002,1.525002c0.059998,0.838997 0.108002,5.452 0.108002,10.25l0,8.724998l1.570984,0l1.570007,0l0.063995,-6.875c0.071014,-7.687 0.14801,-8.250999 1.345001,-9.82c1.421997,-1.865002 4.938995,-2.251999 6.321014,-0.695999c0.828979,0.933998 0.863983,1.294998 0.925995,9.598999l0.057007,7.792l1.647003,0l1.645996,0l0.05899,-7.042c0.063995,-7.655998 0.09201,-7.900002 1.056,-9.386002c1.291992,-1.991997 4.847992,-2.611 6.299011,-1.095997c1.021973,1.066998 1.017975,1.032997 1.071991,9.648998l0.049011,7.875l1.658997,0l1.658997,0l0,-7.720001c0,-8.189999 -0.067017,-9.105 -0.776001,-10.529999c-1.903992,-3.825001 -8.509003,-3.603001 -10.835022,0.365002c-0.51297,0.876999 -0.596985,0.885998 -0.872986,0.092999c-0.842987,-2.424 -3.614014,-3.664001 -6.781006,-3.036999m32.47702,-0.006001c-1.737,0.368999 -2.909027,1.188 -3.904022,2.728001c-0.733002,1.133999 -0.783997,1.079998 -0.845978,-0.893002l-0.045013,-1.417l-1.541992,-0.048l-1.541016,-0.048l0,10.256001l0,10.257l1.666016,0l1.666992,0l0.001007,-6.292c0.001007,-3.596001 0.076996,-6.756001 0.177002,-7.375c0.510986,-3.159 2.268005,-4.790001 4.990997,-4.632c3.255981,0.188 3.485992,0.966999 3.492981,11.84l0.005005,6.459l1.65802,0l1.658997,0l0.057983,-7.209c0.063019,-7.790001 0.067993,-7.841 1.003998,-9.233002c1.171021,-1.740997 3.815002,-2.459999 5.611023,-1.526997c1.754974,0.912998 1.842987,1.415997 1.842987,10.586998l0,7.382l1.678009,0l1.677979,0l-0.065979,-8.125c-0.072021,-8.792999 -0.093994,-9.026001 -1.022003,-10.610001c-1.970001,-3.362 -8.68399,-2.751999 -10.690002,0.972c-0.416016,0.772999 -0.447998,0.762001 -0.897003,-0.32c-0.891998,-2.153 -3.795013,-3.356998 -6.635986,-2.751999m30.845001,0.006001c-4.802002,0.865997 -7.09201,4.188999 -7.117004,10.328999c-0.029022,7.050999 2.64798,10.455002 8.47699,10.778999c4.145996,0.230999 7.260986,-1.170998 8.638,-3.888l0.42099,-0.831997l-1.233978,-0.363003c-1.593018,-0.467999 -1.652008,-0.462997 -2.050018,0.179001c-1.069,1.723 -2.416992,2.369999 -4.941986,2.373001c-3.632996,0.002998 -5.541016,-1.988003 -5.865021,-6.123001l-0.100983,-1.292l7.384003,0l7.382996,0l-0.102997,-1.792c-0.39801,-6.865002 -4.623016,-10.5 -10.890991,-9.369999m22.268982,0.056c-1.432007,0.385998 -2.285004,1.350998 -3.076996,3.480999c-0.454987,1.224998 -0.582001,0.960999 -0.582001,-1.208l0,-2l-1.583008,0l-1.583984,0l0,10.25l0,10.25l1.651001,0l1.649994,0l0.075012,-6.459c0.079987,-6.937 0.133972,-7.424999 1.023987,-9.168999c0.833984,-1.635002 1.928986,-2.247002 3.911011,-2.189003l1.27298,0.038002l0.048004,-1.445999c0.061005,-1.835003 -0.531982,-2.162003 -2.806,-1.548m-228.158997,0.238998c0,0.074001 0.682999,1.855 1.518005,3.959c0.834991,2.103001 2.451996,6.187 3.592987,9.075001c1.141006,2.887001 2.258011,5.672001 2.48201,6.187c0.526993,1.213001 0.531998,1.162998 -0.335007,2.945c-1.356003,2.785 -2.653992,3.765003 -4.946991,3.734997l-1.311005,-0.016998l0,1.232002l0,1.231003l0.764008,0.113998c3.571991,0.535995 6.007996,-0.908005 7.954987,-4.714001c0.860001,-1.683002 1.351013,-2.872002 2.979004,-7.213001c0.361008,-0.963001 0.910004,-2.388 1.221008,-3.167c0.310989,-0.778999 1.251999,-3.216999 2.091995,-5.417c0.839005,-2.200001 1.856003,-4.859001 2.257996,-5.909c0.402008,-1.050999 0.731003,-1.968998 0.731003,-2.042c0,-0.323002 -3.315002,-0.145 -3.492996,0.187c-0.094009,0.175999 -1.192001,3.306999 -2.44101,6.959c-2.804001,8.194 -3.233994,9.389 -3.380997,9.389c-0.063995,0 -0.326004,-0.657001 -0.582993,-1.459c-0.590012,-1.848 -1.991013,-5.631001 -5.212006,-14.083l-0.429001,-1.125l-1.729996,0c-0.951996,0 -1.731003,0.060001 -1.731003,0.132999m-17.063004,2.628002c4.022003,2.008999 4.053009,12.967999 0.042007,15.150997c-2.639999,1.437 -6.248001,0.421001 -7.429001,-2.091999c-1.186005,-2.525002 -1.195999,-8.429001 -0.018005,-10.933998c1.143997,-2.433002 4.729004,-3.462002 7.404999,-2.125m49.376007,-0.335003c2.416992,0.718002 3.360001,2.937 3.347992,7.880001c-0.013992,5.804001 -1.207001,7.963001 -4.507996,8.159c-4.041,0.238998 -5.809006,-2.164001 -5.817001,-7.909c-0.007996,-6.457001 2.554001,-9.443001 6.977005,-8.130001m34.888992,0.140003c3.197006,1.375999 4.419006,8.815998 2.199997,13.387997c-1.444992,2.977001 -6.177994,3.536003 -8.510986,1.006001c-2.124008,-2.305 -2.355011,-10.035 -0.383011,-12.805c1.247009,-1.750999 4.514999,-2.525997 6.694,-1.588997m19.985001,-0.143002c5.486008,1.931999 5.570007,13.859001 0.112,15.672001c-4.228989,1.403999 -6.496002,-1.333 -6.48999,-7.836002c0.005997,-6.256001 2.424988,-9.228001 6.377991,-7.835999m122.408005,-0.005001c2.097992,0.639999 3.738007,3.105 3.738007,5.617001l0,0.465l-5.60202,0l-5.60199,0l0.110992,-0.792c0.587006,-4.185001 3.682007,-6.410999 7.355011,-5.290001m-84.123016,9.806999c-0.28299,6.468002 -9.971985,9.165001 -9.971985,2.776001c0,-3.334999 1.549988,-4.281998 7.062012,-4.315998l2.977997,-0.018002l-0.068024,1.557999" id="path0"/>
   <path fill-rule="evenodd" fill="#00000000" d="m0,45.667l0,45.666l200,0l200,0l0,-45.666l0,-45.667l-200,0l-200,0l0,45.667m26.705,-31.625c0.1,2.780001 0.098,2.791 -0.646999,2.791c-2.143,0 -5.017,1.118999 -6.176001,2.405001c-1.926001,2.137999 -2.167999,4.283998 -1.546,13.678999c0.511,7.708 -1.538,11.528999 -6.792001,12.659c-0.73,0.157001 -0.825999,0.382999 -0.262,0.615002c6.5,2.672997 7.767,5.524998 6.903,15.542c-0.743999,8.631996 0.686001,11.677002 6,12.772995c0.861,0.178001 1.771,0.324005 2.023001,0.325005c0.251999,0.000999 0.466,0.096001 0.475,0.210999c0.066,0.835999 -0.067001,4.733002 -0.164001,4.834999c-0.110998,0.114998 -4.015999,-0.263 -5.018999,-0.486c-7.228,-1.605995 -9.836,-6.144997 -9.179,-15.973999c0.487,-7.290001 0.429,-8.453999 -0.519,-10.311001c-0.818,-1.604 -3.192,-3.313 -5.831,-4.196999c-1.695,-0.567001 -1.656,-0.493999 -1.601,-3.008999c0.053,-2.433002 -0.048,-2.274002 1.797,-2.819c3.294001,-0.974003 5.396,-2.838001 6.191,-5.489002c0.387,-1.290001 0.382,-2.447998 -0.037,-9.258999c-0.704,-11.410999 2.421,-15.49 12.679,-16.553c0.320999,-0.033 0.816999,-0.072 1.101999,-0.087l0.518002,-0.026l0.084999,2.375m50.462,-1.924c8.984001,1.473 11.032997,5.625999 10.017998,20.313c-0.452995,6.563 0.981003,8.889 6.608002,10.722l1.457001,0.473999l0.047997,2.062c0.062004,2.638 0.042,2.707001 -0.835999,2.966999c-5.791,1.714001 -7.814995,4.637001 -7.310997,10.559002c1.276001,14.998997 -1.149002,19.285 -11.625,20.543003c-2.682999,0.321999 -2.431,0.566994 -2.496002,-2.438004l-0.054001,-2.487l0.407005,0c2.269997,0 5.292999,-1.141998 6.423996,-2.426003c1.809998,-2.056 2.176003,-4.204994 1.765999,-10.356998c-0.700996,-10.503998 0.323006,-13.162998 5.958,-15.468998c1.601006,-0.656002 1.603004,-0.692001 0.067001,-1.210003c-5.747002,-1.934998 -6.737999,-4.605 -5.996002,-16.163998c0.568001,-8.868 -1.18,-11.729 -7.528999,-12.322001l-1.072998,-0.1l0,-2.448c0,-1.346 0.056,-2.504 0.124001,-2.572c0.151001,-0.151 1.905998,0.002 4.042999,0.353m79.000008,32.882l0,14.167l-1.75,0l-1.75,0l0,-14.167l0,-14.167l1.75,0l1.75,0l0,14.167m-49.000008,-7l0,5.667l7.166,0l7.167,0l0,-5.667l0,-5.667l1.917,0l1.916,0l0,13.417l0,13.417l-1.916,0l-1.917,0l0,-6.167l0,-6.167l-7.167,0l-7.166,0l0,6.167l0,6.167l-1.917,0l-1.917,0l0,-13.417l0,-13.417l1.917,0l1.917,0l0,5.667m-78.983999,-4.981998l0.483999,0.516998l0,4.983002l0,4.981998l7.493,0l7.493,0l0.048,-5.014l0.049,-5.014l0.543999,-0.486c0.852001,-0.761002 2.035,-0.603001 2.595001,0.346001c0.390999,0.660999 0.428001,23.225998 0.040001,23.976997c-0.492001,0.952003 -1.781002,1.134003 -2.635002,0.372002l-0.543999,-0.487l-0.083,-5.222l-0.084,-5.222l-7.416,0l-7.417,0l-0.044001,5.193001l-0.043999,5.193001l-0.481001,0.515999c-0.664999,0.710999 -1.610001,0.722 -2.386999,0.028l-0.544001,-0.486l0,-11.861l0,-11.860001l0.544001,-0.487c0.778,-0.695 1.722,-0.681999 2.389,0.032001m44.349997,-0.063c7.419006,2.769997 7.125,13.842999 -0.424995,15.994999c-0.551003,0.156998 -2.007004,0.278 -4.066002,0.335999l-3.209,0.09l0,3.653999c0,4.393002 -0.248001,5.137001 -1.712002,5.137001c-1.841999,0 -1.787998,0.391998 -1.787998,-12.994999l0,-11.646l0.525002,-0.525002l0.523998,-0.523998l4.601002,0.062c4.195,0.056 4.683998,0.092999 5.549995,0.416m-7.699997,7.961998l0,5.083l2.677002,0c5.280998,0 7.186996,-1.497002 6.958,-5.464001c-0.202003,-3.477001 -1.958,-4.702999 -6.739006,-4.702999l-2.895996,0l0,5.084m127.499001,-2.738998c4.300003,0.697998 6.238998,4.459 5.949997,11.544998c-0.158997,3.903 -0.804993,6.02 -2.363998,7.744999c-2.945999,3.260002 -8.798996,2.844002 -11.283997,-0.802998c-0.268997,-0.394001 -0.283997,-0.139 -0.292007,5.126999l-0.009003,5.541l-1.75,0l-1.75,0l-0.026993,-14.166c-0.016006,-7.792 -0.033997,-14.298 -0.041992,-14.459c-0.012009,-0.256001 0.188995,-0.297001 1.67099,-0.339001l1.684998,-0.047001l0.10701,0.779003c0.057999,0.427998 0.105988,1.157997 0.105988,1.621998l0,0.841999l0.471008,-0.740997c1.434998,-2.257999 4.113998,-3.200001 7.528,-2.646m-49.914993,0.321999c4.338989,1.110001 6.268997,4.659 6.028,11.083c-0.21701,5.775002 -2.14801,8.586998 -6.695007,9.75c-4.414001,1.129002 -8.778,-0.605999 -10.576004,-4.205002c-1.530991,-3.063 -1.531998,-9.523998 -0.001999,-12.584999c1.826004,-3.654999 6.372009,-5.288998 11.24501,-4.042999m69.880997,1.372002l0.046997,1.621998l-1.395996,-0.009998c-4.036011,-0.030003 -4.77301,1.806 -4.779007,11.890999l-0.002991,5.792l-1.834015,0l-1.832993,0l0,-10.334l0,-10.333l1.647995,0l1.649002,0l0.122009,1.875l0.123001,1.875l0.383987,-0.868999c1.084,-2.457001 2.20401,-3.249001 4.491013,-3.174l1.332993,0.042999l0.048004,1.622002m15.054993,-1.319c3.449997,1.123997 5.263,3.852997 5.63501,8.48c0.644989,8.021 -2.725006,12.627998 -9.238007,12.627998c-5.723999,0 -8.860992,-3.412998 -9.197998,-10.007c-0.309998,-6.065998 1.854996,-10.000999 6.139999,-11.158001c1.485992,-0.401997 5.354004,-0.368 6.660995,0.057003m18.729996,-0.16c1.508011,0.400997 2.666,1.202 3.598007,2.487999l0.458008,0.631001l0.105988,-1.131001c0.057999,-0.622002 0.121002,-1.281002 0.139008,-1.464001c0.029999,-0.306999 0.173004,-0.338001 1.751999,-0.381001l1.718994,-0.048l-0.061996,11.048c-0.067993,12.118 -0.044998,11.824001 -1.106995,13.923c-2.716003,5.366997 -12.806,5.217003 -15.299011,-0.225998c-0.509995,-1.114002 -0.485992,-1.142002 1.161011,-1.379002c1.978989,-0.285 2.065002,-0.271 2.276001,0.366001c0.432999,1.313999 1.856995,2.145996 3.843002,2.244995c3.959,0.198006 5.488998,-1.685997 5.496994,-6.771996l0.003006,-1.889999l-0.651001,0.822998c-3.266006,4.132999 -9.917007,3.678001 -12.139999,-0.829998c-1.643005,-3.334 -1.59201,-10.523003 0.098999,-13.941002c1.487991,-3.003998 5.009995,-4.421001 8.607986,-3.461998m22.550003,-0.026001c0.126007,0.125 0.200012,0.746998 0.200012,1.663998l0,1.465l-1.473022,-0.010998c-4.11499,-0.032001 -4.859985,1.746998 -4.859985,11.609001l0,6.072998l-1.75,0l-1.75,0l-0.001007,-7.709c0,-4.238998 -0.048981,-8.889 -0.108978,-10.333l-0.109009,-2.625l1.669006,0l1.667999,0l0.106995,1.125c0.057983,0.618999 0.109009,1.5 0.112,1.958l0.005005,0.834l0.471985,-1.105c0.766998,-1.799 1.51001,-2.545002 3.019012,-3.038002c0.527985,-0.170998 2.60498,-0.102997 2.799988,0.093002m14.330994,0.050999c2.519012,0.594002 4.182007,2.138 4.798004,4.455002c0.178009,0.666 0.235016,2.187 0.235992,6.327c0.003021,7.404999 0.138,7.890999 2.166016,7.771l0.919006,-0.054001l0,1.070999c0,1.291 -0.117004,1.357002 -2.5,1.396c-2.636993,0.042999 -3.402008,-0.615997 -3.997009,-3.440998l-0.100006,-0.473999l-0.514008,0.723999c-2.414978,3.403999 -6.883972,4.493999 -10.455994,2.549999c-3.712006,-2.02 -3.470978,-8.907001 0.378998,-10.858002c1.826019,-0.924999 2.735016,-1.084 6.730011,-1.174l3.708008,-0.084l0,-1.203999c0,-3.216 -1.247009,-4.479 -4.406006,-4.465c-2.509003,0.012001 -3.847992,0.784 -4.302002,2.480999l-0.200989,0.752003l-1.003021,-0.101002c-0.552979,-0.056 -1.367004,-0.144001 -1.811005,-0.196999l-0.806976,-0.095001l0.112,-0.606998c0.703003,-3.824001 5.776978,-6.015003 11.048981,-4.773003m22.994019,0.159c0.85199,0.352001 2.268982,1.847 2.54599,2.685001l0.196991,0.598l0.423004,-0.638c2.578003,-3.897999 9.029999,-4.275002 10.920013,-0.639c0.798981,1.539001 0.841003,2.018002 0.911987,10.542l0.067017,8.042l-1.762024,0l-1.760986,0l-0.001007,-6.625c-0.001984,-10.755001 -0.253998,-11.544998 -3.677002,-11.540001c-1.789001,0.002003 -2.71698,0.466 -3.613983,1.808002c-1,1.498997 -1.041016,1.875999 -1.041016,9.531998l0,6.825001l-1.826996,0l-1.828003,0l-0.046997,-7.875l-0.048004,-7.875l-0.416992,-0.834c-1.097992,-2.195999 -4.959015,-2.18 -6.561005,0.027c-1.117004,1.538998 -1.154999,1.84 -1.22998,9.598l-0.068024,6.959l-1.737,0l-1.737,0l0,-8.557999c0,-4.706001 -0.048981,-9.359001 -0.108978,-10.339001l-0.109009,-1.782001l1.734009,0.048l1.733978,0.047001l0.048004,1.459c0.026001,0.802002 0.119995,1.458 0.208008,1.458c0.087982,0 0.160004,-0.056999 0.160004,-0.125999c0,-0.257999 1.493988,-1.936001 2.018982,-2.269001c1.554016,-0.984001 4.863007,-1.249001 6.606018,-0.528m31.914978,-0.135998c1.257019,0.352997 2.438019,1.382 2.949005,2.568996l0.367004,0.854l0.459015,-0.723999c2.786987,-4.390999 9.757996,-4.028999 11.302979,0.587002l0.45401,1.355999l0.05899,8.042l0.059021,8.042l-1.835999,0l-1.835999,0l-0.050018,-7.875l-0.050995,-7.875l-0.416992,-0.825001c-1.257019,-2.488998 -5.414001,-2.155998 -6.888,0.552002c-0.847015,1.555 -0.938995,2.493999 -0.942017,9.563999l-0.002991,6.459l-1.75,0l-1.75,0l0,-7.228001c0,-7.326 -0.078003,-8.497997 -0.636993,-9.600998c-0.821014,-1.616001 -4.246002,-1.862 -5.843018,-0.419003c-1.691986,1.528 -1.852997,2.458 -1.852997,10.695l0,6.553001l-1.75,0l-1.75,0l-0.001007,-8.959c-0.000977,-4.927002 -0.048981,-9.577 -0.107971,-10.333l-0.107025,-1.375l1.671997,0c1.946014,0 1.865021,-0.085999 1.883026,2c0.010986,1.228001 0.015991,1.243 0.293976,0.838001c2.003998,-2.920002 4.631012,-3.863003 8.072998,-2.896999m32.667999,0.265999c3.423004,1.271 5.722015,5.556999 5.425018,10.113998l-0.049011,0.762001l-7.315979,0.043999l-7.31601,0.042999l0.10199,1.215c0.362,4.281002 2.796997,6.450001 6.661011,5.933002c1.79599,-0.241001 3.450989,-1.276001 3.945007,-2.468002c0.254974,-0.613998 0.336975,-0.620998 2.028992,-0.156998c1.470001,0.403 1.475006,0.412998 0.888,1.591c-2.223999,4.461998 -10.938019,5.271 -14.666992,1.361c-3.377014,-3.540001 -3.684021,-11.754002 -0.595001,-15.938999c1.992981,-2.701 7.15799,-3.886002 10.892975,-2.499001m19.423004,1.165001l0.048004,1.621998l-1.395996,-0.009998c-4.035004,-0.030003 -4.78299,1.885998 -4.78299,12.258999l0,5.424l-1.75,0l-1.75,0l0,-6.709c0,-3.688999 -0.050018,-8.341999 -0.110016,-10.339001l-0.109985,-3.631001l1.734985,0.048l1.735016,0.047001l0.083984,1.834l0.083008,1.833l0.296997,-0.723999c1.045013,-2.552002 2.182007,-3.366001 4.619995,-3.306999l1.25,0.030998l0.046997,1.622002m-226.445984,1.044998c0.51799,1.375 1.444992,3.812 2.059998,5.416c0.61499,1.605 1.477997,3.966999 1.917999,5.25c0.440002,1.284 0.890991,2.558998 1.001999,2.834l0.203003,0.5l0.173996,-0.417c0.095001,-0.229 1.391006,-3.942001 2.878998,-8.25l2.706009,-7.833l1.873993,-0.048l1.873993,-0.047001l-0.091995,0.381001c-0.050003,0.209 -0.630997,1.768002 -1.291,3.464001c-0.660004,1.695 -1.524994,3.945 -1.921997,5c-0.397003,1.054001 -1.216003,3.191002 -1.820007,4.75c-0.603989,1.557999 -1.462997,3.807999 -1.908997,5c-3.25,8.681999 -5.481995,10.936996 -10.23999,10.342003l-0.934006,-0.116005l0,-1.362999l-0.001007,-1.362999l1.104004,0.056c2.430008,0.125 4.662003,-1.839001 5.564011,-4.896999c0.195999,-0.665001 -0.981003,-4.069 -3.082001,-8.909c-0.219009,-0.504002 -0.632004,-1.555 -0.917999,-2.334c-0.287003,-0.778999 -0.700012,-1.828999 -0.918015,-2.333c-0.718994,-1.657001 -2.916,-7.304001 -2.916,-7.493c0,-0.126999 0.584015,-0.169998 1.872009,-0.137001l1.871994,0.047001l0.94101,2.5m-25.916,0.091c-2.686005,0.674999 -3.820999,2.966 -3.835007,7.742001c-0.015991,5.394001 1.419006,7.831001 4.819,8.185001c4.093002,0.425999 6.102997,-2.239002 6.108002,-8.102001c0.005997,-6.292999 -2.440002,-8.992001 -7.091995,-7.825001m50.686996,0.007c-2.673004,0.629002 -3.811005,2.948002 -3.837006,7.818001c-0.031998,5.718998 1.503998,8.055 5.298004,8.057999c3.005005,0.003002 4.384995,-1.725998 4.776993,-5.983997c0.683014,-7.428001 -1.564987,-10.993 -6.237991,-9.892002m33.830994,-0.009998c-2.654999,0.668999 -3.783997,3.004997 -3.783997,7.827999c0,5.66 1.621994,8.076 5.414001,8.065998c3.483994,-0.008999 4.985992,-1.737 5.449005,-6.272999c0.729996,-7.140999 -2.031998,-10.894001 -7.07901,-9.620998m21.333008,0c-2.423996,0.608997 -3.626007,3.204998 -3.615997,7.807999c0.011002,5.480999 1.477997,7.878002 4.840988,7.911999c3.787003,0.037003 6.082001,-4.169998 5.335007,-9.782997c-0.591003,-4.436001 -3.186005,-6.784 -6.559998,-5.937m121.459991,0.118999c-2.003998,0.716 -3.100983,2.265999 -3.503998,4.951l-0.113983,0.757999l5.458984,0l5.459015,0l-0.096008,-0.875c-0.434998,-3.942001 -3.654999,-6.103001 -7.20401,-4.834m-86.549988,8.222c-1.20401,0.155998 -2.238007,0.694 -2.998993,1.561001c-0.463013,0.528 -0.572021,0.842999 -0.764008,2.212997c-0.686005,4.900002 6.721008,5.083 9.11499,0.225002c0.463013,-0.939003 0.542999,-1.295002 0.593018,-2.632l0.057983,-1.546001l-2.475006,0.021c-1.360992,0.011002 -2.947998,0.082001 -3.527985,0.158001m-222.942005,4.989998c1.535999,0.949001 1.375,3.231003 -0.288002,4.097c-1.403999,0.73 -3.132999,-0.420998 -3.132999,-2.085999c0,-1.858002 1.880001,-2.963001 3.421001,-2.011002" id="path1"/>
   <path fill-rule="evenodd" fill="#d84315" d="m23.917,12.017c-9.88,1.408999 -12.011,4.785999 -11.375999,18.023001c0.304,6.332001 0.261,7.049 -0.523001,8.724998c-0.96,2.051003 -3.148999,3.653 -6.249,4.574001l-1.269,0.375999l0,2.216c0,2.479 -0.092,2.296001 1.417,2.826c6.023,2.112999 7.155,4.219002 6.67,12.41c-0.313,5.288002 -0.315,6.828003 -0.012,8.843002c0.911,6.040001 4.526999,8.982994 11.877999,9.667c2.321001,0.215996 2.111,0.439995 2.187,-2.330002c0.07,-2.554001 0.093,-2.504997 -1.171,-2.511002c-1.803999,-0.010002 -4.787001,-1.270996 -5.732,-2.423996c-1.799999,-2.197006 -2.071999,-3.994003 -1.67,-11.041004c0.567001,-9.956997 -0.335999,-12.279999 -5.671999,-14.578999c-1.992001,-0.858002 -2.015,-0.902 -0.694,-1.368c5.949999,-2.098999 7.003,-4.501999 6.398001,-14.591c-0.465,-7.752001 -0.203001,-9.592001 1.66,-11.653999c1.085999,-1.203001 3.744999,-2.342001 5.479,-2.348001c1.488998,-0.004999 1.428999,0.104 1.428999,-2.599999l0,-2.398l-0.875,0.021c-0.482,0.011 -1.325001,0.084 -1.875,0.163m49.192001,1.191c-0.058998,0.757 -0.107002,1.841 -0.108002,2.408999l-0.000999,1.035001l0.542,0.081999c0.297997,0.045 0.954002,0.124001 1.458,0.176001c6.148003,0.632999 7.408997,3.821001 6.487,16.389999c-0.528999,7.209999 1.498001,10.845001 6.806,12.206001c1.204002,0.307999 1.103004,0.487 -0.658997,1.160999c-4.951004,1.891998 -6.692001,5.324001 -6.138,12.104c1.016998,12.443996 -0.324005,15.258999 -7.695,16.151997l-0.782005,0.095001l0.097,2.366005c0.116005,2.836998 -0.190994,2.505997 2.123001,2.291c9.220001,-0.858002 12.871002,-5.459 12.107002,-15.258003c-0.882004,-11.320999 0.098,-13.625 6.695999,-15.75l1.125,-0.362999l0,-2.295002l0,-2.295998l-1.209,-0.379002c-6.640999,-2.084999 -7.491997,-4.145 -6.612,-16.000999c0.761002,-10.243999 -3.781998,-15.447001 -13.529999,-15.497l-0.599998,-0.003l-0.107002,1.375" id="path2"/>
   <path fill-rule="evenodd" fill="#3948ab" d="m25.794001,11.785c0.206999,0.039001 0.507,0.038 0.665998,-0.004c0.160002,-0.042 -0.009998,-0.074 -0.376999,-0.072001c-0.366001,0.002001 -0.497,0.036 -0.289,0.076m47.274,0.111c-0.048004,0.126 -0.058998,0.595 -0.025002,1.042l0.064003,0.812l0.029999,-0.948l0.029999,-0.949l0.625,-0.065l0.625,-0.065001l-0.630997,-0.028c-0.402,-0.018 -0.662003,0.055 -0.718002,0.201m-49.026001,0.052c0.16,0.042 0.423,0.042 0.583,0c0.16,-0.042 0.028999,-0.076 -0.292,-0.076c-0.321001,0 -0.452,0.034 -0.291,0.076m51.084999,0.003c0.207001,0.04 0.507004,0.039 0.667,-0.003c0.159004,-0.042 -0.011002,-0.074 -0.376999,-0.073c-0.366997,0.002 -0.497002,0.036 -0.290001,0.076m3.373001,0.549c0.57,0.183 1.008003,0.183 0.583,0c-0.182999,-0.079 -0.483002,-0.141 -0.666,-0.138c-0.267998,0.004 -0.251999,0.030999 0.083,0.138m-61.292,1.338c-0.481001,0.276 -0.875,0.540999 -0.875,0.589c0,0.091 1.466999,-0.713 1.742001,-0.954c0.292,-0.257 0.014999,-0.139999 -0.867001,0.365001m65.375,0.106c0.426003,0.403 1.472,1.085999 1.220001,0.795c-0.153999,-0.177 -0.528999,-0.464001 -0.833,-0.638c-0.305,-0.172999 -0.478004,-0.243999 -0.387001,-0.157m-67.403,1.49c-0.469,0.513 -0.931001,1.094 -1.026,1.291c-0.096001,0.199999 -0.004001,0.136999 0.209,-0.142c0.21,-0.275 0.712,-0.856 1.115,-1.291c0.404,-0.436 0.694001,-0.792 0.645,-0.792c-0.049,0 -0.473999,0.42 -0.942999,0.934m11.528999,0.483c0.002001,0.366001 0.036001,0.497 0.076,0.289c0.039,-0.207 0.038,-0.506999 -0.004,-0.665999c-0.042,-0.16 -0.073999,0.01 -0.072001,0.377m48.805,1.143c0.038002,0.033001 0.293999,0.110001 0.569,0.172001c0.364998,0.080999 0.432999,0.066 0.25,-0.058001c-0.224998,-0.152 -0.986,-0.257999 -0.819,-0.114m-54.056,0.785c-0.343,0.181 -0.625,0.367001 -0.625,0.412001c0,0.075001 1.316999,-0.541 1.486,-0.694c0.191999,-0.174 -0.308001,-0.01 -0.861,0.282m56.709,0.051001c0,0.039 0.266998,0.229 0.593002,0.421c0.325996,0.193001 0.546997,0.275 0.488998,0.182001c-0.111,-0.18 -1.082001,-0.721001 -1.082001,-0.603001m-58.184,1.062c-0.558001,0.598 -1.24,1.473 -0.875999,1.125c0.396999,-0.379 1.597,-1.75 1.531,-1.75c-0.039,0 -0.333,0.282 -0.655001,0.625m66.377001,-0.541c-0.000999,0.091 0.099998,0.429001 0.223,0.75c0.124001,0.32 0.226997,0.469999 0.230003,0.333c0.002998,-0.138 -0.098007,-0.475 -0.224007,-0.75c-0.125999,-0.275 -0.228996,-0.424999 -0.228996,-0.333m-5.948997,1.575001c0.323997,0.480999 0.588997,0.955 0.588997,1.052999c0,0.097 0.046997,0.131001 0.103996,0.073999c0.125,-0.125 -0.643997,-1.473 -1.016998,-1.782c-0.144997,-0.121 0,0.173 0.324005,0.655001m-68.036003,2.257999c0.002,0.367001 0.036,0.497 0.076,0.290001c0.04,-0.208 0.039,-0.508001 -0.003,-0.667002c-0.042,-0.158998 -0.074,0.01 -0.073,0.377001m5.718,0.343c-0.063,0.334 -0.081001,0.640999 -0.040001,0.681999c0.040001,0.041 0.125,-0.199999 0.188,-0.534c0.062,-0.334999 0.08,-0.641998 0.040001,-0.681999c-0.041,-0.041 -0.125999,0.198999 -0.188,0.534m69.282,0.49c0.001999,0.367001 0.036003,0.497 0.075996,0.289999c0.040001,-0.206999 0.039001,-0.507 -0.002998,-0.667c-0.042,-0.158998 -0.073997,0.011 -0.072998,0.377001m-75.145,2c0.001,1.1 0.028001,1.528999 0.06,0.952c0.033,-0.576 0.033,-1.476 0,-2c-0.033,-0.523001 -0.06,-0.052 -0.06,1.048m69.475002,-1.25c0,0.320999 0.034996,0.452 0.076996,0.292c0.041,-0.16 0.041,-0.423 0,-0.583c-0.042,-0.160999 -0.076996,-0.030001 -0.076996,0.291m-63.807001,1.834c0,1.146 0.025999,1.614 0.059,1.041c0.032,-0.573 0.032,-1.51 0,-2.083c-0.033001,-0.573 -0.059,-0.104 -0.059,1.042m69.49,1.583c0.000999,0.642 0.030998,0.884001 0.067001,0.538c0.035995,-0.346001 0.034996,-0.871 -0.000999,-1.167c-0.037003,-0.296 -0.067001,-0.013 -0.066002,0.629m-5.669998,0.5c0.000999,0.549999 0.031998,0.754999 0.069,0.455c0.037994,-0.299 0.036995,-0.749001 -0.000999,-1c-0.038002,-0.25 -0.069,-0.004999 -0.068001,0.545m-69.326002,1.083c0,0.780001 0.028,1.098 0.063,0.709c0.035,-0.389999 0.035,-1.027 0,-1.417c-0.035,-0.389999 -0.063,-0.070999 -0.063,0.708m5.660999,0.834c0,0.594999 0.031,0.839001 0.068001,0.541c0.037001,-0.298 0.037001,-0.785 0,-1.083c-0.037001,-0.298 -0.068001,-0.054001 -0.068001,0.542m69.171,0.416c0,0.733999 0.029999,1.013 0.065002,0.621c0.034996,-0.392 0.034996,-0.992001 -0.000999,-1.333c-0.036003,-0.342001 -0.065002,-0.021 -0.064003,0.712m-5.667999,0.584c0,0.687 0.028999,0.968 0.065002,0.625c0.035995,-0.344 0.035995,-0.907 0,-1.25c-0.036003,-0.344 -0.065002,-0.063 -0.065002,0.625m-69.000999,1.083c0,0.641998 0.031,0.883999 0.066999,0.537998c0.036,-0.345999 0.035,-0.870998 -0.002,-1.166998c-0.037,-0.296 -0.066,-0.013 -0.065,0.629m140.191002,13.25c0,7.837002 0.020996,11.043999 0.046005,7.125c0.024994,-3.918999 0.024994,-10.331001 0,-14.25c-0.025009,-3.918999 -0.046005,-0.713001 -0.046005,7.125m-134.522001,-12.583c0,0.733002 0.029999,1.012001 0.064999,0.619999c0.035,-0.391998 0.035,-0.992001 -0.000999,-1.332998c-0.035999,-0.341 -0.065001,-0.021 -0.063999,0.712999m68.826002,0.416c0,0.504002 0.030998,0.710999 0.069,0.459c0.038994,-0.251999 0.038994,-0.665001 0,-0.917c-0.038002,-0.251999 -0.069,-0.046001 -0.069,0.458m-5.662003,0.417c0.000999,0.641998 0.030998,0.883999 0.067001,0.537998c0.035995,-0.345997 0.034996,-0.870998 -0.000999,-1.167c-0.037003,-0.295998 -0.067001,-0.012997 -0.066002,0.629002m22.025002,12.5c0,7.424999 0.019997,10.487 0.044998,6.804001c0.025002,-3.683002 0.025002,-9.757999 0,-13.5c-0.025002,-3.742001 -0.044998,-0.729 -0.044998,6.695999m3.661995,-7.75c0,3.161999 0.022003,4.456001 0.050003,2.875c0.027,-1.581001 0.027,-4.168999 0,-5.75c-0.028,-1.581001 -0.050003,-0.287998 -0.050003,2.875m14.5,0c0,3.161999 0.022003,4.456001 0.050003,2.875c0.027,-1.581001 0.027,-4.168999 0,-5.75c-0.028,-1.581001 -0.050003,-0.287998 -0.050003,2.875m3.671005,7.75c0,7.424999 0.020996,10.487 0.045998,6.804001c0.025002,-3.683002 0.025002,-9.757999 0,-13.5c-0.025002,-3.742001 -0.045998,-0.729 -0.045998,6.695999m-99.452002,-12.764l-0.544001,0.487l0,11.860001l0,11.861l0.544001,0.486c0.776999,0.694 1.722,0.682999 2.386999,-0.028l0.481001,-0.515999l0.043999,-5.193001l0.044001,-5.193001l7.417,0l7.416,0l0.084,5.222l0.083,5.222l0.543999,0.487c0.854,0.762001 2.143002,0.580002 2.635002,-0.372002c0.388,-0.750999 0.350998,-23.315998 -0.040001,-23.976997c-0.560001,-0.949001 -1.743,-1.107002 -2.595001,-0.346001l-0.543999,0.486l-0.049,5.014l-0.048,5.014l-7.493,0l-7.493,0l0,-4.981998l0,-4.983002l-0.483999,-0.516998c-0.667,-0.714001 -1.611,-0.727001 -2.389,-0.032001m36.064001,0.014999l-0.525002,0.525002l0,11.646c0,13.386997 -0.054001,12.994999 1.787998,12.994999c1.464001,0 1.712002,-0.743999 1.712002,-5.137001l0,-3.653999l3.209,-0.09c4.377998,-0.124001 5.712997,-0.554001 7.625,-2.457001c3.463997,-3.448997 2.855003,-10.098 -1.177002,-12.835999c-1.932999,-1.313 -2.305,-1.384998 -7.506996,-1.453999l-4.601002,-0.062l-0.523998,0.523998m-49.138001,1.999001c0,0.596001 0.03,0.84 0.066999,0.542c0.037001,-0.298 0.037001,-0.785999 0,-1.084c-0.037,-0.298 -0.066999,-0.054001 -0.066999,0.542m5.669999,0.583c0.001001,0.734001 0.030001,1.013 0.066,0.620998c0.035,-0.391998 0.034,-0.991997 -0.001999,-1.333c-0.035,-0.341999 -0.064001,-0.021 -0.064001,0.712002m52.949997,0.502998c3.657005,1.290001 4.350006,6.848 1.128006,9.040001c-1.047005,0.712002 -1.967003,0.874001 -4.958,0.874001l-2.677002,0l0,-5.083l0,-5.084l2.895996,0c2.159004,0 3.078003,0.063999 3.611,0.252998m-58.910996,1.176003c-0.062,0.243999 -0.08,0.475998 -0.04,0.514999c0.039001,0.040001 0.121,-0.128002 0.182,-0.372002c0.062,-0.243999 0.08,-0.475998 0.04,-0.515999c-0.039001,-0.039001 -0.121,0.129002 -0.182,0.373001m68.949998,0.237999c0,0.411999 0.032005,0.581001 0.071999,0.375c0.040001,-0.206001 0.040001,-0.543999 0,-0.75c-0.039993,-0.206001 -0.071999,-0.037998 -0.071999,0.375m-63.166998,0.333c0,0.412998 0.033001,0.582001 0.072001,0.375c0.039999,-0.206001 0.039999,-0.542999 0,-0.75c-0.039,-0.206001 -0.072001,-0.036999 -0.072001,0.375m171.913,0.287998c0.298004,0.037003 0.785004,0.037003 1.082993,0c0.298004,-0.036999 0.054001,-0.067997 -0.540985,-0.067997c-0.596008,0 -0.840012,0.030998 -0.542007,0.067997m21.660995,0.154003c0.345001,0.074997 0.373001,0.184998 0.42601,1.694l0.057999,1.613998l-0.01001,-1.666c-0.009995,-1.657001 -0.013,-1.667 -0.427002,-1.694c-0.354996,-0.023998 -0.362,-0.015999 -0.046997,0.052002m56.51799,0.067997c0.370026,0.149002 0.384003,0.218002 0.333008,1.656002c-0.029999,0.826 0.003021,1.501999 0.071014,1.500999c0.069,0 0.125,-0.66 0.125,-1.466999c0,-1.486 -0.138,-1.877003 -0.65802,-1.856003c-0.152985,0.006001 -0.100983,0.074001 0.128998,0.166m9.904022,-0.060997c0.16098,0.041 0.423004,0.041 0.583984,0c0.160004,-0.042 0.029022,-0.077 -0.291992,-0.077c-0.321014,0 -0.451996,0.035 -0.291992,0.077m-119.362015,0.342999c0.008011,0.174 0.047012,0.208 0.098007,0.083c0.059006,-0.146999 0.584,-0.208 1.807007,-0.208l1.722992,0l0.195999,0.595001c0.108002,0.326 0.231003,0.559998 0.272995,0.517998c0.042007,-0.042999 -0.036987,-0.348 -0.174988,-0.677998l-0.251007,-0.602001l-1.841995,0c-1.64801,0 -1.839996,0.030998 -1.82901,0.292m15.483002,0.136002c-0.237,0.623997 -0.186996,0.724998 0.100006,0.196999c0.246002,-0.452999 0.266998,-0.458 1.929001,-0.458c1.821991,0 1.731995,-0.058998 1.399002,0.917c-0.076004,0.223 -0.029007,0.195999 0.141998,-0.084c0.567001,-0.923 0.445999,-1 -1.570007,-1c-1.819,0 -1.838989,0.005001 -2,0.428001m6.395004,-0.170002c-0.054001,0.140999 -0.052002,0.303001 0.005005,0.361c0.057999,0.056999 0.103989,-0.021 0.103989,-0.174c0,-0.358002 3.080002,-0.424 3.223007,-0.07c0.050995,0.125 0.089996,0.091 0.098007,-0.083c0.01799,-0.411999 -3.272003,-0.445 -3.430008,-0.034m13.050003,0.089001c1.033005,0.397999 2.257004,1.439999 2.908005,2.475998c0.263,0.418003 0.479996,0.703003 0.480988,0.632c0.02301,-0.913998 -2.936996,-3.463997 -3.995987,-3.441998c-0.138,0.001999 0.134995,0.153 0.606995,0.334m138.626999,0.067001c-0.457001,0.227997 -1.089996,0.691998 -1.407013,1.031998c-0.571991,0.612 -0.569977,0.611 0.232025,-0.076c0.444977,-0.381001 1.194977,-0.841 1.666992,-1.022999c0.471008,-0.181 0.73999,-0.333 0.597992,-0.338001c-0.141998,-0.004997 -0.632996,0.178001 -1.089996,0.405003m-145.742996,0.230999c-0.408005,0.262001 -0.966003,0.730999 -1.240005,1.041c-0.492004,0.556 -0.490005,0.555 0.166,-0.049999c0.365997,-0.337002 1.003998,-0.805 1.416,-1.039001c0.412003,-0.234001 0.671005,-0.427002 0.574005,-0.428001c-0.096008,-0.000999 -0.509003,0.213001 -0.916,0.476002m15.881989,9.896999l0.041,10.375l0.044006,-10.285999l0.044006,-10.285l1.623993,-0.055l1.624008,-0.054001l-1.709015,-0.035l-1.707993,-0.035l0.039993,10.375m44.567001,-9.973c1.065002,0.495998 2.113998,1.43 2.667999,2.375999c0.529999,0.904999 0.563004,0.901001 0.536011,-0.07c-0.021011,-0.772999 -0.024002,-0.778 -0.143997,-0.208c-0.068008,0.320999 -0.133011,0.498001 -0.145004,0.393002c-0.078003,-0.678001 -2.775009,-2.890003 -3.522003,-2.890003c-0.138,0 0.134995,0.18 0.606995,0.399002m3.292999,-0.170002c-0.048996,0.128002 -0.05899,0.522003 -0.021988,0.875c0.062988,0.611 0.067001,0.603001 0.093994,-0.148998l0.028,-0.791l1.582001,0l1.582001,0l0.043991,10.291l0.045013,10.292l0.039993,-10.375l0.039993,-10.375l-1.671997,0c-1.276001,0 -1.692993,0.055 -1.761002,0.231998m8.468018,1.560001l0.03598,1.791l0.054016,-1.702l0.053986,-1.702l1.619019,-0.055l1.618988,-0.054001l-1.708008,-0.035l-1.708984,-0.035l0.035004,1.792m34.761993,7.993999c0.024994,5.389 0.071991,10.060001 0.104004,10.381001c0.031982,0.32 0.048004,-4.048 0.036987,-9.709l-0.020996,-10.291l1.541992,0l1.541016,0l0,1.666c0,1.911999 0.085999,1.995998 0.811981,0.792c0.427002,-0.708 0.447998,-0.778999 0.109009,-0.375c-0.230988,0.275002 -0.419006,0.556 -0.419983,0.625c0,0.069 -0.073029,0.125 -0.161011,0.125c-0.088013,0 -0.182007,-0.655998 -0.208008,-1.458l-0.048004,-1.459l-1.666992,-0.047001l-1.666992,-0.047001l0.046997,9.797001m12.050995,-9.732998c0.265015,0.202999 1.319,0.753998 1.319,0.688999c0,-0.112 -1.049011,-0.741001 -1.235992,-0.741001c-0.084015,-0.000999 -0.122009,0.022999 -0.083008,0.052002m12.506012,0.363998c0.704987,0.367001 1.212982,0.849998 1.773987,1.686001c0.118988,0.176998 0.106995,0.096001 -0.027008,-0.186001c-0.371979,-0.783001 -1.819977,-1.942001 -2.384003,-1.909c-0.072998,0.004002 0.213013,0.188 0.637024,0.409m7.843994,0.541l0.031006,0.959l0.060974,-0.887001l0.062012,-0.885998l1.574005,0.052998c0.867004,0.029003 1.575012,-0.002998 1.575012,-0.071999c0,-0.069 -0.751007,-0.125 -1.667023,-0.125l-1.666992,0l0.031006,0.958m24.385986,-0.675999c0.274994,0.147999 0.757996,0.463997 1.075012,0.702c0.31601,0.237999 0.522003,0.346001 0.458008,0.239998c-0.15802,-0.259998 -1.628021,-1.225998 -1.854004,-1.216999c-0.098022,0.002998 0.04599,0.126999 0.320984,0.275002m29.786011,2.170998l0.036987,2.464001l0.050995,-2.375l0.051025,-2.375l1.578979,0l1.57901,0l0,2c0,2.289001 0.106995,2.428001 0.707001,0.915001c0.237,-0.596001 0.372986,-1.048 0.303009,-1.005001c-0.070007,0.042999 -0.27002,0.437 -0.444,0.875999l-0.31601,0.797001l-0.083008,-1.833l-0.083984,-1.834l-1.708008,-0.047001l-1.708008,-0.048l0.036011,2.465m-245.578003,-1.941998c-0.343994,0.181999 -0.625,0.368 -0.625,0.412998c0,0.046001 0.281006,-0.057999 0.625,-0.230999c0.343994,-0.172001 0.737,-0.355 0.875,-0.407001c0.222,-0.083 0.222,-0.093998 0,-0.098999c-0.138,-0.003002 -0.531006,0.143002 -0.875,0.324001m8.375,-0.303001c0.134995,0.132999 1.667007,0.779999 1.667007,0.703999c0,-0.038998 -0.207001,-0.174999 -0.459015,-0.302998c-0.498993,-0.254002 -1.341995,-0.534 -1.207993,-0.401001m64.884003,0.387001l-0.466995,0.428997l0.540985,-0.376999c0.298004,-0.207001 0.542007,-0.399998 0.542007,-0.427998c0,-0.132 -0.184006,-0.019001 -0.615997,0.375999m11.490997,-0.18c-0.298004,0.129997 -0.542007,0.272999 -0.542007,0.318001c0,0.080997 1.179001,-0.367001 1.320007,-0.501003c0.145004,-0.137997 -0.257996,-0.042999 -0.778,0.183002m8.951004,0.177998c0.500992,0.233002 1.020996,0.514 1.156998,0.624001c0.194992,0.157001 0.220993,0.155003 0.121002,-0.011997c-0.14801,-0.246002 -1.658005,-1.039001 -1.973007,-1.037003c-0.117996,0.000999 0.195007,0.192001 0.695007,0.424999m11.716003,-0.094997c-0.753006,0.459 -0.682007,0.570999 0.082993,0.132999c0.770004,-0.441002 0.800995,-0.464001 0.610992,-0.464001c-0.084,0.000999 -0.395996,0.150002 -0.693985,0.331001m35.184982,-0.011002c-1.177002,0.535 -3.065002,2.542999 -3.05899,3.254002c0.001007,0.097 0.218994,-0.203003 0.484009,-0.666c0.605988,-1.056 1.640991,-1.999001 2.743988,-2.500999c0.470001,-0.213001 0.778992,-0.391003 0.687012,-0.394001c-0.091003,-0.003002 -0.47702,0.134998 -0.856018,0.306999m8.619995,-0.257c0.171021,0.153999 1.486023,0.768002 1.486023,0.693001c0,-0.094002 -1.257019,-0.756001 -1.437012,-0.756001c-0.065002,0 -0.087006,0.028 -0.049011,0.063m27.320007,0.345001c-0.320984,0.214001 -0.845978,0.677998 -1.166992,1.031998l-0.583008,0.643002l0.690002,-0.640999c0.380005,-0.353001 0.980011,-0.82 1.333008,-1.037003c0.354004,-0.216999 0.567993,-0.392998 0.47699,-0.389999c-0.09198,0.001999 -0.429993,0.179001 -0.75,0.393002m27.947998,0.073997c0.850006,0.615002 1.292999,1.183002 1.64801,2.111c0.154999,0.407001 0.341003,0.740002 0.411987,0.740002c0.071014,0 -0.082001,-0.438 -0.34198,-0.973c-0.438995,-0.906002 -1.803009,-2.360001 -2.214996,-2.360001c-0.09201,0 0.130981,0.216999 0.496979,0.481998m4.451996,-0.002998c-0.357971,0.264 -0.911987,0.77 -1.231995,1.125c-0.48999,0.542 -0.449982,0.521999 0.25,-0.130001c0.457001,-0.426998 1.093994,-0.932999 1.415009,-1.125c0.321014,-0.190998 0.501007,-0.348 0.399994,-0.348999c-0.100983,0 -0.475983,0.215 -0.833008,0.479m18.646027,-0.055c-0.469025,0.234001 -0.952026,0.549999 -1.074005,0.702c-0.144012,0.179001 -0.036011,0.146999 0.303986,-0.091c0.289001,-0.202999 0.851013,-0.514 1.25,-0.689999c0.39801,-0.177002 0.64502,-0.327 0.548004,-0.334c-0.096985,-0.006001 -0.55899,0.18 -1.027985,0.412998m8.783997,-0.082001c0.410004,0.189003 1.009979,0.542 1.332977,0.785c0.323029,0.243 0.480011,0.309002 0.350006,0.148003c-0.291992,-0.363003 -1.449982,-1.039001 -2.013,-1.175003c-0.229004,-0.054996 -0.080994,0.053001 0.330017,0.242001m14.553986,0.09l-0.467987,0.431999l0.541992,-0.359997c0.496002,-0.330002 0.65799,-0.504002 0.467987,-0.504002c-0.040985,0 -0.284973,0.194 -0.541992,0.431999m-86.428986,0.157001c-0.34201,0.231998 -0.622009,0.459 -0.622009,0.501999c0,0.043999 0.299988,-0.118 0.666992,-0.361c0.582001,-0.384998 0.779022,-0.563999 0.622009,-0.563999c-0.024994,0 -0.325012,0.190998 -0.666992,0.423m-140.122009,-0.202c0,0.209 0.875,2.292999 0.936996,2.230999c0.033997,-0.034 -0.132004,-0.543999 -0.371002,-1.132c-0.42099,-1.042 -0.565994,-1.322998 -0.565994,-1.098999m170.367004,1.311001c-0.031006,1.349998 0.134003,1.973999 0.363983,1.375c0.054016,-0.141003 0.027008,-0.213001 -0.05899,-0.16c-0.092987,0.057999 -0.181,-0.469002 -0.214996,-1.283001l-0.056,-1.380001l-0.033997,1.448002m-145.178009,0c-0.011993,0.613998 0.034012,1.149998 0.103012,1.192997c0.067993,0.042 0.102997,-0.308998 0.076996,-0.781998c-0.080002,-1.421001 -0.156006,-1.594002 -0.180008,-0.410999m54.332001,-0.119003c-0.377991,0.411003 -0.688004,0.798 -0.688004,0.861c0,0.064003 0.025009,0.084003 0.055008,0.046001c0.029999,-0.037998 0.378006,-0.425999 0.770996,-0.861c0.393997,-0.436001 0.679001,-0.792 0.633011,-0.792c-0.045013,0 -0.392014,0.335999 -0.771011,0.745998m47.562012,-0.078999c0.358002,0.366001 0.688995,0.666 0.734985,0.666c0.045013,0 -0.209991,-0.299999 -0.567993,-0.666c-0.358002,-0.367001 -0.687988,-0.667 -0.734009,-0.667c-0.04599,0 0.209015,0.299999 0.567017,0.667m-22.542023,-0.292c-0.248993,0.312 -0.73999,1.313999 -0.675995,1.379002c0.031006,0.030998 0.253021,-0.314003 0.494019,-0.766003c0.438995,-0.823997 0.492004,-1.000999 0.181976,-0.612999m-130.965988,0.667l-0.65799,0.708l0.707993,-0.659c0.658997,-0.612999 0.785004,-0.757999 0.658997,-0.757999c-0.026993,0 -0.345993,0.319 -0.709,0.709m30.520996,-0.375c0.061005,0.229 0.180008,0.528999 0.264999,0.666c0.108002,0.174 0.121002,0.123001 0.043015,-0.166c-0.061005,-0.229 -0.180008,-0.529999 -0.264999,-0.667c-0.108002,-0.174 -0.121002,-0.123001 -0.043015,0.167m67.327011,0.333c0.362991,0.411999 0.794998,0.938 0.959,1.167c0.289001,0.402 0.289001,0.397999 0.003998,-0.127998c-0.162003,-0.300003 -0.593994,-0.825001 -0.959,-1.167l-0.664001,-0.622002l0.660004,0.75m-84.335999,0.208c0.356995,0.436001 0.677002,0.792 0.709991,0.792c0.119003,0 -0.604996,-0.925999 -0.977997,-1.25c-0.210999,-0.182999 -0.089996,0.022999 0.268005,0.458m116.10199,0.375c-0.01001,0.641998 0.041016,1.258999 0.113007,1.372002c0.070984,0.112 0.104004,-0.300003 0.071991,-0.917004c-0.083984,-1.607998 -0.165985,-1.807999 -0.184998,-0.454998m90.084015,-0.666c0.384979,0.658001 0.393982,0.667999 0.393982,0.463001c0,-0.097 -0.154999,-0.353001 -0.343994,-0.57l-0.342987,-0.393002l0.292999,0.5m7.958984,0.125c-0.612,0.663002 -0.964996,1.125 -0.862,1.125c0.042999,0 0.394012,-0.375 0.779999,-0.834c0.791992,-0.938999 0.841003,-1.113998 0.082001,-0.291m-349.658995,0.166l-0.49,0.542l0.542,-0.490002c0.505,-0.455997 0.618,-0.592999 0.49,-0.592999c-0.028999,0 -0.273,0.243 -0.542,0.541m7.058001,-0.286999c-0.051001,0.181 -0.144001,0.479 -0.206001,0.661999c-0.061998,0.183998 0.009001,0.123001 0.158001,-0.134998c0.149,-0.257 0.242001,-0.555 0.207001,-0.662003c-0.036001,-0.106998 -0.107,-0.045998 -0.159,0.135002m188.872005,0.786999l-0.477005,1.042l-0.065002,-1c-0.063995,-0.998001 -0.065002,-0.997002 -0.095993,0.242001c-0.019012,0.743999 0.028992,1.177998 0.118988,1.083c0.201004,-0.211002 1.185013,-2.408001 1.07901,-2.408001c-0.046005,0 -0.298004,0.467999 -0.559998,1.041m166.998001,-0.414001c0.291992,0.391003 0.746979,1.103001 1.011993,1.583c0.264008,0.48 0.481995,0.798 0.481995,0.706001c0.002991,-0.281002 -0.937988,-1.799999 -1.496002,-2.416l-0.528992,-0.584l0.531006,0.710999m-284.834007,-0.404999c0,0.044998 0.300003,0.320999 0.666,0.611c0.366997,0.290001 0.667,0.491001 0.667,0.445c0,-0.046001 -0.300003,-0.320999 -0.667,-0.612c-0.365997,-0.290001 -0.666,-0.490002 -0.666,-0.444m219.624992,0.855c0.315002,0.850002 0.449005,0.922001 0.710999,0.381001c0.167999,-0.345001 0.162994,-0.351002 -0.061005,-0.074001c-0.22699,0.282001 -0.255981,0.263 -0.437988,-0.288998c-0.106995,-0.325001 -0.261993,-0.632 -0.343994,-0.683002c-0.082001,-0.049999 -0.02301,0.249001 0.131989,0.665001m-170.426987,-0.436001c-0.210999,0.060001 0.44899,0.109001 1.467987,0.109001c1.019012,0 1.680008,-0.049 1.469009,-0.109001c-0.212006,-0.058998 -0.873001,-0.107998 -1.469009,-0.107998c-0.595993,0 -1.255997,0.049 -1.467987,0.107998m50.42099,0.041c-0.623993,0.146999 -1.618988,0.595001 -1.618988,0.729c0,0.039001 0.355988,-0.091999 0.790985,-0.291c0.627014,-0.285 1.115005,-0.361 2.344009,-0.364998c0.852997,-0.003002 1.377991,-0.054001 1.166,-0.114002c-0.548996,-0.153999 -1.943008,-0.132999 -2.682007,0.041m34.046997,-0.043999c-0.252991,0.077 0.203003,0.124001 1.167007,0.118999c0.871002,-0.004002 1.845993,0.048 2.167007,0.115002c0.470993,0.098 0.521988,0.085999 0.265991,-0.064003c-0.380997,-0.223999 -3.013,-0.348 -3.600006,-0.169998m21.024002,0.053001c-0.806,0.231998 -0.567993,0.320999 0.314011,0.118c0.409988,-0.095001 1.15799,-0.135002 1.661987,-0.09c0.571014,0.050999 0.791,0.029999 0.584015,-0.057003c-0.447006,-0.185997 -1.868011,-0.169998 -2.560013,0.029003m35.809998,-0.088001c-0.229004,0.038998 -0.667999,0.111 -0.975983,0.160999c-0.998016,0.161999 -0.468018,0.216999 0.699982,0.071999c1.031006,-0.127998 2.498016,-0.024998 3.359009,0.235001c0.183014,0.055 0.108002,-0.004997 -0.166992,-0.132999c-0.540009,-0.251999 -2.240997,-0.446999 -2.916016,-0.334999m85.800018,0.160999c-0.431,0.132999 -0.822021,0.302002 -0.868011,0.376999c-0.04599,0.075001 0.306,0.000999 0.783997,-0.163998c0.488007,-0.169003 1.339996,-0.299999 1.950012,-0.299999c0.609985,0 1.462982,0.130997 1.950989,0.299999c0.47699,0.164997 0.830017,0.238998 0.785004,0.164997c-0.348999,-0.563 -3.230011,-0.799999 -4.60199,-0.377998m-64.925018,0.230999c-0.389984,0.177002 -0.708984,0.359001 -0.708984,0.405003c0,0.045998 0.319,-0.061001 0.708984,-0.238003c1.600006,-0.726997 4.089996,-0.273998 4.787018,0.870003c0.184998,0.302998 0.336975,0.466999 0.336975,0.364998c0.005005,-1.337997 -3.28299,-2.237999 -5.123993,-1.402m13.166016,-0.206997c0.343994,0.035999 0.906982,0.035999 1.25,0c0.343994,-0.036003 0.062988,-0.066002 -0.625,-0.066002c-0.687012,0 -0.968018,0.029999 -0.625,0.066002m19.708984,0.032997c-0.184998,0.073002 0.261017,0.099003 1,0.059002c1.731995,-0.095001 1.97702,-0.187 0.5,-0.188999c-0.641998,-0.001003 -1.316986,0.057999 -1.5,0.129997m11.666016,0.101002c-0.378021,0.181999 -0.39801,0.210999 -0.083008,0.118c0.229004,-0.068001 1.108002,-0.124001 1.953003,-0.124001c0.845001,0 1.406982,-0.050999 1.25,-0.112999c-0.527008,-0.208 -2.604004,-0.129002 -3.119995,0.118999m-128.415009,0.603001c-0.276001,0.379997 -0.500992,0.767998 -0.500992,0.861c0,0.202 -0.024002,0.23 0.631989,-0.761002c0.643997,-0.974998 0.553009,-1.044998 -0.130997,-0.099998m30.179001,-0.639c0.264999,0.202999 1.320007,0.753998 1.320007,0.688999c0,-0.112 -1.049011,-0.741001 -1.236008,-0.741001c-0.084,-0.000999 -0.121994,0.022999 -0.084,0.052002m40.753006,0.479c0.587006,1.135998 0.634979,1.613998 0.730988,7.300999l0.097992,5.75l0.034027,-5.416c0.024994,-4.074001 -0.022003,-5.624001 -0.189026,-6.25c-0.222992,-0.838001 -0.710999,-1.917 -0.865997,-1.917c-0.04599,0 0.041016,0.238998 0.192017,0.532001m24.639984,-0.273003c-0.317993,0.255001 -0.317993,0.257 0.01001,0.106003c0.183014,-0.084003 0.446014,-0.195004 0.583008,-0.246002c0.216003,-0.079998 0.214996,-0.093998 -0.009003,-0.105999c-0.143005,-0.007 -0.406006,0.104 -0.584015,0.245998m24.093018,-0.139999c0.138,0.050999 0.399994,0.161999 0.583984,0.246002c0.328003,0.150997 0.328003,0.148998 0.009003,-0.106003c-0.177002,-0.141998 -0.440002,-0.252998 -0.583008,-0.245998c-0.223999,0.012001 -0.225983,0.026001 -0.009979,0.105999m-193.583008,0.32c0.091995,0.081001 0.429001,0.371002 0.748993,0.646l0.583008,0.498001l-0.416,-0.473c-0.229004,-0.261002 -0.565994,-0.551003 -0.748993,-0.646c-0.184006,-0.094002 -0.259003,-0.105 -0.167007,-0.025002m50.524994,0.398003c0.289001,0.318996 0.682007,0.841999 0.874008,1.162998c0.192993,0.320999 0.349991,0.500999 0.349991,0.400002c0.001007,-0.251003 -0.862,-1.41 -1.349991,-1.813c-0.247009,-0.204002 -0.199005,-0.109001 0.125992,0.25m16.932999,-0.389c0.161011,0.042 0.423004,0.042 0.584015,0c0.159988,-0.042004 0.028992,-0.076 -0.292007,-0.076c-0.320999,0 -0.451996,0.033997 -0.292007,0.076m1.252014,0.002998c0.207993,0.040001 0.507996,0.039001 0.666992,-0.002998c0.158997,-0.042004 -0.009995,-0.074001 -0.376999,-0.073002c-0.367004,0.001999 -0.496994,0.035999 -0.289993,0.076m55.081985,-0.002998c0.160004,0.042 0.423004,0.042 0.583008,0c0.160004,-0.042004 0.028992,-0.076 -0.291992,-0.076c-0.321014,0 -0.451996,0.033997 -0.291016,0.076m1.25,0.002998c0.205994,0.040001 0.542999,0.040001 0.75,0c0.205994,-0.040001 0.037018,-0.071999 -0.375,-0.071999c-0.412994,0 -0.582001,0.031998 -0.375,0.071999m81.559998,0.291c0.14801,0.188 0.35202,0.491001 0.45401,0.674999c0.101013,0.182999 0.186005,0.240002 0.188995,0.126999c0.002991,-0.112999 -0.200989,-0.416 -0.453003,-0.674c-0.251984,-0.257999 -0.337982,-0.315998 -0.190002,-0.127998m38.52301,-0.293999c0.160004,0.042 0.423004,0.042 0.583008,0c0.16098,-0.042004 0.029999,-0.076 -0.291016,-0.076c-0.320984,0 -0.451996,0.033997 -0.291992,0.076m1.25,0.002998c0.205994,0.040001 0.544006,0.040001 0.75,0c0.205994,-0.040001 0.036987,-0.071999 -0.375,-0.071999c-0.412994,0 -0.580994,0.031998 -0.375,0.071999m-161.125,0.632c0.311005,0.320999 0.602997,0.584 0.649002,0.584c0.046005,0 -0.171005,-0.263 -0.481995,-0.584c-0.311005,-0.320999 -0.603012,-0.583 -0.649002,-0.583c-0.046005,0 0.17099,0.262001 0.481995,0.583m48.752014,-0.084999c-0.263,0.273998 -0.443024,0.532997 -0.400024,0.576c0.042023,0.042 0.283997,-0.182003 0.536011,-0.498001c0.565002,-0.708 0.502014,-0.743999 -0.135986,-0.077999m-56.279007,0.126999c-0.539001,0.585999 -0.973007,1.234001 -0.972,1.453999c0,0.094002 0.15799,-0.091999 0.349991,-0.411999c0.192001,-0.320999 0.544006,-0.790001 0.781006,-1.042c0.235992,-0.251999 0.39299,-0.458 0.347,-0.458c-0.046005,0 -0.27301,0.206001 -0.505997,0.458m78.74498,-0.083c-0.325989,0.358002 -1.056,1.464001 -0.852997,1.291c0.160004,-0.136002 1.304016,-1.666 1.246002,-1.666c-0.028992,0 -0.205994,0.167999 -0.393005,0.375m32.299011,0.214001c-0.283997,0.324001 -0.516998,0.639 -0.516998,0.700001c0,0.060997 0.057007,0.038998 0.126007,-0.048c0.070007,-0.087002 0.345978,-0.402 0.61499,-0.700001c0.268005,-0.298 0.444,-0.541 0.390991,-0.541c-0.053986,0 -0.329987,0.264999 -0.61499,0.589001m11.907013,-0.067001c-0.497009,0.59 -1.091003,1.688999 -1.08902,2.013c0.001007,0.118 0.177002,-0.16 0.391022,-0.618999c0.213989,-0.458 0.595001,-1.077 0.845978,-1.375c0.252014,-0.298 0.420013,-0.541 0.374023,-0.541c-0.046021,0 -0.281006,0.235001 -0.522003,0.521999m-211.766006,0.327c-0.19101,0.375999 -0.319,0.712002 -0.284012,0.746002c0.035004,0.035 0.226013,-0.271999 0.42601,-0.681999c0.453995,-0.935001 0.330994,-0.990002 -0.141998,-0.064003m76.685989,-0.167999c-0.28299,0.284 -0.598999,0.677002 -0.701996,0.875c-0.102997,0.198002 -0.151993,0.323002 -0.110001,0.277c1.399002,-1.504002 1.959,-2.299 0.811996,-1.152m40.396011,0.040001c0.255997,0.336998 0.5,0.612 0.541,0.612c0.115997,0 -0.606003,-0.974998 -0.819,-1.106998c-0.104004,-0.064003 0.020996,0.158997 0.278,0.494999m15.917984,0.07l-0.574982,0.625l0.625,-0.574001c0.582001,-0.535 0.701996,-0.675999 0.574982,-0.675999c-0.027985,0 -0.30899,0.282001 -0.625,0.625m19.587006,0.108002c0.231995,0.449997 0.428009,0.974998 0.434998,1.167c0.007019,0.192997 0.050995,0.257 0.097015,0.142998c0.115997,-0.287998 -0.218018,-1.210999 -0.619019,-1.709c-0.261993,-0.326 -0.242981,-0.237999 0.087006,0.399002m79.231995,-0.441002c-0.47998,0.578999 -0.682983,0.875 -0.600983,0.875c0.046997,0 0.285004,-0.263 0.528992,-0.583c0.45401,-0.596001 0.509003,-0.82 0.071991,-0.292m7.775024,0.292c0.667999,0.927002 0.85199,1.098999 0.47998,0.446999c-0.173004,-0.303997 -0.459991,-0.678997 -0.638,-0.834c-0.186981,-0.162998 -0.121002,-0.000999 0.15802,0.387001m14.738983,0.041l-0.574005,0.625l0.625,-0.574001c0.580994,-0.535 0.701019,-0.675999 0.574005,-0.675999c-0.027985,0 -0.30899,0.282001 -0.625,0.625m-148.386993,0.100998c-0.128006,0.308002 -0.279007,0.814003 -0.334,1.125c-0.110001,0.627003 -0.039001,0.485001 0.404999,-0.808998c0.334991,-0.977001 0.289993,-1.179001 -0.070999,-0.316002m73.227997,-0.184998c-0.488007,0.732998 -0.524994,0.868 -0.105011,0.375999c0.372009,-0.435001 0.538025,-0.75 0.395996,-0.75c-0.02298,0 -0.154999,0.167999 -0.290985,0.374001m-227.166,0.250999c0.218002,0.298 0.422997,0.542 0.455002,0.542c0.125999,0 -0.287003,-0.625 -0.560005,-0.847c-0.18,-0.146999 -0.139999,-0.029999 0.105003,0.305m51.830994,0c-0.381989,0.485001 -0.877991,1.549999 -0.771988,1.655998c0.034988,0.035004 0.160995,-0.182999 0.278992,-0.483997c0.119003,-0.301003 0.395004,-0.791 0.613998,-1.089001c0.484009,-0.657001 0.384003,-0.724998 -0.121002,-0.083m50.800003,-0.167c-0.251999,0.290001 -0.763992,1.206001 -0.578995,1.037998c0.149994,-0.136997 0.944992,-1.328999 0.886002,-1.328999c-0.029007,0 -0.167007,0.131001 -0.307007,0.291m-169.963997,0.738998c-0.412001,0.376003 -0.6,0.605 -0.416,0.508003c0.313,-0.166 1.396999,-1.213001 1.239,-1.198002c-0.040001,0.004002 -0.41,0.313999 -0.823,0.689999m156.769997,0.573002c-0.237991,0.709 -0.404999,1.317001 -0.369995,1.352001c0.035004,0.035 0.259003,-0.516003 0.496994,-1.225002c0.238007,-0.709 0.404999,-1.318001 0.37001,-1.353001c-0.035004,-0.034 -0.258011,0.517002 -0.497009,1.226002m3.585007,-0.332001c-0.199005,0.519001 -0.334,0.972 -0.298996,1.006001c0.033997,0.035 0.224991,-0.362 0.423996,-0.881001c0.197998,-0.52 0.332993,-0.973 0.297989,-1.007c-0.033997,-0.035 -0.224991,0.362 -0.422989,0.882m4.685989,11.437l-0.041,12.458l1.792007,-0.035004l1.792007,-0.034996l-1.708008,-0.054001l-1.707001,-0.054001l-0.044006,-12.368999l-0.043991,-12.368999l-0.040009,12.458m59.708008,-11.5c-0.220001,0.480999 -0.440994,1.212002 -0.490997,1.625c-0.084,0.689999 -0.072006,0.673 0.154999,-0.207001c0.134995,-0.526001 0.399002,-1.257 0.585999,-1.625c0.188004,-0.367001 0.298004,-0.667999 0.246002,-0.667999c-0.053009,0 -0.276001,0.394001 -0.496002,0.875m-96.735001,0.011002c0.190002,0.441998 0.445999,1.266998 0.569,1.834c0.123001,0.565998 0.229996,0.831997 0.237,0.588997c0.018005,-0.573997 -0.570007,-2.469997 -0.897003,-2.894997c-0.162994,-0.212002 -0.12999,-0.042 0.091003,0.472m209.362015,0.030998c0.001984,0.366001 0.03598,0.497002 0.075989,0.289001c0.039001,-0.207001 0.037994,-0.507 -0.003998,-0.666c-0.041992,-0.16 -0.074005,0.009998 -0.071991,0.376999m-205.603012,-0.084c0.067993,0.23 0.251999,0.98 0.410995,1.667c0.158005,0.688 0.292999,1.099998 0.298996,0.917c0.016998,-0.464001 -0.450989,-2.397999 -0.659988,-2.728001c-0.133011,-0.209999 -0.144012,-0.176998 -0.050003,0.144001m115.539993,0.591999c-0.18399,0.416 -0.311005,0.823002 -0.281982,0.902c0.028992,0.080002 0.211975,-0.260998 0.405975,-0.757c0.429016,-1.096001 0.34201,-1.197998 -0.123993,-0.145m-168.441994,-0.376999l0.453995,0.18l0.051003,2.260998l0.051003,2.261002l0.036995,-2.296001l0.036003,-2.295998l-0.427002,-0.162003c-0.235001,-0.09 -0.478996,-0.154999 -0.542,-0.144997c-0.062996,0.009998 0.090004,0.098999 0.340004,0.196999m69.62899,-0.173c0,0.206001 1.040009,2.806999 1.099014,2.748001c0.033997,-0.034 -0.166,-0.655003 -0.446014,-1.381001c-0.471985,-1.227001 -0.653,-1.605 -0.653,-1.367001m185.461014,6.715c0.023987,3.754002 0.065002,7.352001 0.09198,7.993c0.026001,0.641998 0.054016,-2.208 0.061005,-6.333c0.007996,-4.125 -0.033997,-7.722 -0.09198,-7.993999c-0.058014,-0.271 -0.085022,2.578999 -0.061005,6.334m-188.881012,-6.132c0.064011,0.160999 0.266998,0.690998 0.451004,1.179001c0.184006,0.487 0.369003,0.851997 0.410004,0.812c0.087997,-0.088001 -0.770996,-2.282001 -0.893005,-2.282001c-0.04599,0 -0.030991,0.131001 0.031998,0.291m45.687012,0.5c-0.490005,1.488998 -0.593002,3.130001 -0.564011,8.959l0.029999,5.833l0.106003,-6.583c0.104996,-6.540001 0.160004,-7.186001 0.751007,-8.709c0.061996,-0.16 0.072998,-0.291 0.024994,-0.291c-0.048004,0 -0.205002,0.355999 -0.347992,0.791m-202.230006,1.48c-0.032,1.911999 0,2.216999 0.255,2.417c0.257,0.201 0.267,0.196999 0.089,-0.031998c-0.129,-0.166 -0.223,-1.051003 -0.256,-2.417004l-0.052,-2.155998l-0.036,2.188m227.980998,-2.021c-0.009003,0.091 0.063995,0.455002 0.162003,0.807999c0.097992,0.352001 0.244003,1.252003 0.324005,2l0.144989,1.358002l-0.067993,-1.416c-0.055008,-1.153999 -0.507004,-3.358002 -0.563004,-2.75m40.608994,0.034c0.208008,0.040001 0.507996,0.039001 0.667023,-0.002998c0.158997,-0.042004 -0.01001,-0.074001 -0.377014,-0.073002c-0.367004,0.001999 -0.497009,0.035999 -0.290009,0.076m-259.292992,0.632c-0.596,0.312 -1.025,0.570999 -0.954,0.576c0.177,0.010998 2.12,-0.977001 2.12,-1.077999c0,-0.112 0.039,-0.129002 -1.166,0.501999m261.041008,-0.467999c0.16098,0.042 0.423004,0.042 0.583984,0c0.160004,-0.042 0.029022,-0.076 -0.291992,-0.076c-0.321014,0 -0.451996,0.034 -0.291992,0.076m42.67099,0.551998c0,0.411999 0.032013,0.581001 0.071991,0.375c0.040009,-0.207001 0.040009,-0.543999 0,-0.75c-0.039978,-0.207001 -0.071991,-0.037998 -0.071991,0.375m-33.04599,0.745998l0,1.246002l-3.208008,0.049999l-3.208008,0.049l3.291016,0.036999l3.291992,0.038002l0,-1.333c0,-0.733002 -0.037994,-1.333 -0.083008,-1.333c-0.04599,0 -0.083984,0.561001 -0.083984,1.245998m36.576996,6.254002c0,4.170002 0.022003,5.876999 0.048004,3.791c0.026978,-2.084999 0.026978,-5.498001 0,-7.583c-0.026001,-2.084999 -0.048004,-0.379002 -0.048004,3.792m32.5,0c0,4.170002 0.022003,5.876999 0.048004,3.791c0.026978,-2.084999 0.026978,-5.498001 0,-7.583c-0.026001,-2.084999 -0.048004,-0.379002 -0.048004,3.792m-47.833008,0.166c0,4.079998 0.020996,5.748001 0.048004,3.709c0.026001,-2.040001 0.026001,-5.376999 0,-7.417c-0.027008,-2.040001 -0.048004,-0.370998 -0.048004,3.708m55.863007,-6.798c-0.056,0.209999 -0.096008,0.532001 -0.088013,0.715c0.007996,0.182999 0.083008,0.041 0.167023,-0.317001c0.162994,-0.691998 0.092987,-1.041 -0.07901,-0.397999m-132.302002,1.048c0.166992,1.740002 0.104004,5.043999 -0.117004,6.065998c-0.106995,0.495003 -0.162003,0.932003 -0.121994,0.972c0.417999,0.418003 0.673996,-6.268997 0.291,-7.620998c-0.128006,-0.452999 -0.139999,-0.324001 -0.052002,0.583m20.600998,-0.848c0.475006,1.453999 0.485001,4.890999 0.018997,7.098c-0.047989,0.23 0.026001,0.079998 0.165009,-0.333c0.528,-1.566002 0.449997,-6.042999 -0.118011,-6.844002c-0.132996,-0.186996 -0.146988,-0.169998 -0.065994,0.079002m107.98201,0.541c-0.199005,1.166 -0.143005,5.523998 0.079987,6.306999c0.184998,0.646999 0.188019,0.648998 0.11499,0.084c-0.225983,-1.737999 -0.274994,-4.390999 -0.10498,-5.653c0.20401,-1.511002 0.135986,-2.064999 -0.089996,-0.737999m-60.511993,-0.026001c0.001984,0.367001 0.03598,0.497002 0.075989,0.290001c0.039001,-0.208 0.037994,-0.507999 -0.003998,-0.667c-0.041992,-0.159 -0.074005,0.009998 -0.071991,0.376999m86.713989,-0.042c-0.063019,0.298 -0.136017,3.466999 -0.162018,7.042l-0.04599,6.5l0.119995,-6.417c0.06601,-3.528999 0.177002,-6.698002 0.247009,-7.041c0.071014,-0.343998 0.088989,-0.625 0.041992,-0.625c-0.046997,0 -0.138,0.243 -0.200989,0.541m-373.307004,0.064999c-0.125,0.125 0.012,0.394001 0.198999,0.394001c0.071,0 0.129001,-0.112999 0.129001,-0.25c0,-0.262001 -0.146,-0.326 -0.328,-0.144001m327.459989,6.644001c0,3.757999 0.022003,5.319 0.049011,3.469002c0.027008,-1.850002 0.027008,-4.925003 0,-6.833c-0.027008,-1.908001 -0.049011,-0.395 -0.049011,3.363998m-98.203995,-6.084c0,0.320999 0.034012,0.452 0.076004,0.292c0.042007,-0.16 0.042007,-0.423 0,-0.583c-0.041992,-0.160999 -0.076004,-0.029999 -0.076004,0.291m69.203995,6.167c0,3.712002 0.022003,5.230999 0.049011,3.375c0.027008,-1.855999 0.027008,-4.894001 0,-6.75c-0.027008,-1.855999 -0.049011,-0.337002 -0.049011,3.375m63.091003,-6.167l0,0.5l-5.404999,0l-5.404999,0l-0.072998,-0.375c-0.062012,-0.320999 -0.074982,-0.309002 -0.095001,0.084l-0.022003,0.458l5.583008,0l5.583008,0l0,-0.583c0,-0.320999 -0.037018,-0.584 -0.083008,-0.584c-0.04599,0 -0.083008,0.224998 -0.083008,0.5m-177.621994,0.334c0,0.411999 0.033005,0.581001 0.072998,0.375c0.039001,-0.207001 0.039001,-0.543999 0,-0.75c-0.039993,-0.207001 -0.072998,-0.037998 -0.072998,0.375m135.030991,6c0,3.620998 0.022003,5.102001 0.049011,3.291c0.027008,-1.810001 0.027008,-4.772999 0,-6.583c-0.027008,-1.810001 -0.049011,-0.328999 -0.049011,3.292m-195.870987,-5.834c0,0.320999 0.035004,0.452 0.076996,0.292c0.041,-0.16 0.041,-0.423 0,-0.583c-0.041992,-0.160999 -0.076996,-0.029999 -0.076996,0.291m11.014999,0.5c0,0.596001 0.029999,0.84 0.067001,0.542c0.037003,-0.298 0.037003,-0.785 0,-1.083c-0.037003,-0.298 -0.067001,-0.055 -0.067001,0.541m53.496994,-0.166c0,0.504002 0.031006,0.709999 0.069,0.458c0.03801,-0.251999 0.03801,-0.665001 0,-0.917c-0.037994,-0.251999 -0.069,-0.045002 -0.069,0.459m-49.817993,1.583c0,1.283001 0.026993,1.785999 0.057999,1.118c0.031998,-0.668999 0.031998,-1.719002 0,-2.334c-0.031998,-0.614002 -0.057999,-0.067001 -0.057999,1.216m35.979996,-1.583c0,0.411999 0.031998,0.581001 0.072006,0.375c0.039993,-0.207001 0.039993,-0.543999 0,-0.75c-0.040009,-0.207001 -0.072006,-0.037998 -0.072006,0.375m112.696991,5.666c0,3.528999 0.022003,4.973 0.049011,3.209c0.027008,-1.764999 0.027008,-4.652 0,-6.417c-0.027008,-1.764999 -0.049011,-0.320999 -0.049011,3.208m-284.408989,-5.916c0.229,0.131001 0.491,0.237999 0.583,0.237999c0.092,0 -0.021,-0.106998 -0.25,-0.237999c-0.229,-0.131001 -0.492,-0.238998 -0.583,-0.238998c-0.092,0 0.021,0.107998 0.25,0.238998m94.410004,-0.042999c-0.045006,0.116001 -0.061005,2.947998 -0.035004,6.292999l0.045998,6.083l0.039001,-6.208l0.040001,-6.209l7.164001,0l7.165001,0l0.046997,6.209l0.046997,6.208l-0.003998,-6.25l-0.002998,-6.25l-7.212997,-0.042999c-5.694,-0.035 -7.229004,0.000999 -7.292999,0.167m22.965004,0.375999c0.001999,0.367001 0.035995,0.497002 0.075989,0.290001c0.040009,-0.208 0.03801,-0.507999 -0.002991,-0.667c-0.042007,-0.159 -0.075012,0.009998 -0.072998,0.376999m88.189987,1.583c0,1.237999 0.026001,1.743999 0.057999,1.125c0.032013,-0.618 0.032013,-1.631001 0,-2.25c-0.031998,-0.618 -0.057999,-0.112 -0.057999,1.125m18,0.084c0.001007,1.283001 0.027008,1.785999 0.059006,1.117001c0.031006,-0.667999 0.031006,-1.717999 -0.001007,-2.333c-0.031998,-0.615002 -0.057999,-0.068001 -0.057999,1.216m-61.546997,-1.564999c-0.102005,0.293999 -0.156998,0.564999 -0.121994,0.599998c0.035995,0.035999 0.149002,-0.175999 0.251999,-0.471001c0.102005,-0.293999 0.156998,-0.563999 0.121994,-0.599998c-0.035995,-0.035999 -0.149002,0.175999 -0.251999,0.471001m102.274994,-0.401001c0.208008,0.040001 0.507996,0.039001 0.667023,-0.002998c0.158997,-0.042004 -0.01001,-0.074001 -0.377014,-0.073002c-0.367004,0.001999 -0.497009,0.035999 -0.290009,0.076m-62.396988,1.882c0,1.054001 0.026993,1.486 0.059998,0.959c0.033005,-0.527 0.033005,-1.389999 0,-1.917c-0.033005,-0.527 -0.059998,-0.096001 -0.059998,0.958m-129.538002,-0.999001c-0.380005,0.276001 -0.692001,0.542 -0.692001,0.591999c0,0.078003 0.939003,-0.560997 1.408997,-0.958c0.394005,-0.334999 -0.092995,-0.084999 -0.716995,0.366001m290.839012,0.624001l-0.031006,1.042l-7.358002,0l-7.358002,0l0.100006,1.297001c0.054993,0.714001 0.181,1.481998 0.279999,1.709l0.178986,0.410999l-0.088989,-0.417c-0.048004,-0.229 -0.136017,-0.959999 -0.195007,-1.625l-0.108002,-1.208l7.279999,0c8.161011,0 7.494995,0.122002 7.393005,-1.354l-0.062012,-0.896l-0.030975,1.041m-361.114014,-0.514c0.922,0.91 2.087,1.877998 1.5,1.245998c-0.367,-0.395 -0.892,-0.873997 -1.167,-1.063999c-0.275001,-0.190998 -0.425,-0.272999 -0.333,-0.181999m155.936996,1.409c-0.283997,0.847 -0.487991,1.568001 -0.453003,1.603001c0.035004,0.035 0.295013,-0.629002 0.57901,-1.476002c0.283997,-0.847 0.487991,-1.568001 0.453003,-1.603001c-0.035004,-0.034 -0.295013,0.630001 -0.57901,1.476002m91.720993,4.146999c0,3.162998 0.02301,4.456001 0.050018,2.875c0.026978,-1.581001 0.026978,-4.168999 0,-5.75c-0.027008,-1.581001 -0.050018,-0.287998 -0.050018,2.875m10.291016,-4.724998l-0.782013,0.773998l0.833008,-0.718998c0.458008,-0.396004 0.86499,-0.745003 0.903015,-0.775002c0.037994,-0.029999 0.014984,-0.055 -0.052002,-0.055c-0.06601,0 -0.472015,0.348999 -0.902008,0.775002m-98.588013,0.085999c-0.150986,0.383999 -0.246994,0.724998 -0.212997,0.758999c0.033005,0.033001 0.184998,-0.251999 0.337997,-0.633999c0.153015,-0.382 0.249008,-0.723 0.214005,-0.758999c-0.035995,-0.035 -0.188004,0.25 -0.339005,0.633999m58.928009,-0.028c0,0.320999 0.033997,0.452 0.076004,0.292c0.041992,-0.16 0.041992,-0.423 0,-0.583c-0.042007,-0.160999 -0.076004,-0.029999 -0.076004,0.291m-227.539001,-0.083c0.761,0.292999 1.06,0.289001 0.417,-0.006001c-0.275,-0.125999 -0.613,-0.227001 -0.75,-0.223999c-0.138,0.002998 0.012,0.105999 0.333,0.23m77.990997,0.375l-0.573997,0.625l0.625,-0.574001c0.343002,-0.315998 0.625,-0.598 0.625,-0.625c0,-0.127998 -0.140999,-0.007999 -0.676003,0.574001m79.341995,-0.404999c0,0.209999 0.875,2.293999 0.937012,2.231998c0.034988,-0.034 -0.132004,-0.543999 -0.37001,-1.132c-0.421997,-1.042 -0.567001,-1.322998 -0.567001,-1.099998m-70.332993,0.529999c-0.228996,0.131001 -0.342003,0.237999 -0.25,0.237999c0.092003,0 0.353996,-0.106998 0.583,-0.237999c0.230003,-0.131001 0.342003,-0.237999 0.25,-0.237999c-0.091003,0 -0.354004,0.106998 -0.583,0.237999m74.106003,0.083c0.056,0.23 0.203995,0.641998 0.330002,0.917c0.181992,0.402 0.207001,0.417999 0.125,0.083c-0.056,-0.229 -0.205002,-0.640999 -0.330002,-0.916c-0.182999,-0.402 -0.207001,-0.417999 -0.125,-0.084m117.785995,1.167c0,0.778999 0.028015,1.098 0.062988,0.708c0.035004,-0.389 0.035004,-1.027 0,-1.416c-0.034973,-0.389999 -0.062988,-0.070999 -0.062988,0.708m-139.671997,-0.167c0,0.596001 0.029999,0.84 0.067001,0.542c0.037003,-0.298 0.037003,-0.785 0,-1.083c-0.037003,-0.298 -0.067001,-0.055 -0.067001,0.541m53.498001,-0.083c0.000992,0.549999 0.031998,0.755001 0.069,0.455002c0.037994,-0.299004 0.037003,-0.749001 -0.001007,-1c-0.037994,-0.25 -0.069,-0.005001 -0.067993,0.544998m-189.718002,-0.228001c0.504,0.285999 1.065,0.640999 1.247,0.790001c0.31,0.254002 0.316,0.252998 0.106,-0.019001c-0.233999,-0.301998 -1.866,-1.293999 -2.123,-1.291c-0.081,0 0.266,0.235001 0.77,0.52m224.363998,0.246002c-0.016998,0.376999 -0.067001,1.051998 -0.110992,1.5l-0.081009,0.814999l0.171005,-0.666c0.093002,-0.367001 0.143997,-1.042 0.110992,-1.5c-0.054993,-0.778 -0.060989,-0.787998 -0.089996,-0.148998m38.711014,-0.086002c-0.146027,0.284 -0.237,0.545002 -0.200012,0.581001c0.036011,0.036999 0.190002,-0.195 0.34201,-0.514999c0.342987,-0.719002 0.223999,-0.774002 -0.141998,-0.066002m-141.533005,0.235001c0.001999,0.366001 0.035995,0.497002 0.075989,0.289001c0.040009,-0.207001 0.03801,-0.507 -0.002991,-0.666c-0.042007,-0.16 -0.075012,0.009998 -0.072998,0.376999m145.653,0.041l-0.626007,0.625l0.589996,-0.499001c0.325012,-0.275002 0.662018,-0.556 0.748993,-0.625c0.087006,-0.069 0.102997,-0.125999 0.036011,-0.125999c-0.067993,0 -0.404999,0.282001 -0.748993,0.625m-91.31601,0.375c0,0.412998 0.031998,0.582001 0.072006,0.375c0.039993,-0.206001 0.039993,-0.542999 0,-0.75c-0.040009,-0.206001 -0.072006,-0.036999 -0.072006,0.375m-94.494995,-0.070999l-0.467003,0.429001l0.541,-0.377003c0.297997,-0.207001 0.542,-0.399998 0.542,-0.429001c0,-0.130997 -0.183998,-0.017998 -0.615997,0.377003m43.820999,0.070999c0,0.320999 0.035004,0.452 0.076996,0.292c0.041,-0.16 0.041,-0.423 0,-0.583c-0.041992,-0.160999 -0.076996,-0.029999 -0.076996,0.291m60.837006,0.084c0.001999,0.366001 0.035995,0.497002 0.075989,0.289001c0.040009,-0.207001 0.03801,-0.507 -0.002991,-0.666c-0.042007,-0.16 -0.075012,0.009998 -0.072998,0.376999m45.329987,0.416c0,0.320999 0.034012,0.452 0.076004,0.292c0.042007,-0.16 0.042007,-0.423 0,-0.583c-0.041992,-0.160999 -0.076004,-0.029999 -0.076004,0.291m-229.704994,-0.281002c0,0.029003 0.243,0.273003 0.541,0.542004l0.542,0.488998l-0.49,-0.541c-0.456,-0.505001 -0.593,-0.618999 -0.593,-0.490002m134.355995,0.703003c-0.013,0.187 -0.128998,0.749001 -0.258987,1.25c-0.130005,0.500999 -0.210007,0.938 -0.177002,0.971001c0.125,0.125 0.599991,-1.826 0.530991,-2.184002c-0.065002,-0.334 -0.074997,-0.338001 -0.095001,-0.036999m3.421005,1.034c-0.167999,0.711998 -0.341995,1.406998 -0.386993,1.543999c-0.072006,0.218998 -0.061005,0.218998 0.087997,0.005001c0.214996,-0.309002 0.740997,-2.43 0.662003,-2.667c-0.032013,-0.097 -0.196014,0.405998 -0.363007,1.118m122.997009,-0.669003c-0.057007,0.346001 -0.094025,1.042999 -0.083008,1.547001c0.018005,0.734001 0.048004,0.618999 0.153992,-0.581001c0.139008,-1.571999 0.105011,-2.032997 -0.070984,-0.966m-98.499008,1.072002c-0.242996,0.657997 -0.414001,1.223999 -0.380005,1.257999c0.033997,0.035 0.261002,-0.476002 0.505005,-1.132999c0.242996,-0.658001 0.414001,-1.224003 0.380005,-1.259003c-0.035004,-0.035 -0.262009,0.475002 -0.505005,1.134003m111.589005,-0.562c-0.112,0.372997 -0.472015,1.077 -0.800018,1.563999c-0.355988,0.529999 -0.453979,0.757999 -0.242981,0.565998c0.431,-0.389 1.406006,-2.327 1.312988,-2.606998c-0.036987,-0.111 -0.158997,0.104 -0.269989,0.477001m-44.019012,-0.273003c-0.018997,0.429001 0.643005,2.450001 0.84201,2.573002c0.127991,0.077999 0.127991,0.014 0.000992,-0.223c-0.097992,-0.183002 -0.324997,-0.848999 -0.50499,-1.478001c-0.179001,-0.630001 -0.332001,-1.021999 -0.338013,-0.872002m34.529999,0.393002c0.002014,0.367001 0.036011,0.497002 0.076019,0.290001c0.039978,-0.208 0.037994,-0.507999 -0.003021,-0.667c-0.041992,-0.159 -0.074982,0.009998 -0.072998,0.376999m-186.799995,0.431999c-0.146996,0.284 -0.237,0.545002 -0.200996,0.581001c0.036003,0.036999 0.191002,-0.195 0.343002,-0.514999c0.342995,-0.719002 0.223999,-0.774002 -0.142006,-0.066002m76.821007,-0.098999c0.382004,1.098 1,2.576 1.054001,2.521999c0.070999,-0.070999 -0.92601,-2.641998 -1.074997,-2.771999c-0.052002,-0.045002 -0.043015,0.067001 0.020996,0.25m4.474991,0.954998l-0.341995,0.879002l-0.201004,-0.550999c-0.110001,-0.302002 -0.22699,-0.523003 -0.259003,-0.491001c-0.094986,0.095001 0.309006,1.292 0.435013,1.292c0.133987,0 0.867996,-1.849998 0.772995,-1.945c-0.035004,-0.035 -0.216995,0.332001 -0.406006,0.815998m-87.596992,-0.084999c-0.056999,0.347 -0.095001,0.93 -0.084,1.297001c0.013,0.436001 0.069,0.238998 0.162994,-0.570999c0.151001,-1.306 0.098,-1.796001 -0.078995,-0.726002m52.726006,-0.562c0,0.204002 0.701996,1.611 0.849991,1.703003c0.078995,0.049 -0.052994,-0.309002 -0.292999,-0.794003c-0.466003,-0.939999 -0.556992,-1.089001 -0.556992,-0.909m102.51799,0.526001c-0.001999,0.182999 0.102997,0.557999 0.23201,0.833l0.235992,0.5l-0.100998,-0.5c-0.056,-0.275002 -0.160995,-0.650002 -0.233002,-0.833l-0.130997,-0.334l-0.003006,0.334m37.817993,0.264c0.001007,0.313 0.071014,0.678001 0.154999,0.810001c0.098999,0.155998 0.119019,-0.02 0.058014,-0.5c-0.118011,-0.920002 -0.21701,-1.064003 -0.213013,-0.310001m-256.290991,0.319c0,0.412998 0.033001,0.581001 0.072001,0.375c0.039999,-0.206001 0.039999,-0.543999 0,-0.75c-0.039,-0.206001 -0.072001,-0.037998 -0.072001,0.375m112.539007,-0.333c0.151993,0.504002 0.727997,1.666 0.826996,1.666c0.07399,0 -0.736008,-1.855999 -0.873001,-2c-0.044006,-0.045002 -0.022995,0.105 0.046005,0.334m241.270996,0.125c-0.196991,0.456001 -0.196014,0.456001 0.097992,0.098c0.162994,-0.197998 0.446991,-0.396 0.630005,-0.438999c0.265015,-0.063 0.244995,-0.083 -0.097992,-0.098c-0.322021,-0.014999 -0.481995,0.097 -0.630005,0.438999m-318.972004,0.035c-1.483997,0.903999 -1.373001,3.332001 0.186001,4.071999c1.965,0.932003 3.959,-1.133999 3.014999,-3.122997c-0.558998,-1.179001 -2.084,-1.631001 -3.201,-0.949001m165.950001,-0.268002c0,0.477001 1.703995,2.441002 2.117996,2.441002c0.068008,0 -0.166,-0.238998 -0.520996,-0.532001c-0.354004,-0.292 -0.858994,-0.868999 -1.121002,-1.281998c-0.261993,-0.413002 -0.475998,-0.695 -0.475998,-0.627003m154.673004,0.182003c0.324005,0.118999 0.848999,0.261997 1.165985,0.316998c0.318024,0.055 0.128021,-0.046997 -0.421997,-0.226997c-1.112,-0.363003 -1.667999,-0.431 -0.743988,-0.09m-179.997009,0.402c-0.233002,0.563 -1.220001,1.543999 -1.925995,1.914997c-0.274994,0.144001 -0.417999,0.265003 -0.317001,0.269001c0.589996,0.021 2.567001,-1.917999 2.567001,-2.519001c0,-0.27 -0.126999,-0.139 -0.324005,0.335003m21.669006,-0.393002c0,0.091999 0.106995,0.354 0.237991,0.583c0.131012,0.23 0.239014,0.341999 0.239014,0.25c0,-0.091 -0.108002,-0.354 -0.239014,-0.583c-0.130997,-0.229 -0.237991,-0.341999 -0.237991,-0.25m-202.983001,0.25c0.007999,0.432999 0.271,1.144001 0.275999,0.75c0.003,-0.182999 -0.058999,-0.483002 -0.138,-0.667c-0.088,-0.203999 -0.141,-0.236 -0.138,-0.083m172.988006,0.167c0.370987,0.813999 1.98999,2.215 2.253998,1.951c0.039993,-0.040001 -0.153,-0.167 -0.430008,-0.282001c-0.468002,-0.192997 -1.304993,-1.014 -1.802002,-1.765999c-0.181,-0.272999 -0.18399,-0.258999 -0.021988,0.097m11.649994,0.921001c-0.320999,0.669998 -0.498993,1.147999 -0.397003,1.062c0.208008,-0.173 1.126007,-2.145 1.037003,-2.228001c-0.031006,-0.028999 -0.319,0.495998 -0.639999,1.166m51.438004,-0.655003c-0.263,0.330002 -0.822006,0.818001 -1.240997,1.084c-0.419006,0.265003 -0.689011,0.483002 -0.600006,0.483002c0.373993,0 1.947006,-1.306999 2.255997,-1.875c0.24501,-0.450001 0.110001,-0.348999 -0.414993,0.307999m113.860001,-0.349998c0.449005,0.825001 1.845001,1.938999 2.701996,2.157001c0.229004,0.058998 0.026001,-0.088001 -0.450989,-0.326c-0.477997,-0.238003 -1.220001,-0.822002 -1.651001,-1.298c-0.430023,-0.477001 -0.700012,-0.716 -0.600006,-0.533001m-91.295013,0.431c0.001007,0.221001 0.076019,0.514999 0.166016,0.653c0.11499,0.175999 0.131989,0.077 0.057007,-0.334c-0.132019,-0.717999 -0.22702,-0.854 -0.223022,-0.319m-43.50499,0.570999c-0.216003,0.23 -0.772995,0.608002 -1.237,0.84c-0.464005,0.232002 -0.656998,0.372002 -0.428009,0.312c0.703003,-0.182999 2.594009,-1.57 2.142014,-1.57c-0.046005,0 -0.261002,0.188 -0.477005,0.417999m54.664993,-0.163998c-0.115997,0.139999 -0.743988,0.518997 -1.394989,0.842999c-0.652008,0.324001 -0.997009,0.539001 -0.768005,0.477001c0.860992,-0.232002 2.960999,-1.574001 2.463013,-1.574001c-0.049011,0 -0.184021,0.113998 -0.300018,0.254002m88.856995,0.140999c-0.203979,0.217999 -0.667999,0.528999 -1.030975,0.693001c-0.362,0.162998 -0.628021,0.327999 -0.590027,0.365997c0.126007,0.127003 1.346008,-0.583 1.755005,-1.021c0.222015,-0.238998 0.367004,-0.432999 0.321014,-0.432999c-0.046021,0 -0.251007,0.178001 -0.455017,0.395m3.811005,0.110001c-0.222992,0.538998 -1.609985,2.056999 -2.330994,2.551998c-0.404999,0.278 -0.404999,0.280003 -0.018005,0.095001c0.938019,-0.445999 2.942017,-2.784 2.644012,-3.082001c-0.045013,-0.044998 -0.177002,0.151001 -0.295013,0.435001m-239.424988,-0.025002c0.416992,0.471001 1.414993,1.087002 1.546997,0.955002c0.056992,-0.056 0.020996,-0.102001 -0.07901,-0.102001c-0.099991,0 -0.543991,-0.273998 -0.985992,-0.609001c-0.442993,-0.334 -0.660004,-0.444 -0.481995,-0.243999m80.644989,0.115002c0.143005,0.281998 0.387009,0.617001 0.542007,0.745998c0.153992,0.128002 0.080002,-0.063 -0.166,-0.424999c-0.580002,-0.855 -0.699005,-0.956001 -0.376007,-0.320999m25.367004,-0.118999c0.350006,0.413998 1.419998,1.025997 1.783997,1.019997c0.118011,-0.001999 -0.123001,-0.156998 -0.534988,-0.343998c-0.41301,-0.187 -0.937012,-0.504002 -1.166,-0.703999l-0.415009,-0.365002l0.332001,0.393002m33.612,0.023998c0.272003,0.445 1.231995,1.171001 1.536011,1.16c0.100983,-0.003998 -0.041016,-0.121998 -0.31601,-0.263c-0.274994,-0.141998 -0.718994,-0.494999 -0.987,-0.785c-0.377014,-0.41 -0.428986,-0.434998 -0.233002,-0.112m8.899994,0.375c-0.446991,0.707001 -0.446991,0.708 -0.02298,0.208c0.233978,-0.275002 0.425995,-0.575001 0.427979,-0.667c0.002014,-0.091 0.076019,-0.054001 0.165009,0.084c0.138,0.213001 0.161987,0.207001 0.164001,-0.042c0.003998,-0.483002 -0.260986,-0.332001 -0.734009,0.417m-141.395996,-0.137001c-0.774002,0.547001 -0.882996,0.704002 -0.229996,0.329002c0.304993,-0.174 0.632996,-0.410999 0.729004,-0.526001c0.246994,-0.293999 0.130997,-0.249001 -0.499008,0.196999m88.645004,0.158001c-0.347,0.561001 -1.388,1.588001 -2.179001,2.149002l-0.417007,0.295998l0.503006,-0.237999c0.537003,-0.254002 2.065994,-1.786999 2.393997,-2.399002c0.309006,-0.577999 0.087006,-0.435997 -0.300995,0.192001m18.610001,-0.02l-0.294006,0.540001l0.335999,-0.393002l0.336014,-0.393997l-0.004013,1.893997c-0.001999,1.041 -0.105988,2.381001 -0.231995,2.977001c-0.259003,1.224998 -0.220001,1.518002 0.074005,0.556999c0.235992,-0.771999 0.429993,-5.723999 0.223999,-5.723c-0.080002,0.000999 -0.278,0.243999 -0.440002,0.542m109.398987,-0.214001c0.292999,0.614002 1.818024,2.169003 2.393005,2.441002l0.502014,0.237999l-0.416016,-0.288998c-0.53598,-0.371002 -2.011993,-1.846001 -2.386993,-2.386002l-0.290009,-0.416l0.197998,0.411999m-340.800989,1.004002c0,0.596001 0.030001,0.84 0.067001,0.542c0.036999,-0.298 0.036999,-0.785 0,-1.083c-0.037001,-0.298 -0.067001,-0.055 -0.067001,0.541m127.734995,-0.097c-0.337997,0.403999 -0.990997,0.98 -1.451996,1.278c-0.914993,0.592999 -1.100998,0.799 -0.377991,0.421001c0.628998,-0.330002 1.790985,-1.349003 2.213989,-1.943001c0.514008,-0.722 0.320999,-0.598999 -0.384003,0.243999m-133.401994,0.431c0,0.595001 0.03,0.839001 0.066999,0.541c0.037001,-0.298 0.037001,-0.785 0,-1.083c-0.037,-0.298 -0.066999,-0.054001 -0.066999,0.542m119.947007,0.060001c0.559998,0.618 1.687988,1.445 1.954987,1.433998c0.070007,-0.001999 -0.160995,-0.182999 -0.514999,-0.399998c-0.352997,-0.217003 -0.952988,-0.684002 -1.332993,-1.036003l-0.690002,-0.641998l0.583008,0.644001m116.238998,-0.038002c-0.269012,0.287003 -0.823013,0.737 -1.230011,1c-0.40799,0.263 -0.662994,0.478001 -0.567001,0.478001c0.243011,0 1.376999,-0.854 1.964005,-1.479c0.268997,-0.286999 0.451996,-0.521 0.406006,-0.521c-0.046005,0 -0.304001,0.235001 -0.572998,0.521999m-78.376999,1.007c-0.286011,0.753002 -0.493011,1.396 -0.459,1.429001c0.03299,0.033001 0.294998,-0.554001 0.581985,-1.306c0.287003,-0.751999 0.494003,-1.395 0.460007,-1.43c-0.035004,-0.034 -0.296997,0.554001 -0.582993,1.306999m111.970993,-0.501999c-0.503998,0.466 -0.766998,0.768002 -0.583008,0.673c0.313995,-0.164001 1.737,-1.542 1.575012,-1.526001c-0.041016,0.004002 -0.488007,0.388 -0.992004,0.853001m8.32901,-0.750999c0.093994,0.047001 0.17099,0.521999 0.17099,1.056999c0,0.535 -0.076996,1.009998 -0.17099,1.056999c-0.094025,0.047001 -0.075012,0.065002 0.041992,0.042c0.144989,-0.029999 0.212006,-0.376999 0.212006,-1.098999c0,-0.722 -0.067017,-1.069 -0.212006,-1.098999c-0.117004,-0.023003 -0.136017,-0.005001 -0.041992,0.042m76.712982,0.005001c0.160004,0.042 0.423004,0.042 0.583008,0c0.160004,-0.042004 0.028992,-0.076 -0.291992,-0.076c-0.321014,0 -0.451996,0.033997 -0.291016,0.076m-172.041992,0.801998c-0.404999,0.412998 -0.699005,0.75 -0.653,0.75c0.046005,0 0.414993,-0.337002 0.820007,-0.75c0.404999,-0.412998 0.697998,-0.75 0.651993,-0.75c-0.044998,0 -0.414001,0.337002 -0.819,0.75m21.867996,-0.32c0.247009,0.269001 0.697006,0.631001 1,0.803001c0.646011,0.369999 0.514999,0.232998 -0.617996,-0.646c-0.682007,-0.530003 -0.751999,-0.558002 -0.382004,-0.157001m-31.867996,0.298c0.320999,0.348 0.733002,0.711998 0.917007,0.807999c0.182999,0.097 0.29599,0.140999 0.25,0.098c-1.06601,-0.990997 -1.697006,-1.480999 -1.167007,-0.905998m86.687988,-0.100002c0.208008,0.299 0.570007,0.66 0.804016,0.801003l0.424988,0.257l-0.358978,-0.315002c-0.198029,-0.172997 -0.559021,-0.533997 -0.804016,-0.800999l-0.445007,-0.487l0.378998,0.544998m-33.712982,-0.084999c0.28299,0.353001 1.687988,1.291 1.929001,1.288002c0.097992,-0.002003 -0.097,-0.171001 -0.434006,-0.375c-0.337997,-0.205002 -0.863007,-0.557003 -1.167007,-0.783001c-0.304001,-0.224998 -0.451996,-0.284 -0.327988,-0.130001m-72.042999,0.207001c0.056,0.182999 0.176987,0.540001 0.26799,0.792c0.113998,0.313 0.108002,0.625 -0.01799,0.985001c-0.101013,0.290001 -0.151001,0.560001 -0.111008,0.599998c0.337997,0.337002 0.431,-1.310997 0.112,-1.974998c-0.194992,-0.403999 -0.307999,-0.584999 -0.250992,-0.402m118.572998,-0.127998c-0.002991,0.113998 0.200989,0.417 0.453003,0.674999c0.251984,0.257999 0.337982,0.314999 0.190002,0.127998c-0.14801,-0.188 -0.35202,-0.492001 -0.45401,-0.674999c-0.101013,-0.182999 -0.186005,-0.241001 -0.188995,-0.127998m-203.618004,1.044998c0,0.595001 0.029999,0.839001 0.067001,0.541c0.036995,-0.298 0.036995,-0.785 0,-1.083c-0.037003,-0.298 -0.067001,-0.054001 -0.067001,0.542m-63.164001,0.833c0,0.688 0.029001,0.969002 0.065001,0.625c0.035999,-0.344002 0.035999,-0.905998 0,-1.25c-0.035999,-0.344002 -0.065001,-0.062 -0.065001,0.625m68.824997,-0.25c0.001007,0.458 0.033005,0.625999 0.072006,0.373001c0.037994,-0.254002 0.036995,-0.629002 -0.003006,-0.834c-0.038994,-0.205002 -0.070999,0.002998 -0.069,0.460999m-74.494996,1.083c0,0.596001 0.030999,0.84 0.068,0.542c0.037,-0.298 0.037,-0.785 0,-1.083c-0.037001,-0.298 -0.068,-0.055 -0.068,0.541m124.706002,-0.811001c0.270004,0.058002 1.127991,0.105 1.908005,0.105c0.778992,0 1.636993,-0.046997 1.906998,-0.105c0.269989,-0.057999 -0.589005,-0.105 -1.906998,-0.105c-1.319,0 -2.177002,0.047001 -1.908005,0.105m51.834,0c0.270004,0.058002 0.977997,0.105 1.574005,0.105c0.594986,0 1.303986,-0.046997 1.57399,-0.105c0.268997,-0.057999 -0.438995,-0.105 -1.57399,-0.105c-1.136002,0 -1.844009,0.047001 -1.574005,0.105m32.841003,0.010002c0.356995,0.063999 1.173996,0.114998 1.815994,0.114998c0.641998,0 1.459,-0.050999 1.815994,-0.114998c0.376007,-0.067001 -0.388992,-0.115002 -1.815994,-0.115002c-1.427002,0 -2.192001,0.048 -1.815994,0.115002m31.613998,0.550999c0.000992,0.459 0.03299,0.625999 0.071991,0.373001c0.03801,-0.253002 0.037003,-0.628002 -0.002991,-0.833c-0.039001,-0.205002 -0.070999,0.001999 -0.069,0.459999m21.984985,-0.557999c0.487,0.137997 2.727997,0.135998 3.375,-0.003002c0.27002,-0.057999 -0.464996,-0.105 -1.634003,-0.105c-1.167999,0 -1.951996,0.048 -1.740997,0.108002m12.511017,-0.072002c0.252991,0.038002 0.627991,0.037003 0.833008,-0.001999c0.204987,-0.040001 -0.002014,-0.070999 -0.460022,-0.07c-0.458984,0.000999 -0.626007,0.034 -0.372986,0.071999m77.057007,0.079002c0.791992,0.140999 3.299988,0.133999 3.972992,-0.010002c0.269989,-0.057999 -0.660004,-0.105 -2.06601,-0.105c-1.460999,0 -2.277985,0.049 -1.906982,0.115002m-283.546013,1.550999c0,0.641998 0.030998,0.883999 0.067001,0.537998c0.035995,-0.345997 0.034996,-0.870998 -0.001999,-1.165997c-0.037003,-0.296001 -0.066002,-0.013 -0.065002,0.627998m5.668999,0.667c0,0.733002 0.029999,1.013 0.065002,0.620998c0.034996,-0.391998 0.034996,-0.991997 -0.000999,-1.334c-0.036003,-0.341 -0.065002,-0.02 -0.064003,0.713001m-69.171,0.25c0,0.596001 0.031,0.84 0.068001,0.542c0.037001,-0.298 0.037001,-0.785999 0,-1.084c-0.037001,-0.298 -0.068001,-0.054001 -0.068001,0.542m150.732004,0.256001c-0.339005,0.683998 -0.580002,1.243999 -0.536011,1.243999c0.112,0 1.286011,-2.354 1.212006,-2.428001c-0.033005,-0.032997 -0.337006,0.5 -0.675995,1.184002m84.485992,-0.735001c-0.138992,0.695 -0.003998,0.828999 0.146011,0.146c0.062988,-0.287998 0.079987,-0.558998 0.037994,-0.600998c-0.042999,-0.043003 -0.126007,0.161999 -0.184006,0.454998m-240.880996,1.396c0.000999,0.733002 0.03,1.012001 0.066,0.619999c0.035,-0.391998 0.033999,-0.992001 -0.002,-1.333c-0.035001,-0.341 -0.064,-0.021 -0.064,0.713001m152.718001,-0.405998c-0.347,0.463997 -0.977997,1.063999 -1.402008,1.333c-0.423996,0.268997 -0.692993,0.488998 -0.597,0.488998c0.447006,0 1.88501,-1.285 2.471008,-2.208c0.470993,-0.741001 0.209,-0.527 -0.472,0.386002m73.194,-0.616001c-1.352997,0.229 -1.384003,0.257 -1.061996,0.960999c0.225998,0.493999 0.209991,0.16 -0.022003,-0.458c-0.143005,-0.382 3.125,-0.667 3.412994,-0.298c0.229996,0.294003 0.240005,0.295002 0.141006,0.011002c-0.057999,-0.167999 -0.104996,-0.335999 -0.104996,-0.375c0,-0.118999 -1.199005,-0.039001 -2.365005,0.159m3.115005,1.417999c0.507996,0.559002 1.380997,1.111004 1.528,0.965c0.043991,-0.044998 -0.084015,-0.133003 -0.284012,-0.196999c-0.200989,-0.063004 -0.675003,-0.386002 -1.054001,-0.717003c-0.685989,-0.598 -0.686996,-0.598 -0.189987,-0.050999m-159.699005,0.604c0.000999,0.550003 0.031998,0.754997 0.069,0.455002c0.037994,-0.300003 0.036995,-0.75 -0.000999,-1c-0.038002,-0.25 -0.069,-0.005001 -0.068001,0.544998m166.630005,-0.352001c-0.106003,0.128002 -0.417007,0.326 -0.692001,0.439999c-0.275009,0.112999 -0.46701,0.239006 -0.427002,0.280006c0.106995,0.106995 1.009995,-0.387005 1.261993,-0.691002c0.119003,-0.143002 0.179001,-0.261002 0.132996,-0.261002c-0.04599,0 -0.169998,0.105 -0.275986,0.231998m-160.961006,0.935001c0,0.596001 0.029999,0.839996 0.067001,0.542c0.036995,-0.297997 0.036995,-0.786003 0,-1.084c-0.037003,-0.298 -0.067001,-0.054001 -0.067001,0.542m-69.489,1.333c0,1.145996 0.025999,1.614998 0.059,1.042c0.032,-0.572998 0.032,-1.510002 0,-2.083c-0.033001,-0.572998 -0.059,-0.103996 -0.059,1.041m233.601999,-1.014999c-0.503998,0.523003 -1.104004,1.082001 -1.332993,1.240997c-0.366013,0.252998 -0.349014,0.251999 0.14299,-0.009995c0.604996,-0.324005 1.777008,-1.422005 2.039001,-1.912003c0.227997,-0.426003 0.180008,-0.388 -0.848999,0.681m-6.875,-0.196999c0.298004,0.036995 0.785004,0.036995 1.082993,0c0.298004,-0.037003 0.054001,-0.068001 -0.540985,-0.068001c-0.596008,0 -0.840012,0.030998 -0.542007,0.068001m-232.395,1.961998c0.001,1.099998 0.028001,1.528999 0.06,0.952003c0.033,-0.576004 0.033,-1.476006 0,-2c-0.033,-0.523003 -0.06,-0.052002 -0.06,1.047997m154.428005,-1.125l-0.575012,0.625l0.625,-0.573997c0.582001,-0.535004 0.702011,-0.676003 0.575012,-0.676003c-0.028,0 -0.309006,0.281998 -0.625,0.625m71.826996,-0.402c0.130005,0.161003 0.466995,0.455002 0.75,0.653999c0.384995,0.268997 0.455994,0.287003 0.279999,0.067001c-0.130005,-0.161003 -0.466995,-0.455002 -0.75,-0.653c-0.384995,-0.270004 -0.455994,-0.287003 -0.279999,-0.068001m-74.376007,1.889999c-0.061996,0.063004 -0.842987,0.167999 -1.735992,0.236l-1.623001,0.122002l1.582993,-0.035004c0.871002,-0.018997 1.734009,-0.121994 1.917007,-0.229996c0.182999,-0.108002 0.251999,-0.197998 0.153,-0.201004c-0.100006,-0.001999 -0.231995,0.046005 -0.294006,0.108002m77.973999,0.050003c0.319,0.140999 1.381012,0.236 1.236008,0.111c-0.037994,-0.034004 -0.406998,-0.105003 -0.819,-0.160004c-0.501007,-0.066002 -0.639008,-0.049995 -0.417007,0.049004m5.536011,-0.059006c-0.057007,0.056 -1.025009,0.163002 -2.153,0.237007l-2.048996,0.132996l2,-0.052002c1.603989,-0.041 3.643997,-0.367996 2.568985,-0.410995c-0.144989,-0.006004 -0.309998,0.035995 -0.366989,0.092995m-165.910004,0.646004c0.001999,0.366997 0.036003,0.497002 0.076004,0.290001c0.038994,-0.207001 0.037994,-0.507004 -0.004005,-0.667c-0.042,-0.159004 -0.073997,0.011002 -0.071999,0.376999m5.669998,1.084c0,0.412003 0.032005,0.581001 0.071999,0.375c0.040001,-0.207001 0.040001,-0.543999 0,-0.75c-0.039993,-0.207001 -0.071999,-0.038002 -0.071999,0.375m-69.342999,-0.25c0.002001,0.182999 0.061001,0.557999 0.131001,0.833c0.114,0.448997 0.127001,0.458 0.130001,0.083c0.001999,-0.229004 -0.057001,-0.604004 -0.130001,-0.833c-0.105,-0.325996 -0.132999,-0.345001 -0.131001,-0.083m-5.660999,1c0.002,0.365997 0.036,0.497002 0.076,0.289001c0.04,-0.207001 0.039,-0.507004 -0.003,-0.666c-0.042,-0.160004 -0.074,0.010002 -0.073,0.376999m67.197998,3.291l-0.489998,0.542l0.542,-0.489998c0.504997,-0.456001 0.617996,-0.593002 0.489998,-0.593002c-0.028999,0 -0.272995,0.243004 -0.542,0.541m-59.624998,-0.023003c0.201,0.219002 0.614,0.541 0.917,0.716003c0.694,0.399002 0.601,0.297997 -0.448,-0.488998c-0.490999,-0.368004 -0.684,-0.462006 -0.469,-0.227005m65.885,1.482002c-0.186996,0.365997 -0.302002,0.666 -0.255997,0.666c0.044998,0 0.236,-0.300003 0.422997,-0.666c0.186996,-0.366997 0.303001,-0.667 0.257004,-0.667c-0.046005,0 -0.237007,0.300003 -0.424004,0.667m-11.458,0.614998c0.160004,0.041 0.422997,0.041 0.583,0c0.161003,-0.042 0.028999,-0.076996 -0.291,-0.076996c-0.320999,0 -0.452003,0.034996 -0.292,0.076996m9.958,1.468002c-0.404999,0.412003 -0.697998,0.75 -0.652,0.75c0.044998,0 0.414001,-0.337997 0.819,-0.75c0.404999,-0.413002 0.698997,-0.75 0.653,-0.75c-0.045998,0 -0.415001,0.336998 -0.82,0.75m-11.272003,1.667c0,0.916 0.028,1.269997 0.062004,0.786003c0.033997,-0.485001 0.032997,-1.235001 -0.000999,-1.667c-0.034004,-0.432007 -0.062004,-0.036003 -0.061005,0.880997m9.806,-0.512001c-0.773994,0.547005 -0.882996,0.704002 -0.228996,0.329002c0.305,-0.174004 0.633003,-0.411003 0.728996,-0.526001c0.246002,-0.293999 0.130005,-0.249001 -0.5,0.196999m-1.533997,0.845001c-0.229004,0.130997 -0.341003,0.237999 -0.25,0.237999c0.092003,0 0.355003,-0.107002 0.584,-0.237999c0.229004,-0.130997 0.341003,-0.237999 0.25,-0.237999c-0.092003,0 -0.353996,0.107002 -0.584,0.237999m-60.75,0.917c0.184,0.078003 0.483999,0.140999 0.667,0.138c0.268,-0.003998 0.252001,-0.030998 -0.083,-0.138c-0.57,-0.182999 -1.007999,-0.182999 -0.584,0m5.935999,0.196999c-0.014999,0.354004 -0.115,0.461998 -0.476999,0.516998l-0.459,0.069l0.464001,0.025002c0.493,0.027 0.700998,-0.25 0.57,-0.756996c-0.053001,-0.202003 -0.085001,-0.153999 -0.098001,0.145996m-1.976999,0.417999c0.16,0.041 0.423,0.041 0.583,0c0.16,-0.042 0.028999,-0.076996 -0.292,-0.076996c-0.321001,0 -0.452,0.034996 -0.291,0.076996m50.084999,0.003006c0.207001,0.038994 0.507004,0.037994 0.667,-0.004005c0.159004,-0.042 -0.011002,-0.073997 -0.376999,-0.071999c-0.366997,0.001999 -0.497002,0.036003 -0.290001,0.076004m-1.251999,0.162994c0.160004,0.042 0.422997,0.042 0.583,0c0.161003,-0.042 0.028999,-0.075996 -0.291,-0.075996c-0.320999,0 -0.452003,0.033997 -0.292,0.075996" id="path3"/>
  </g>
 </g>
</svg>