<svg id="svg" version="1.1" width="400" height="91.40767824497257" viewBox="0 0 400 91.40767824497257" xmlns="http://www.w3.org/2000/svg" xmlns:xlink="http://www.w3.org/1999/xlink" ><g id="svgg"><path id="path0" d="M152.833 44.994 L 152.833 59.167 154.501 59.167 L 156.169 59.167 156.126 45.042 L 156.083 30.917 154.458 30.869 L 152.833 30.821 152.833 44.994 M103.500 45.750 L 103.500 59.167 105.248 59.167 L 106.996 59.167 107.040 52.958 L 107.083 46.750 114.333 46.750 L 121.583 46.750 121.627 52.958 L 121.671 59.167 123.419 59.167 L 125.167 59.167 125.167 45.750 L 125.167 32.333 123.417 32.333 L 121.667 32.333 121.667 38.000 L 121.667 43.667 114.333 43.667 L 107.000 43.667 107.000 38.000 L 107.000 32.333 105.250 32.333 L 103.500 32.333 103.500 45.750 M137.013 38.421 C 132.386 39.258,130.122 42.679,130.122 48.833 C 130.122 55.842,133.217 59.500,139.145 59.500 C 145.250 59.500,148.340 55.918,148.330 48.854 C 148.318 40.798,144.307 37.100,137.013 38.421 M188.456 38.340 C 187.008 38.700,185.475 39.823,184.806 41.013 C 184.317 41.882,184.167 41.703,184.167 40.254 C 184.167 38.442,184.226 38.500,182.373 38.500 L 180.781 38.500 180.890 41.527 C 180.951 43.191,181.000 49.641,181.000 55.860 L 181.000 67.167 182.673 67.167 L 184.346 67.167 184.327 61.652 C 184.307 55.910,184.322 55.669,184.662 56.488 C 186.016 59.758,192.546 60.534,195.467 57.771 C 199.212 54.229,199.267 43.229,195.556 39.837 C 194.023 38.436,190.798 37.756,188.456 38.340 M209.470 38.399 C 208.181 38.746,207.587 39.334,206.706 41.135 L 205.917 42.750 205.870 40.708 L 205.823 38.667 204.245 38.667 L 202.667 38.667 202.667 48.917 L 202.667 59.167 204.333 59.167 L 206.000 59.167 206.000 53.429 C 206.000 43.337,206.888 41.157,210.914 41.360 L 212.167 41.423 212.167 39.899 L 212.167 38.375 211.646 38.271 C 210.915 38.125,210.371 38.157,209.470 38.399 M221.566 38.412 C 216.856 39.267,214.750 42.489,214.755 48.833 C 214.761 56.174,217.519 59.418,223.750 59.411 C 229.398 59.404,232.225 56.694,232.822 50.715 C 233.712 41.790,229.331 37.002,221.566 38.412 M242.042 38.419 C 238.030 39.291,236.417 42.302,236.417 48.917 C 236.417 53.668,237.002 55.865,238.708 57.521 C 241.698 60.423,247.855 59.624,249.760 56.087 C 250.296 55.091,250.377 55.390,250.292 58.042 C 250.136 62.908,248.793 64.593,245.083 64.577 C 242.802 64.567,241.581 63.965,240.820 62.474 C 240.611 62.064,240.377 61.833,240.170 61.833 C 239.809 61.833,237.277 62.189,237.202 62.250 C 237.176 62.272,237.314 62.714,237.508 63.232 C 239.398 68.285,249.577 68.610,252.449 63.710 C 253.565 61.806,253.557 61.893,253.626 49.708 L 253.688 38.667 252.112 38.667 L 250.536 38.667 250.393 40.375 L 250.250 42.083 249.801 41.319 C 248.358 38.864,245.283 37.715,242.042 38.419 M265.803 38.399 C 264.403 38.776,262.512 41.129,262.497 42.512 C 262.495 42.710,262.468 42.708,262.333 42.500 C 262.244 42.362,262.171 41.444,262.169 40.458 L 262.167 38.667 260.583 38.667 L 259.000 38.667 259.000 48.917 L 259.000 59.167 260.649 59.167 L 262.298 59.167 262.379 52.708 C 262.466 45.752,262.566 44.848,263.409 43.419 C 264.329 41.859,265.395 41.294,267.311 41.350 L 268.583 41.388 268.632 39.942 C 268.693 38.102,268.102 37.780,265.803 38.399 M278.083 38.330 C 275.261 38.734,273.374 39.973,272.402 42.060 C 271.837 43.274,271.860 43.833,272.475 43.833 C 272.736 43.833,273.524 43.882,274.225 43.941 C 275.430 44.043,275.500 44.030,275.500 43.711 C 275.500 41.950,277.375 40.752,280.083 40.781 C 283.081 40.814,284.314 42.050,284.465 45.171 L 284.543 46.794 280.646 46.880 C 275.678 46.989,274.434 47.299,272.756 48.846 C 271.132 50.343,270.522 53.801,271.465 56.174 C 273.256 60.684,280.936 60.681,283.832 56.169 C 284.502 55.124,284.596 55.127,284.737 56.191 C 285.049 58.542,286.354 59.469,289.083 59.281 C 290.994 59.149,291.000 59.145,291.000 57.982 L 291.000 57.000 290.072 57.000 C 287.972 57.000,287.954 56.935,287.827 49.250 C 287.724 43.044,287.687 42.673,287.036 41.412 C 285.809 39.033,282.095 37.755,278.083 38.330 M301.568 38.338 C 299.918 38.666,298.624 39.562,297.744 40.989 C 296.911 42.337,296.833 42.281,296.833 40.333 L 296.833 38.667 295.225 38.667 L 293.617 38.667 293.725 40.192 C 293.785 41.031,293.833 45.644,293.833 50.442 L 293.833 59.167 295.404 59.167 L 296.974 59.167 297.038 52.292 C 297.109 44.605,297.186 44.041,298.383 42.472 C 299.805 40.607,303.322 40.220,304.704 41.776 C 305.533 42.710,305.568 43.071,305.630 51.375 L 305.687 59.167 307.334 59.167 L 308.980 59.167 309.039 52.125 C 309.103 44.469,309.131 44.225,310.095 42.739 C 311.387 40.747,314.943 40.128,316.394 41.643 C 317.416 42.710,317.412 42.676,317.466 51.292 L 317.515 59.167 319.174 59.167 L 320.833 59.167 320.833 51.447 C 320.833 43.257,320.766 42.342,320.057 40.917 C 318.153 37.092,311.548 37.314,309.222 41.282 C 308.709 42.159,308.625 42.168,308.349 41.375 C 307.506 38.951,304.735 37.711,301.568 38.338 M334.045 38.332 C 332.308 38.701,331.136 39.520,330.141 41.060 C 329.408 42.194,329.357 42.140,329.295 40.167 L 329.250 38.750 327.708 38.702 L 326.167 38.654 326.167 48.910 L 326.167 59.167 327.833 59.167 L 329.500 59.167 329.501 52.875 C 329.502 49.279,329.578 46.119,329.678 45.500 C 330.189 42.341,331.946 40.710,334.669 40.868 C 337.925 41.056,338.155 41.835,338.162 52.708 L 338.167 59.167 339.825 59.167 L 341.484 59.167 341.542 51.958 C 341.605 44.168,341.610 44.117,342.546 42.725 C 343.717 40.984,346.361 40.265,348.157 41.198 C 349.912 42.111,350.000 42.614,350.000 51.785 L 350.000 59.167 351.678 59.167 L 353.356 59.167 353.290 51.042 C 353.218 42.249,353.196 42.016,352.268 40.432 C 350.298 37.070,343.584 37.680,341.578 41.404 C 341.162 42.177,341.130 42.166,340.681 41.084 C 339.789 38.931,336.886 37.727,334.045 38.332 M364.890 38.338 C 360.088 39.204,357.798 42.527,357.773 48.667 C 357.744 55.718,360.421 59.122,366.250 59.446 C 370.396 59.677,373.511 58.275,374.888 55.558 L 375.309 54.726 374.075 54.363 C 372.482 53.895,372.423 53.900,372.025 54.542 C 370.956 56.265,369.608 56.912,367.083 56.915 C 363.450 56.918,361.542 54.927,361.218 50.792 L 361.117 49.500 368.501 49.500 L 375.884 49.500 375.781 47.708 C 375.383 40.843,371.158 37.208,364.890 38.338 M387.159 38.394 C 385.727 38.780,384.874 39.745,384.082 41.875 C 383.627 43.100,383.500 42.836,383.500 40.667 L 383.500 38.667 381.917 38.667 L 380.333 38.667 380.333 48.917 L 380.333 59.167 381.984 59.167 L 383.634 59.167 383.709 52.708 C 383.789 45.771,383.843 45.283,384.733 43.539 C 385.567 41.904,386.662 41.292,388.644 41.350 L 389.917 41.388 389.965 39.942 C 390.026 38.107,389.433 37.780,387.159 38.394 M159.000 38.633 C 159.000 38.707,159.683 40.488,160.518 42.592 C 161.353 44.695,162.970 48.779,164.111 51.667 C 165.252 54.554,166.369 57.339,166.593 57.854 C 167.120 59.067,167.125 59.017,166.258 60.799 C 164.902 63.584,163.604 64.564,161.311 64.534 L 160.000 64.517 160.000 65.749 L 160.000 66.980 160.764 67.094 C 164.336 67.630,166.772 66.186,168.719 62.380 C 169.579 60.697,170.070 59.508,171.698 55.167 C 172.059 54.204,172.608 52.779,172.919 52.000 C 173.230 51.221,174.171 48.783,175.011 46.583 C 175.850 44.383,176.867 41.724,177.269 40.674 C 177.671 39.623,178.000 38.705,178.000 38.632 C 178.000 38.309,174.685 38.487,174.507 38.819 C 174.413 38.995,173.315 42.126,172.066 45.778 C 169.262 53.972,168.832 55.167,168.685 55.167 C 168.621 55.167,168.359 54.510,168.102 53.708 C 167.512 51.860,166.111 48.077,162.890 39.625 L 162.461 38.500 160.731 38.500 C 159.779 38.500,159.000 38.560,159.000 38.633 M141.937 41.261 C 145.959 43.270,145.990 54.229,141.979 56.412 C 139.339 57.849,135.731 56.833,134.550 54.320 C 133.364 51.795,133.354 45.891,134.532 43.386 C 135.676 40.953,139.261 39.924,141.937 41.261 M191.313 40.926 C 193.730 41.644,194.673 43.863,194.661 48.806 C 194.647 54.610,193.454 56.769,190.153 56.965 C 186.112 57.204,184.344 54.801,184.336 49.056 C 184.328 42.599,186.890 39.613,191.313 40.926 M226.202 41.066 C 229.399 42.442,230.621 49.882,228.402 54.454 C 226.957 57.431,222.224 57.990,219.891 55.460 C 217.767 53.155,217.536 45.425,219.508 42.655 C 220.755 40.904,224.023 40.129,226.202 41.066 M246.187 40.923 C 251.673 42.855,251.757 54.782,246.299 56.595 C 242.070 57.999,239.803 55.262,239.809 48.759 C 239.815 42.503,242.234 39.531,246.187 40.923 M368.595 40.918 C 370.693 41.558,372.333 44.023,372.333 46.535 L 372.333 47.000 366.731 47.000 L 361.129 47.000 361.240 46.208 C 361.827 42.023,364.922 39.797,368.595 40.918 M284.472 50.725 C 284.189 57.193,274.500 59.890,274.500 53.501 C 274.500 50.166,276.050 49.219,281.562 49.185 L 284.540 49.167 284.472 50.725 " stroke="none" fill="#000000" fill-rule="evenodd"></path><path id="path1" d="M0.000 45.667 L 0.000 91.333 200.000 91.333 L 400.000 91.333 400.000 45.667 L 400.000 0.000 200.000 0.000 L 0.000 0.000 0.000 45.667 M26.705 14.042 C 26.805 16.822,26.803 16.833,26.058 16.833 C 23.915 16.833,21.041 17.952,19.882 19.238 C 17.956 21.376,17.714 23.522,18.336 32.917 C 18.847 40.625,16.798 44.446,11.544 45.576 C 10.814 45.733,10.718 45.959,11.282 46.191 C 17.782 48.864,19.049 51.716,18.185 61.733 C 17.441 70.365,18.871 73.410,24.185 74.506 C 25.046 74.684,25.956 74.830,26.208 74.831 C 26.460 74.832,26.674 74.927,26.683 75.042 C 26.749 75.878,26.616 79.775,26.519 79.877 C 26.408 79.992,22.503 79.614,21.500 79.391 C 14.272 77.785,11.664 73.246,12.321 63.417 C 12.808 56.127,12.750 54.963,11.802 53.106 C 10.984 51.502,8.610 49.793,5.971 48.909 C 4.276 48.342,4.315 48.415,4.370 45.900 C 4.423 43.467,4.322 43.626,6.167 43.081 C 9.461 42.107,11.563 40.243,12.358 37.592 C 12.745 36.302,12.740 35.144,12.321 28.333 C 11.617 16.922,14.742 12.843,25.000 11.780 C 25.321 11.747,25.817 11.708,26.102 11.693 L 26.620 11.667 26.705 14.042 M77.167 12.118 C 86.151 13.591,88.200 17.744,87.185 32.431 C 86.732 38.994,88.166 41.320,93.793 43.153 L 95.250 43.627 95.298 45.689 C 95.360 48.327,95.340 48.396,94.462 48.656 C 88.671 50.370,86.647 53.293,87.151 59.215 C 88.427 74.214,86.002 78.500,75.526 79.758 C 72.843 80.080,73.095 80.325,73.030 77.320 L 72.976 74.833 73.383 74.833 C 75.653 74.833,78.676 73.691,79.807 72.407 C 81.617 70.351,81.983 68.202,81.573 62.050 C 80.872 51.546,81.896 48.887,87.531 46.581 C 89.132 45.925,89.134 45.889,87.598 45.371 C 81.851 43.436,80.860 40.766,81.602 29.207 C 82.170 20.339,80.422 17.478,74.073 16.885 L 73.000 16.785 73.000 14.337 C 73.000 12.991,73.056 11.833,73.124 11.765 C 73.275 11.614,75.030 11.767,77.167 12.118 M156.167 45.000 L 156.167 59.167 154.417 59.167 L 152.667 59.167 152.667 45.000 L 152.667 30.833 154.417 30.833 L 156.167 30.833 156.167 45.000 M107.167 38.000 L 107.167 43.667 114.333 43.667 L 121.500 43.667 121.500 38.000 L 121.500 32.333 123.417 32.333 L 125.333 32.333 125.333 45.750 L 125.333 59.167 123.417 59.167 L 121.500 59.167 121.500 53.000 L 121.500 46.833 114.333 46.833 L 107.167 46.833 107.167 53.000 L 107.167 59.167 105.250 59.167 L 103.333 59.167 103.333 45.750 L 103.333 32.333 105.250 32.333 L 107.167 32.333 107.167 38.000 M28.183 33.018 L 28.667 33.535 28.667 38.518 L 28.667 43.500 36.160 43.500 L 43.653 43.500 43.701 38.486 L 43.750 33.472 44.294 32.986 C 45.146 32.225,46.329 32.383,46.889 33.332 C 47.280 33.993,47.317 56.558,46.929 57.309 C 46.437 58.261,45.148 58.443,44.294 57.681 L 43.750 57.194 43.667 51.972 L 43.583 46.750 36.167 46.750 L 28.750 46.750 28.706 51.943 L 28.662 57.136 28.181 57.652 C 27.516 58.363,26.571 58.374,25.794 57.680 L 25.250 57.194 25.250 45.333 L 25.250 33.473 25.794 32.986 C 26.572 32.291,27.516 32.304,28.183 33.018 M72.533 32.955 C 79.952 35.725,79.658 46.798,72.108 48.950 C 71.557 49.107,70.101 49.228,68.042 49.286 L 64.833 49.376 64.833 53.030 C 64.833 57.423,64.585 58.167,63.121 58.167 C 61.279 58.167,61.333 58.559,61.333 45.172 L 61.333 33.526 61.858 33.001 L 62.382 32.477 66.983 32.539 C 71.178 32.595,71.667 32.632,72.533 32.955 M64.833 40.917 L 64.833 46.000 67.510 46.000 C 72.791 46.000,74.697 44.503,74.468 40.536 C 74.266 37.059,72.510 35.833,67.729 35.833 L 64.833 35.833 64.833 40.917 M192.332 38.178 C 196.632 38.876,198.571 42.637,198.282 49.723 C 198.123 53.626,197.477 55.743,195.918 57.468 C 192.972 60.728,187.119 60.312,184.634 56.665 C 184.365 56.271,184.350 56.526,184.342 61.792 L 184.333 67.333 182.583 67.333 L 180.833 67.333 180.806 53.167 C 180.790 45.375,180.772 38.869,180.764 38.708 C 180.752 38.452,180.953 38.411,182.435 38.369 L 184.120 38.322 184.227 39.101 C 184.285 39.529,184.333 40.259,184.333 40.723 L 184.333 41.565 184.804 40.824 C 186.239 38.566,188.918 37.624,192.332 38.178 M142.417 38.500 C 146.756 39.610,148.686 43.159,148.445 49.583 C 148.228 55.358,146.297 58.170,141.750 59.333 C 137.336 60.462,132.972 58.727,131.174 55.128 C 129.643 52.065,129.642 45.604,131.172 42.543 C 132.998 38.888,137.544 37.254,142.417 38.500 M212.298 39.872 L 212.345 41.494 210.949 41.484 C 206.913 41.454,206.176 43.290,206.170 53.375 L 206.167 59.167 204.333 59.167 L 202.500 59.167 202.500 48.833 L 202.500 38.500 204.148 38.500 L 205.797 38.500 205.919 40.375 L 206.042 42.250 206.426 41.381 C 207.510 38.924,208.630 38.132,210.917 38.207 L 212.250 38.250 212.298 39.872 M227.353 38.553 C 230.803 39.677,232.616 42.406,232.988 47.033 C 233.633 55.054,230.263 59.661,223.750 59.661 C 218.026 59.661,214.889 56.248,214.552 49.654 C 214.242 43.588,216.407 39.653,220.692 38.496 C 222.178 38.094,226.046 38.128,227.353 38.553 M246.083 38.393 C 247.591 38.794,248.749 39.595,249.681 40.881 L 250.139 41.512 250.245 40.381 C 250.303 39.759,250.366 39.100,250.384 38.917 C 250.414 38.610,250.557 38.579,252.136 38.536 L 253.855 38.488 253.793 49.536 C 253.725 61.654,253.748 61.360,252.686 63.459 C 249.970 68.826,239.880 68.676,237.387 63.233 C 236.877 62.119,236.901 62.091,238.548 61.854 C 240.527 61.569,240.613 61.583,240.824 62.220 C 241.257 63.534,242.681 64.366,244.667 64.465 C 248.626 64.663,250.156 62.779,250.164 57.693 L 250.167 55.803 249.516 56.626 C 246.250 60.759,239.599 60.304,237.376 55.796 C 235.733 52.462,235.784 45.273,237.475 41.855 C 238.963 38.851,242.485 37.434,246.083 38.393 M268.633 38.367 C 268.759 38.492,268.833 39.114,268.833 40.031 L 268.833 41.496 267.360 41.485 C 263.245 41.453,262.500 43.232,262.500 53.094 L 262.500 59.167 260.750 59.167 L 259.000 59.167 258.999 51.458 C 258.999 47.219,258.950 42.569,258.890 41.125 L 258.781 38.500 260.450 38.500 L 262.118 38.500 262.225 39.625 C 262.283 40.244,262.334 41.125,262.337 41.583 L 262.342 42.417 262.814 41.312 C 263.581 39.513,264.324 38.767,265.833 38.274 C 266.361 38.103,268.438 38.171,268.633 38.367 M282.964 38.418 C 285.483 39.012,287.146 40.556,287.762 42.873 C 287.940 43.539,287.997 45.060,287.998 49.200 C 288.001 56.605,288.136 57.091,290.164 56.971 L 291.083 56.917 291.083 57.988 C 291.083 59.279,290.966 59.345,288.583 59.384 C 285.946 59.427,285.181 58.768,284.586 55.943 L 284.486 55.469 283.972 56.193 C 281.557 59.597,277.088 60.687,273.516 58.743 C 269.804 56.723,270.045 49.836,273.895 47.885 C 275.721 46.960,276.630 46.801,280.625 46.711 L 284.333 46.627 284.333 45.423 C 284.333 42.207,283.086 40.944,279.927 40.958 C 277.418 40.970,276.079 41.742,275.625 43.439 L 275.424 44.191 274.421 44.090 C 273.868 44.034,273.054 43.946,272.610 43.893 L 271.803 43.798 271.915 43.191 C 272.618 39.367,277.692 37.176,282.964 38.418 M305.958 38.577 C 306.810 38.929,308.227 40.424,308.504 41.262 L 308.701 41.860 309.124 41.222 C 311.702 37.324,318.154 36.947,320.044 40.583 C 320.843 42.122,320.885 42.601,320.956 51.125 L 321.023 59.167 319.261 59.167 L 317.500 59.167 317.499 52.542 C 317.497 41.787,317.245 40.997,313.822 41.002 C 312.033 41.004,311.105 41.468,310.208 42.810 C 309.208 44.309,309.167 44.686,309.167 52.342 L 309.167 59.167 307.340 59.167 L 305.512 59.167 305.465 51.292 L 305.417 43.417 305.000 42.583 C 303.902 40.387,300.041 40.403,298.439 42.610 C 297.322 44.149,297.284 44.450,297.209 52.208 L 297.141 59.167 295.404 59.167 L 293.667 59.167 293.667 50.609 C 293.667 45.903,293.618 41.250,293.558 40.270 L 293.449 38.488 295.183 38.536 L 296.917 38.583 296.965 40.042 C 296.991 40.844,297.085 41.500,297.173 41.500 C 297.261 41.500,297.333 41.443,297.333 41.374 C 297.333 41.116,298.827 39.438,299.352 39.105 C 300.906 38.121,304.215 37.856,305.958 38.577 M337.873 38.441 C 339.130 38.794,340.311 39.823,340.822 41.010 L 341.189 41.864 341.648 41.140 C 344.435 36.749,351.406 37.111,352.951 41.727 L 353.405 43.083 353.464 51.125 L 353.523 59.167 351.687 59.167 L 349.851 59.167 349.801 51.292 L 349.750 43.417 349.333 42.592 C 348.076 40.103,343.919 40.436,342.445 43.144 C 341.598 44.699,341.506 45.638,341.503 52.708 L 341.500 59.167 339.750 59.167 L 338.000 59.167 338.000 51.939 C 338.000 44.613,337.922 43.441,337.363 42.338 C 336.542 40.722,333.117 40.476,331.520 41.919 C 329.828 43.447,329.667 44.377,329.667 52.614 L 329.667 59.167 327.917 59.167 L 326.167 59.167 326.166 50.208 C 326.165 45.281,326.117 40.631,326.058 39.875 L 325.951 38.500 327.623 38.500 C 329.569 38.500,329.488 38.414,329.506 40.500 C 329.517 41.728,329.522 41.743,329.800 41.338 C 331.804 38.418,334.431 37.475,337.873 38.441 M370.541 38.707 C 373.964 39.978,376.263 44.264,375.966 48.821 L 375.917 49.583 368.601 49.627 L 361.285 49.670 361.387 50.885 C 361.749 55.166,364.184 57.335,368.048 56.818 C 369.844 56.577,371.499 55.542,371.993 54.350 C 372.248 53.736,372.330 53.729,374.022 54.193 C 375.492 54.596,375.497 54.606,374.910 55.784 C 372.686 60.246,363.972 61.055,360.243 57.145 C 356.866 53.605,356.559 45.391,359.648 41.206 C 361.641 38.505,366.806 37.320,370.541 38.707 M389.964 39.872 L 390.012 41.494 388.616 41.484 C 384.581 41.454,383.833 43.370,383.833 53.743 L 383.833 59.167 382.083 59.167 L 380.333 59.167 380.333 52.458 C 380.333 48.769,380.283 44.116,380.223 42.119 L 380.113 38.488 381.848 38.536 L 383.583 38.583 383.667 40.417 L 383.750 42.250 384.047 41.526 C 385.092 38.974,386.229 38.160,388.667 38.219 L 389.917 38.250 389.964 39.872 M163.518 40.917 C 164.036 42.292,164.963 44.729,165.578 46.333 C 166.193 47.938,167.056 50.300,167.496 51.583 C 167.936 52.867,168.387 54.142,168.498 54.417 L 168.701 54.917 168.875 54.500 C 168.970 54.271,170.266 50.558,171.754 46.250 L 174.460 38.417 176.334 38.369 L 178.208 38.322 178.116 38.703 C 178.066 38.912,177.485 40.471,176.825 42.167 C 176.165 43.862,175.300 46.112,174.903 47.167 C 174.506 48.221,173.687 50.358,173.083 51.917 C 172.479 53.475,171.620 55.725,171.174 56.917 C 167.924 65.599,165.692 67.854,160.934 67.259 L 160.000 67.143 160.000 65.780 L 159.999 64.417 161.103 64.473 C 163.533 64.598,165.765 62.634,166.667 59.576 C 166.863 58.911,165.686 55.507,163.585 50.667 C 163.366 50.163,162.953 49.112,162.667 48.333 C 162.380 47.554,161.967 46.504,161.749 46.000 C 161.030 44.343,158.833 38.696,158.833 38.507 C 158.833 38.380,159.417 38.337,160.705 38.370 L 162.577 38.417 163.518 40.917 M137.602 41.008 C 134.916 41.683,133.781 43.974,133.767 48.750 C 133.751 54.144,135.186 56.581,138.586 56.935 C 142.679 57.361,144.689 54.696,144.694 48.833 C 144.700 42.540,142.254 39.841,137.602 41.008 M188.289 41.015 C 185.616 41.644,184.478 43.963,184.452 48.833 C 184.420 54.552,185.956 56.888,189.750 56.891 C 192.755 56.894,194.135 55.165,194.527 50.907 C 195.210 43.479,192.962 39.914,188.289 41.015 M222.120 41.005 C 219.465 41.674,218.336 44.010,218.336 48.833 C 218.336 54.493,219.958 56.909,223.750 56.899 C 227.234 56.890,228.736 55.162,229.199 50.626 C 229.929 43.485,227.167 39.732,222.120 41.005 M243.453 41.005 C 241.029 41.614,239.827 44.210,239.837 48.813 C 239.848 54.294,241.315 56.691,244.678 56.725 C 248.465 56.762,250.760 52.555,250.013 46.942 C 249.422 42.506,246.827 40.158,243.453 41.005 M364.913 41.124 C 362.909 41.840,361.812 43.390,361.409 46.075 L 361.295 46.833 366.754 46.833 L 372.213 46.833 372.117 45.958 C 371.682 42.016,368.462 39.855,364.913 41.124 M278.363 49.346 C 277.159 49.502,276.125 50.040,275.364 50.907 C 274.901 51.435,274.792 51.750,274.600 53.120 C 273.914 58.020,281.321 58.203,283.715 53.345 C 284.178 52.406,284.258 52.050,284.308 50.713 L 284.366 49.167 281.891 49.188 C 280.530 49.199,278.943 49.270,278.363 49.346 M55.421 54.336 C 56.957 55.285,56.796 57.567,55.133 58.433 C 53.729 59.163,52.000 58.012,52.000 56.347 C 52.000 54.489,53.880 53.384,55.421 54.336 " stroke="none" fill="#00000000" fill-rule="evenodd"></path><path id="path2" d="M23.917 12.017 C 14.037 13.426,11.906 16.803,12.541 30.040 C 12.845 36.372,12.802 37.089,12.018 38.765 C 11.058 40.816,8.869 42.418,5.769 43.339 L 4.500 43.715 4.500 45.931 C 4.500 48.410,4.408 48.227,5.917 48.757 C 11.940 50.870,13.072 52.976,12.587 61.167 C 12.274 66.455,12.272 67.995,12.575 70.010 C 13.486 76.050,17.102 78.993,24.453 79.677 C 26.774 79.893,26.564 80.117,26.640 77.347 C 26.710 74.793,26.733 74.842,25.469 74.836 C 23.665 74.826,20.682 73.565,19.737 72.412 C 17.937 70.215,17.665 68.418,18.067 61.371 C 18.634 51.414,17.731 49.091,12.395 46.792 C 10.403 45.934,10.380 45.890,11.701 45.424 C 17.651 43.325,18.704 40.922,18.099 30.833 C 17.634 23.081,17.896 21.241,19.759 19.179 C 20.845 17.976,23.504 16.837,25.238 16.831 C 26.727 16.826,26.667 16.935,26.667 14.231 L 26.667 11.833 25.792 11.854 C 25.310 11.865,24.467 11.938,23.917 12.017 M73.109 13.208 C 73.050 13.965,73.002 15.049,73.001 15.617 L 73.000 16.652 73.542 16.734 C 73.840 16.779,74.496 16.858,75.000 16.910 C 81.148 17.543,82.409 20.731,81.487 33.300 C 80.958 40.510,82.985 44.145,88.293 45.506 C 89.497 45.814,89.396 45.993,87.634 46.667 C 82.683 48.559,80.942 51.991,81.496 58.771 C 82.513 71.215,81.172 74.030,73.801 74.923 L 73.019 75.018 73.116 77.384 C 73.232 80.221,72.925 79.890,75.239 79.675 C 84.459 78.817,88.110 74.216,87.346 64.417 C 86.464 53.096,87.444 50.792,94.042 48.667 L 95.167 48.304 95.167 46.009 L 95.167 43.713 93.958 43.334 C 87.317 41.249,86.466 39.189,87.346 27.333 C 88.107 17.089,83.564 11.886,73.816 11.836 L 73.216 11.833 73.109 13.208 " stroke="none" fill="#d84315" fill-rule="evenodd"></path><path id="path3" d="M25.794 11.785 C 26.001 11.824,26.301 11.823,26.460 11.781 C 26.620 11.739,26.450 11.707,26.083 11.709 C 25.717 11.711,25.586 11.745,25.794 11.785 M73.068 11.896 C 73.020 12.022,73.009 12.491,73.043 12.938 L 73.107 13.750 73.137 12.802 L 73.167 11.853 73.792 11.788 L 74.417 11.723 73.786 11.695 C 73.384 11.677,73.124 11.750,73.068 11.896 M24.042 11.948 C 24.202 11.990,24.465 11.990,24.625 11.948 C 24.785 11.906,24.654 11.872,24.333 11.872 C 24.012 11.872,23.881 11.906,24.042 11.948 M75.127 11.951 C 75.334 11.991,75.634 11.990,75.794 11.948 C 75.953 11.906,75.783 11.874,75.417 11.875 C 75.050 11.877,74.920 11.911,75.127 11.951 M78.500 12.500 C 79.070 12.683,79.508 12.683,79.083 12.500 C 78.900 12.421,78.600 12.359,78.417 12.362 C 78.149 12.366,78.165 12.393,78.500 12.500 M17.208 13.838 C 16.727 14.114,16.333 14.379,16.333 14.427 C 16.333 14.518,17.800 13.714,18.075 13.473 C 18.367 13.216,18.090 13.333,17.208 13.838 M82.583 13.944 C 83.009 14.347,84.055 15.030,83.803 14.739 C 83.649 14.562,83.274 14.275,82.970 14.101 C 82.665 13.928,82.492 13.857,82.583 13.944 M15.180 15.434 C 14.711 15.947,14.249 16.528,14.154 16.725 C 14.058 16.925,14.150 16.862,14.363 16.583 C 14.573 16.308,15.075 15.727,15.478 15.292 C 15.882 14.856,16.172 14.500,16.123 14.500 C 16.074 14.500,15.649 14.920,15.180 15.434 M26.709 15.917 C 26.711 16.283,26.745 16.414,26.785 16.206 C 26.824 15.999,26.823 15.699,26.781 15.540 C 26.739 15.380,26.707 15.550,26.709 15.917 M75.514 17.060 C 75.552 17.093,75.808 17.170,76.083 17.232 C 76.448 17.313,76.516 17.298,76.333 17.174 C 76.108 17.022,75.347 16.916,75.514 17.060 M21.458 17.845 C 21.115 18.026,20.833 18.212,20.833 18.257 C 20.833 18.332,22.150 17.716,22.319 17.563 C 22.511 17.389,22.011 17.553,21.458 17.845 M78.167 17.896 C 78.167 17.935,78.434 18.125,78.760 18.317 C 79.086 18.510,79.307 18.592,79.249 18.499 C 79.138 18.319,78.167 17.778,78.167 17.896 M19.983 18.958 C 19.425 19.556,18.743 20.431,19.107 20.083 C 19.504 19.704,20.704 18.333,20.638 18.333 C 20.599 18.333,20.305 18.615,19.983 18.958 M86.360 18.417 C 86.359 18.508,86.460 18.846,86.583 19.167 C 86.707 19.487,86.810 19.637,86.813 19.500 C 86.816 19.362,86.715 19.025,86.589 18.750 C 86.463 18.475,86.360 18.325,86.360 18.417 M80.411 19.992 C 80.735 20.473,81.000 20.947,81.000 21.045 C 81.000 21.142,81.047 21.176,81.104 21.119 C 81.229 20.994,80.460 19.646,80.087 19.337 C 79.942 19.216,80.087 19.510,80.411 19.992 M12.375 22.250 C 12.377 22.617,12.411 22.747,12.451 22.540 C 12.491 22.332,12.490 22.032,12.448 21.873 C 12.406 21.714,12.374 21.883,12.375 22.250 M18.093 22.593 C 18.030 22.927,18.012 23.234,18.053 23.275 C 18.093 23.316,18.178 23.075,18.241 22.741 C 18.303 22.406,18.321 22.099,18.281 22.059 C 18.240 22.018,18.155 22.258,18.093 22.593 M87.375 23.083 C 87.377 23.450,87.411 23.580,87.451 23.373 C 87.491 23.166,87.490 22.866,87.448 22.706 C 87.406 22.547,87.374 22.717,87.375 23.083 M12.230 25.083 C 12.231 26.183,12.258 26.612,12.290 26.035 C 12.323 25.459,12.323 24.559,12.290 24.035 C 12.257 23.512,12.230 23.983,12.230 25.083 M81.705 23.833 C 81.705 24.154,81.740 24.285,81.782 24.125 C 81.823 23.965,81.823 23.702,81.782 23.542 C 81.740 23.381,81.705 23.512,81.705 23.833 M17.898 25.667 C 17.898 26.813,17.924 27.281,17.957 26.708 C 17.989 26.135,17.989 25.198,17.957 24.625 C 17.924 24.052,17.898 24.521,17.898 25.667 M87.388 27.250 C 87.389 27.892,87.419 28.134,87.455 27.788 C 87.491 27.442,87.490 26.917,87.454 26.621 C 87.417 26.325,87.387 26.608,87.388 27.250 M81.718 27.750 C 81.719 28.300,81.750 28.505,81.787 28.205 C 81.825 27.906,81.824 27.456,81.786 27.205 C 81.748 26.955,81.717 27.200,81.718 27.750 M12.392 28.833 C 12.392 29.613,12.420 29.931,12.455 29.542 C 12.490 29.152,12.490 28.515,12.455 28.125 C 12.420 27.735,12.392 28.054,12.392 28.833 M18.053 29.667 C 18.053 30.262,18.084 30.506,18.121 30.208 C 18.158 29.910,18.158 29.423,18.121 29.125 C 18.084 28.827,18.053 29.071,18.053 29.667 M87.224 30.083 C 87.224 30.817,87.254 31.096,87.289 30.704 C 87.324 30.312,87.324 29.712,87.288 29.371 C 87.252 29.029,87.223 29.350,87.224 30.083 M81.556 30.667 C 81.556 31.354,81.585 31.635,81.621 31.292 C 81.657 30.948,81.657 30.385,81.621 30.042 C 81.585 29.698,81.556 29.979,81.556 30.667 M12.555 31.750 C 12.555 32.392,12.586 32.634,12.622 32.288 C 12.658 31.942,12.657 31.417,12.620 31.121 C 12.583 30.825,12.554 31.108,12.555 31.750 M152.746 45.000 C 152.746 52.837,152.767 56.044,152.792 52.125 C 152.817 48.206,152.817 41.794,152.792 37.875 C 152.767 33.956,152.746 37.162,152.746 45.000 M18.224 32.417 C 18.224 33.150,18.254 33.429,18.289 33.037 C 18.324 32.645,18.324 32.045,18.288 31.704 C 18.252 31.363,18.223 31.683,18.224 32.417 M87.050 32.833 C 87.050 33.337,87.081 33.544,87.119 33.292 C 87.158 33.040,87.158 32.627,87.119 32.375 C 87.081 32.123,87.050 32.329,87.050 32.833 M81.388 33.250 C 81.389 33.892,81.419 34.134,81.455 33.788 C 81.491 33.442,81.490 32.917,81.454 32.621 C 81.417 32.325,81.387 32.608,81.388 33.250 M103.413 45.750 C 103.413 53.175,103.433 56.237,103.458 52.554 C 103.483 48.871,103.483 42.796,103.458 39.054 C 103.433 35.312,103.413 38.325,103.413 45.750 M107.075 38.000 C 107.075 41.162,107.097 42.456,107.125 40.875 C 107.152 39.294,107.152 36.706,107.125 35.125 C 107.097 33.544,107.075 34.837,107.075 38.000 M121.575 38.000 C 121.575 41.162,121.597 42.456,121.625 40.875 C 121.652 39.294,121.652 36.706,121.625 35.125 C 121.597 33.544,121.575 34.837,121.575 38.000 M125.246 45.750 C 125.246 53.175,125.267 56.237,125.292 52.554 C 125.317 48.871,125.317 42.796,125.292 39.054 C 125.267 35.312,125.246 38.325,125.246 45.750 M25.794 32.986 L 25.250 33.473 25.250 45.333 L 25.250 57.194 25.794 57.680 C 26.571 58.374,27.516 58.363,28.181 57.652 L 28.662 57.136 28.706 51.943 L 28.750 46.750 36.167 46.750 L 43.583 46.750 43.667 51.972 L 43.750 57.194 44.294 57.681 C 45.148 58.443,46.437 58.261,46.929 57.309 C 47.317 56.558,47.280 33.993,46.889 33.332 C 46.329 32.383,45.146 32.225,44.294 32.986 L 43.750 33.472 43.701 38.486 L 43.653 43.500 36.160 43.500 L 28.667 43.500 28.667 38.518 L 28.667 33.535 28.183 33.018 C 27.516 32.304,26.572 32.291,25.794 32.986 M61.858 33.001 L 61.333 33.526 61.333 45.172 C 61.333 58.559,61.279 58.167,63.121 58.167 C 64.585 58.167,64.833 57.423,64.833 53.030 L 64.833 49.376 68.042 49.286 C 72.420 49.162,73.755 48.732,75.667 46.829 C 79.131 43.380,78.522 36.731,74.490 33.993 C 72.557 32.680,72.185 32.608,66.983 32.539 L 62.382 32.477 61.858 33.001 M12.720 35.000 C 12.720 35.596,12.750 35.840,12.787 35.542 C 12.824 35.244,12.824 34.756,12.787 34.458 C 12.750 34.160,12.720 34.404,12.720 35.000 M18.390 35.583 C 18.391 36.317,18.420 36.596,18.456 36.204 C 18.491 35.812,18.490 35.212,18.454 34.871 C 18.419 34.529,18.390 34.850,18.390 35.583 M71.340 36.086 C 74.997 37.376,75.690 42.934,72.468 45.126 C 71.421 45.838,70.501 46.000,67.510 46.000 L 64.833 46.000 64.833 40.917 L 64.833 35.833 67.729 35.833 C 69.888 35.833,70.807 35.897,71.340 36.086 M12.429 37.262 C 12.367 37.506,12.349 37.738,12.389 37.777 C 12.428 37.817,12.510 37.649,12.571 37.405 C 12.633 37.161,12.651 36.929,12.611 36.889 C 12.572 36.850,12.490 37.018,12.429 37.262 M81.379 37.500 C 81.379 37.912,81.411 38.081,81.451 37.875 C 81.491 37.669,81.491 37.331,81.451 37.125 C 81.411 36.919,81.379 37.087,81.379 37.500 M18.212 37.833 C 18.212 38.246,18.245 38.415,18.284 38.208 C 18.324 38.002,18.324 37.665,18.284 37.458 C 18.245 37.252,18.212 37.421,18.212 37.833 M190.125 38.121 C 190.423 38.158,190.910 38.158,191.208 38.121 C 191.506 38.084,191.262 38.053,190.667 38.053 C 190.071 38.053,189.827 38.084,190.125 38.121 M211.786 38.275 C 212.131 38.350,212.159 38.460,212.212 39.969 L 212.270 41.583 212.260 39.917 C 212.250 38.260,212.247 38.250,211.833 38.223 C 211.478 38.199,211.471 38.207,211.786 38.275 M268.304 38.343 C 268.674 38.492,268.688 38.561,268.637 39.999 C 268.607 40.825,268.640 41.501,268.708 41.500 C 268.777 41.500,268.833 40.840,268.833 40.033 C 268.833 38.547,268.695 38.156,268.175 38.177 C 268.022 38.183,268.074 38.251,268.304 38.343 M278.208 38.282 C 278.369 38.323,278.631 38.323,278.792 38.282 C 278.952 38.240,278.821 38.205,278.500 38.205 C 278.179 38.205,278.048 38.240,278.208 38.282 M158.846 38.625 C 158.854 38.799,158.893 38.833,158.944 38.708 C 159.003 38.561,159.528 38.500,160.751 38.500 L 162.474 38.500 162.670 39.095 C 162.778 39.421,162.901 39.655,162.943 39.613 C 162.985 39.570,162.906 39.265,162.768 38.935 L 162.517 38.333 160.675 38.333 C 159.027 38.333,158.835 38.364,158.846 38.625 M174.329 38.761 C 174.092 39.385,174.142 39.486,174.429 38.958 C 174.675 38.505,174.696 38.500,176.358 38.500 C 178.180 38.500,178.090 38.441,177.757 39.417 C 177.681 39.640,177.728 39.613,177.899 39.333 C 178.466 38.410,178.345 38.333,176.329 38.333 C 174.510 38.333,174.490 38.338,174.329 38.761 M180.724 38.591 C 180.670 38.732,180.672 38.894,180.729 38.952 C 180.787 39.009,180.833 38.931,180.833 38.778 C 180.833 38.420,183.913 38.354,184.056 38.708 C 184.107 38.833,184.146 38.799,184.154 38.625 C 184.172 38.213,180.882 38.180,180.724 38.591 M193.774 38.680 C 194.807 39.078,196.031 40.120,196.682 41.156 C 196.945 41.574,197.162 41.859,197.163 41.788 C 197.186 40.874,194.226 38.324,193.167 38.346 C 193.029 38.348,193.302 38.499,193.774 38.680 M332.401 38.747 C 331.944 38.975,331.311 39.439,330.994 39.779 C 330.422 40.391,330.424 40.390,331.226 39.703 C 331.671 39.322,332.421 38.862,332.893 38.680 C 333.364 38.499,333.633 38.347,333.491 38.342 C 333.349 38.337,332.858 38.520,332.401 38.747 M186.658 38.978 C 186.250 39.240,185.692 39.709,185.418 40.019 C 184.926 40.575,184.928 40.574,185.584 39.969 C 185.950 39.632,186.588 39.164,187.000 38.930 C 187.412 38.696,187.671 38.503,187.574 38.502 C 187.478 38.501,187.065 38.715,186.658 38.978 M202.540 48.875 L 202.581 59.250 202.625 48.964 L 202.669 38.679 204.293 38.624 L 205.917 38.570 204.208 38.535 L 202.500 38.500 202.540 48.875 M247.107 38.902 C 248.172 39.398,249.221 40.332,249.775 41.278 C 250.305 42.183,250.338 42.179,250.311 41.208 C 250.290 40.435,250.287 40.430,250.167 41.000 C 250.099 41.321,250.034 41.498,250.022 41.393 C 249.944 40.715,247.247 38.503,246.500 38.503 C 246.362 38.503,246.635 38.683,247.107 38.902 M250.400 38.732 C 250.351 38.860,250.341 39.254,250.378 39.607 C 250.441 40.218,250.445 40.210,250.472 39.458 L 250.500 38.667 252.082 38.667 L 253.664 38.667 253.708 48.958 L 253.753 59.250 253.793 48.875 L 253.833 38.500 252.161 38.500 C 250.885 38.500,250.468 38.555,250.400 38.732 M258.868 40.292 L 258.904 42.083 258.958 40.381 L 259.012 38.679 260.631 38.624 L 262.250 38.570 260.542 38.535 L 258.833 38.500 258.868 40.292 M293.630 48.286 C 293.655 53.675,293.702 58.346,293.734 58.667 C 293.766 58.987,293.782 54.619,293.771 48.958 L 293.750 38.667 295.292 38.667 L 296.833 38.667 296.833 40.333 C 296.833 42.245,296.919 42.329,297.645 41.125 C 298.072 40.417,298.093 40.346,297.754 40.750 C 297.523 41.025,297.335 41.306,297.334 41.375 C 297.334 41.444,297.261 41.500,297.173 41.500 C 297.085 41.500,296.991 40.844,296.965 40.042 L 296.917 38.583 295.250 38.536 L 293.583 38.489 293.630 48.286 M305.681 38.553 C 305.946 38.756,307.000 39.307,307.000 39.242 C 307.000 39.130,305.951 38.501,305.764 38.501 C 305.680 38.500,305.642 38.524,305.681 38.553 M318.187 38.917 C 318.892 39.284,319.400 39.767,319.961 40.603 C 320.080 40.780,320.068 40.699,319.934 40.417 C 319.562 39.634,318.114 38.475,317.550 38.508 C 317.477 38.512,317.763 38.696,318.187 38.917 M326.031 39.458 L 326.062 40.417 326.123 39.530 L 326.185 38.644 327.759 38.697 C 328.626 38.726,329.334 38.694,329.334 38.625 C 329.334 38.556,328.583 38.500,327.667 38.500 L 326.000 38.500 326.031 39.458 M350.417 38.782 C 350.692 38.930,351.175 39.246,351.492 39.484 C 351.808 39.722,352.014 39.830,351.950 39.724 C 351.792 39.464,350.322 38.498,350.096 38.507 C 349.998 38.510,350.142 38.634,350.417 38.782 M380.203 40.953 L 380.240 43.417 380.291 41.042 L 380.342 38.667 381.921 38.667 L 383.500 38.667 383.500 40.667 C 383.500 42.956,383.607 43.095,384.207 41.582 C 384.444 40.986,384.580 40.534,384.510 40.577 C 384.440 40.620,384.240 41.014,384.066 41.453 L 383.750 42.250 383.667 40.417 L 383.583 38.583 381.875 38.536 L 380.167 38.488 380.203 40.953 M134.625 39.011 C 134.281 39.193,134.000 39.379,134.000 39.424 C 134.000 39.470,134.281 39.366,134.625 39.193 C 134.969 39.021,135.362 38.838,135.500 38.786 C 135.722 38.703,135.722 38.692,135.500 38.687 C 135.362 38.684,134.969 38.830,134.625 39.011 M143.000 38.708 C 143.135 38.841,144.667 39.488,144.667 39.412 C 144.667 39.373,144.460 39.237,144.208 39.109 C 143.709 38.855,142.866 38.575,143.000 38.708 M207.884 39.095 L 207.417 39.524 207.958 39.147 C 208.256 38.940,208.500 38.747,208.500 38.719 C 208.500 38.587,208.316 38.700,207.884 39.095 M219.375 38.915 C 219.077 39.045,218.833 39.188,218.833 39.233 C 218.833 39.314,220.012 38.866,220.153 38.732 C 220.298 38.594,219.895 38.689,219.375 38.915 M228.326 39.093 C 228.827 39.326,229.347 39.607,229.483 39.717 C 229.678 39.874,229.704 39.872,229.604 39.705 C 229.456 39.459,227.946 38.666,227.631 38.668 C 227.513 38.669,227.826 38.860,228.326 39.093 M240.042 38.998 C 239.289 39.457,239.360 39.569,240.125 39.131 C 240.895 38.690,240.926 38.667,240.736 38.667 C 240.652 38.668,240.340 38.817,240.042 38.998 M275.227 38.987 C 274.050 39.522,272.162 41.530,272.168 42.241 C 272.169 42.338,272.387 42.038,272.652 41.575 C 273.258 40.519,274.293 39.576,275.396 39.074 C 275.866 38.861,276.175 38.683,276.083 38.680 C 275.992 38.677,275.606 38.815,275.227 38.987 M283.847 38.730 C 284.018 38.884,285.333 39.498,285.333 39.423 C 285.333 39.329,284.076 38.667,283.896 38.667 C 283.831 38.667,283.809 38.695,283.847 38.730 M311.167 39.075 C 310.846 39.289,310.321 39.753,310.000 40.107 L 309.417 40.750 310.107 40.109 C 310.487 39.756,311.087 39.289,311.440 39.072 C 311.794 38.855,312.008 38.679,311.917 38.682 C 311.825 38.684,311.487 38.861,311.167 39.075 M339.115 39.149 C 339.965 39.764,340.408 40.332,340.763 41.260 C 340.918 41.667,341.104 42.000,341.175 42.000 C 341.246 42.000,341.093 41.562,340.833 41.027 C 340.394 40.121,339.030 38.667,338.618 38.667 C 338.526 38.667,338.749 38.884,339.115 39.149 M343.567 39.146 C 343.209 39.410,342.655 39.916,342.335 40.271 C 341.845 40.813,341.885 40.793,342.585 40.141 C 343.042 39.714,343.679 39.208,344.000 39.016 C 344.321 38.825,344.501 38.668,344.400 38.667 C 344.299 38.667,343.924 38.882,343.567 39.146 M362.213 39.091 C 361.744 39.325,361.261 39.641,361.139 39.793 C 360.995 39.972,361.103 39.940,361.443 39.702 C 361.732 39.499,362.294 39.188,362.693 39.012 C 363.091 38.835,363.338 38.685,363.241 38.678 C 363.144 38.672,362.682 38.858,362.213 39.091 M370.997 39.009 C 371.407 39.198,372.007 39.551,372.330 39.794 C 372.653 40.037,372.810 40.103,372.680 39.942 C 372.388 39.579,371.230 38.903,370.667 38.767 C 370.438 38.712,370.586 38.820,370.997 39.009 M385.551 39.099 L 385.083 39.531 385.625 39.171 C 386.121 38.841,386.283 38.667,386.093 38.667 C 386.052 38.667,385.808 38.861,385.551 39.099 M299.122 39.256 C 298.780 39.488,298.500 39.715,298.500 39.758 C 298.500 39.802,298.800 39.640,299.167 39.397 C 299.749 39.012,299.946 38.833,299.789 38.833 C 299.764 38.833,299.464 39.024,299.122 39.256 M159.000 39.054 C 159.000 39.263,159.875 41.347,159.937 41.285 C 159.971 41.251,159.805 40.741,159.566 40.153 C 159.145 39.111,159.000 38.830,159.000 39.054 M329.367 40.365 C 329.336 41.715,329.501 42.339,329.731 41.740 C 329.785 41.599,329.758 41.527,329.672 41.580 C 329.579 41.638,329.491 41.111,329.457 40.297 L 329.401 38.917 329.367 40.365 M184.189 40.365 C 184.177 40.979,184.223 41.515,184.292 41.558 C 184.360 41.600,184.395 41.249,184.369 40.776 C 184.289 39.355,184.213 39.182,184.189 40.365 M238.521 40.246 C 238.143 40.657,237.833 41.044,237.833 41.107 C 237.833 41.171,237.858 41.191,237.888 41.153 C 237.918 41.115,238.266 40.727,238.659 40.292 C 239.053 39.856,239.338 39.500,239.292 39.500 C 239.247 39.500,238.900 39.836,238.521 40.246 M286.083 40.167 C 286.441 40.533,286.772 40.833,286.818 40.833 C 286.863 40.833,286.608 40.533,286.250 40.167 C 285.892 39.800,285.562 39.500,285.516 39.500 C 285.470 39.500,285.725 39.800,286.083 40.167 M263.541 39.875 C 263.292 40.187,262.801 41.189,262.865 41.254 C 262.896 41.285,263.118 40.940,263.359 40.488 C 263.798 39.664,263.851 39.487,263.541 39.875 M132.575 40.542 L 131.917 41.250 132.625 40.591 C 133.284 39.978,133.410 39.833,133.284 39.833 C 133.257 39.833,132.938 40.152,132.575 40.542 M163.096 40.167 C 163.157 40.396,163.276 40.696,163.361 40.833 C 163.469 41.007,163.482 40.956,163.404 40.667 C 163.343 40.438,163.224 40.137,163.139 40.000 C 163.031 39.826,163.018 39.877,163.096 40.167 M230.423 40.500 C 230.786 40.912,231.218 41.438,231.382 41.667 C 231.671 42.069,231.671 42.065,231.386 41.539 C 231.224 41.239,230.792 40.714,230.427 40.372 L 229.763 39.750 230.423 40.500 M146.087 40.708 C 146.444 41.144,146.764 41.500,146.797 41.500 C 146.916 41.500,146.192 40.574,145.819 40.250 C 145.608 40.067,145.729 40.273,146.087 40.708 M262.189 41.083 C 262.179 41.725,262.230 42.342,262.302 42.455 C 262.373 42.567,262.406 42.155,262.374 41.538 C 262.290 39.930,262.208 39.730,262.189 41.083 M352.273 40.417 C 352.658 41.075,352.667 41.085,352.667 40.880 C 352.667 40.783,352.512 40.527,352.323 40.310 L 351.980 39.917 352.273 40.417 M360.232 40.542 C 359.620 41.205,359.267 41.667,359.370 41.667 C 359.413 41.667,359.764 41.292,360.150 40.833 C 360.942 39.894,360.991 39.719,360.232 40.542 M10.573 40.708 L 10.083 41.250 10.625 40.760 C 11.130 40.304,11.243 40.167,11.115 40.167 C 11.086 40.167,10.842 40.410,10.573 40.708 M17.631 40.421 C 17.580 40.602,17.487 40.900,17.425 41.083 C 17.363 41.267,17.434 41.206,17.583 40.948 C 17.732 40.691,17.825 40.393,17.790 40.286 C 17.754 40.179,17.683 40.240,17.631 40.421 M206.503 41.208 L 206.026 42.250 205.961 41.250 C 205.897 40.252,205.896 40.253,205.865 41.492 C 205.846 42.236,205.894 42.670,205.984 42.575 C 206.185 42.364,207.169 40.167,207.063 40.167 C 207.017 40.167,206.765 40.635,206.503 41.208 M373.501 40.794 C 373.793 41.185,374.248 41.897,374.513 42.377 C 374.777 42.857,374.995 43.175,374.995 43.083 C 374.998 42.802,374.057 41.283,373.499 40.667 L 372.970 40.083 373.501 40.794 M88.667 40.389 C 88.667 40.434,88.967 40.710,89.333 41.000 C 89.700 41.290,90.000 41.491,90.000 41.445 C 90.000 41.399,89.700 41.124,89.333 40.833 C 88.967 40.543,88.667 40.343,88.667 40.389 M308.292 41.244 C 308.607 42.094,308.741 42.166,309.003 41.625 C 309.171 41.280,309.166 41.274,308.942 41.551 C 308.715 41.833,308.686 41.814,308.504 41.262 C 308.397 40.937,308.242 40.630,308.160 40.579 C 308.078 40.529,308.137 40.828,308.292 41.244 M137.865 40.808 C 137.654 40.868,138.314 40.917,139.333 40.917 C 140.352 40.917,141.013 40.868,140.802 40.808 C 140.590 40.749,139.929 40.700,139.333 40.700 C 138.737 40.700,138.077 40.749,137.865 40.808 M188.286 40.849 C 187.662 40.996,186.667 41.444,186.667 41.578 C 186.667 41.617,187.023 41.486,187.458 41.287 C 188.085 41.002,188.573 40.926,189.802 40.922 C 190.655 40.919,191.180 40.868,190.968 40.808 C 190.419 40.654,189.025 40.675,188.286 40.849 M222.333 40.805 C 222.080 40.882,222.536 40.929,223.500 40.924 C 224.371 40.920,225.346 40.972,225.667 41.039 C 226.138 41.137,226.189 41.125,225.933 40.975 C 225.552 40.751,222.920 40.627,222.333 40.805 M243.357 40.858 C 242.551 41.090,242.789 41.179,243.671 40.976 C 244.081 40.881,244.829 40.841,245.333 40.886 C 245.904 40.937,246.124 40.916,245.917 40.829 C 245.470 40.643,244.049 40.659,243.357 40.858 M279.167 40.770 C 278.938 40.809,278.499 40.881,278.191 40.931 C 277.193 41.093,277.723 41.148,278.891 41.003 C 279.922 40.875,281.389 40.978,282.250 41.238 C 282.433 41.293,282.358 41.233,282.083 41.105 C 281.543 40.853,279.842 40.658,279.167 40.770 M364.967 40.931 C 364.536 41.064,364.145 41.233,364.099 41.308 C 364.053 41.383,364.405 41.309,364.883 41.144 C 365.371 40.975,366.223 40.844,366.833 40.844 C 367.443 40.844,368.296 40.975,368.784 41.144 C 369.261 41.309,369.614 41.383,369.569 41.309 C 369.220 40.746,366.339 40.509,364.967 40.931 M300.042 41.162 C 299.652 41.339,299.333 41.521,299.333 41.567 C 299.333 41.613,299.652 41.506,300.042 41.329 C 301.642 40.602,304.132 41.055,304.829 42.199 C 305.014 42.502,305.166 42.666,305.166 42.564 C 305.171 41.226,301.883 40.326,300.042 41.162 M313.208 40.955 C 313.552 40.991,314.115 40.991,314.458 40.955 C 314.802 40.919,314.521 40.889,313.833 40.889 C 313.146 40.889,312.865 40.919,313.208 40.955 M332.917 40.988 C 332.732 41.061,333.178 41.087,333.917 41.047 C 335.649 40.952,335.894 40.860,334.417 40.858 C 333.775 40.857,333.100 40.916,332.917 40.988 M344.583 41.089 C 344.205 41.271,344.185 41.300,344.500 41.207 C 344.729 41.139,345.608 41.083,346.453 41.083 C 347.298 41.083,347.860 41.032,347.703 40.970 C 347.176 40.762,345.099 40.841,344.583 41.089 M216.168 41.692 C 215.892 42.072,215.667 42.460,215.667 42.553 C 215.667 42.755,215.643 42.783,216.299 41.792 C 216.943 40.817,216.852 40.747,216.168 41.692 M246.347 41.053 C 246.612 41.256,247.667 41.807,247.667 41.742 C 247.667 41.630,246.618 41.001,246.431 41.001 C 246.347 41.000,246.309 41.024,246.347 41.053 M287.100 41.532 C 287.687 42.668,287.735 43.146,287.831 48.833 L 287.929 54.583 287.963 49.167 C 287.988 45.093,287.941 43.543,287.774 42.917 C 287.551 42.079,287.063 41.000,286.908 41.000 C 286.862 41.000,286.949 41.239,287.100 41.532 M311.740 41.259 C 311.422 41.514,311.422 41.516,311.750 41.365 C 311.933 41.281,312.196 41.170,312.333 41.119 C 312.549 41.039,312.548 41.025,312.324 41.013 C 312.181 41.006,311.918 41.117,311.740 41.259 M335.833 41.119 C 335.971 41.170,336.233 41.281,336.417 41.365 C 336.745 41.516,336.745 41.514,336.426 41.259 C 336.249 41.117,335.986 41.006,335.843 41.013 C 335.619 41.025,335.617 41.039,335.833 41.119 M142.250 41.439 C 142.342 41.520,142.679 41.810,142.999 42.085 L 143.582 42.583 143.166 42.110 C 142.937 41.849,142.600 41.559,142.417 41.464 C 142.233 41.370,142.158 41.359,142.250 41.439 M192.775 41.837 C 193.064 42.156,193.457 42.679,193.649 43.000 C 193.842 43.321,193.999 43.501,193.999 43.400 C 194.000 43.149,193.137 41.990,192.649 41.587 C 192.402 41.383,192.450 41.478,192.775 41.837 M209.708 41.448 C 209.869 41.490,210.131 41.490,210.292 41.448 C 210.452 41.406,210.321 41.372,210.000 41.372 C 209.679 41.372,209.548 41.406,209.708 41.448 M210.960 41.451 C 211.168 41.491,211.468 41.490,211.627 41.448 C 211.786 41.406,211.617 41.374,211.250 41.375 C 210.883 41.377,210.753 41.411,210.960 41.451 M266.042 41.448 C 266.202 41.490,266.465 41.490,266.625 41.448 C 266.785 41.406,266.654 41.372,266.333 41.372 C 266.012 41.372,265.881 41.406,266.042 41.448 M267.292 41.451 C 267.498 41.491,267.835 41.491,268.042 41.451 C 268.248 41.411,268.079 41.379,267.667 41.379 C 267.254 41.379,267.085 41.411,267.292 41.451 M348.852 41.742 C 349.000 41.930,349.204 42.233,349.306 42.417 C 349.407 42.600,349.492 42.657,349.495 42.544 C 349.498 42.431,349.294 42.128,349.042 41.870 C 348.790 41.612,348.704 41.554,348.852 41.742 M387.375 41.448 C 387.535 41.490,387.798 41.490,387.958 41.448 C 388.119 41.406,387.988 41.372,387.667 41.372 C 387.346 41.372,387.215 41.406,387.375 41.448 M388.625 41.451 C 388.831 41.491,389.169 41.491,389.375 41.451 C 389.581 41.411,389.412 41.379,389.000 41.379 C 388.587 41.379,388.419 41.411,388.625 41.451 M227.500 42.083 C 227.811 42.404,228.103 42.667,228.149 42.667 C 228.195 42.667,227.978 42.404,227.667 42.083 C 227.356 41.762,227.064 41.500,227.018 41.500 C 226.972 41.500,227.189 41.762,227.500 42.083 M276.252 41.998 C 275.989 42.272,275.809 42.531,275.852 42.574 C 275.894 42.616,276.136 42.392,276.388 42.076 C 276.953 41.368,276.890 41.332,276.252 41.998 M219.973 42.125 C 219.434 42.711,219.000 43.359,219.001 43.579 C 219.001 43.673,219.159 43.487,219.351 43.167 C 219.543 42.846,219.895 42.377,220.132 42.125 C 220.368 41.873,220.525 41.667,220.479 41.667 C 220.433 41.667,220.206 41.873,219.973 42.125 M298.718 42.042 C 298.392 42.400,297.662 43.506,297.865 43.333 C 298.025 43.197,299.169 41.667,299.111 41.667 C 299.082 41.667,298.905 41.835,298.718 42.042 M331.017 42.256 C 330.733 42.580,330.500 42.895,330.500 42.956 C 330.500 43.017,330.557 42.995,330.626 42.908 C 330.696 42.821,330.972 42.506,331.241 42.208 C 331.509 41.910,331.685 41.667,331.632 41.667 C 331.578 41.667,331.302 41.932,331.017 42.256 M342.924 42.189 C 342.427 42.779,341.833 43.878,341.835 44.202 C 341.836 44.320,342.012 44.042,342.226 43.583 C 342.440 43.125,342.821 42.506,343.072 42.208 C 343.324 41.910,343.492 41.667,343.446 41.667 C 343.400 41.667,343.165 41.902,342.924 42.189 M131.158 42.516 C 130.967 42.892,130.839 43.228,130.874 43.262 C 130.909 43.297,131.100 42.990,131.300 42.580 C 131.754 41.645,131.631 41.590,131.158 42.516 M207.844 42.348 C 207.561 42.632,207.245 43.025,207.142 43.223 C 207.039 43.421,206.990 43.546,207.032 43.500 C 208.431 41.996,208.991 41.201,207.844 42.348 M248.240 42.388 C 248.496 42.725,248.740 43.000,248.781 43.000 C 248.897 43.000,248.175 42.025,247.962 41.893 C 247.858 41.829,247.983 42.052,248.240 42.388 M264.158 42.458 L 263.583 43.083 264.208 42.509 C 264.790 41.974,264.910 41.833,264.783 41.833 C 264.755 41.833,264.474 42.115,264.158 42.458 M283.745 42.566 C 283.977 43.016,284.173 43.541,284.180 43.733 C 284.187 43.926,284.231 43.990,284.277 43.876 C 284.393 43.588,284.059 42.665,283.658 42.167 C 283.396 41.841,283.415 41.929,283.745 42.566 M362.977 42.125 C 362.497 42.704,362.294 43.000,362.376 43.000 C 362.423 43.000,362.661 42.737,362.905 42.417 C 363.359 41.821,363.414 41.597,362.977 42.125 M370.752 42.417 C 371.420 43.344,371.604 43.516,371.232 42.864 C 371.059 42.560,370.772 42.185,370.594 42.030 C 370.407 41.867,370.473 42.029,370.752 42.417 M385.491 42.458 L 384.917 43.083 385.542 42.509 C 386.123 41.974,386.243 41.833,386.116 41.833 C 386.088 41.833,385.807 42.115,385.491 42.458 M237.104 42.559 C 236.976 42.867,236.825 43.373,236.770 43.684 C 236.660 44.311,236.731 44.169,237.175 42.875 C 237.510 41.898,237.465 41.696,237.104 42.559 M310.332 42.374 C 309.844 43.107,309.807 43.242,310.227 42.750 C 310.599 42.315,310.765 42.000,310.623 42.000 C 310.600 42.000,310.468 42.168,310.332 42.374 M83.166 42.625 C 83.384 42.923,83.589 43.167,83.621 43.167 C 83.747 43.167,83.334 42.542,83.061 42.320 C 82.881 42.173,82.921 42.290,83.166 42.625 M134.997 42.625 C 134.615 43.110,134.119 44.175,134.225 44.281 C 134.260 44.316,134.386 44.098,134.504 43.797 C 134.623 43.496,134.899 43.006,135.118 42.708 C 135.602 42.051,135.502 41.983,134.997 42.625 M185.797 42.458 C 185.545 42.748,185.033 43.664,185.218 43.496 C 185.368 43.359,186.163 42.167,186.104 42.167 C 186.075 42.167,185.937 42.298,185.797 42.458 M15.833 43.197 C 15.421 43.573,15.233 43.802,15.417 43.705 C 15.730 43.539,16.814 42.492,16.656 42.507 C 16.616 42.511,16.246 42.821,15.833 43.197 M172.603 43.770 C 172.365 44.479,172.198 45.087,172.233 45.122 C 172.268 45.157,172.492 44.606,172.730 43.897 C 172.968 43.188,173.135 42.579,173.100 42.544 C 173.065 42.510,172.842 43.061,172.603 43.770 M176.188 43.438 C 175.989 43.957,175.854 44.410,175.889 44.444 C 175.923 44.479,176.114 44.082,176.313 43.563 C 176.511 43.043,176.646 42.590,176.611 42.556 C 176.577 42.521,176.386 42.918,176.188 43.438 M180.874 54.875 L 180.833 67.333 182.625 67.298 L 184.417 67.263 182.709 67.209 L 181.002 67.155 180.958 54.786 L 180.914 42.417 180.874 54.875 M240.582 43.375 C 240.362 43.856,240.141 44.587,240.091 45.000 C 240.007 45.690,240.019 45.673,240.246 44.793 C 240.381 44.267,240.645 43.536,240.832 43.168 C 241.020 42.801,241.130 42.500,241.078 42.500 C 241.025 42.500,240.802 42.894,240.582 43.375 M143.847 43.386 C 144.037 43.828,144.293 44.653,144.416 45.220 C 144.539 45.786,144.646 46.052,144.653 45.809 C 144.671 45.235,144.083 43.339,143.756 42.914 C 143.593 42.702,143.626 42.872,143.847 43.386 M353.209 43.417 C 353.211 43.783,353.245 43.914,353.285 43.706 C 353.324 43.499,353.323 43.199,353.281 43.040 C 353.239 42.880,353.207 43.050,353.209 43.417 M147.606 43.333 C 147.674 43.563,147.858 44.313,148.017 45.000 C 148.175 45.688,148.310 46.100,148.316 45.917 C 148.333 45.453,147.865 43.519,147.656 43.189 C 147.523 42.979,147.512 43.012,147.606 43.333 M263.146 43.925 C 262.962 44.341,262.835 44.748,262.864 44.827 C 262.893 44.907,263.076 44.566,263.270 44.070 C 263.699 42.974,263.612 42.872,263.146 43.925 M94.704 43.548 L 95.158 43.728 95.209 45.989 L 95.260 48.250 95.297 45.954 L 95.333 43.658 94.906 43.496 C 94.671 43.406,94.427 43.341,94.364 43.351 C 94.301 43.361,94.454 43.450,94.704 43.548 M164.333 43.375 C 164.333 43.581,165.373 46.182,165.432 46.123 C 165.466 46.089,165.266 45.468,164.986 44.742 C 164.514 43.515,164.333 43.137,164.333 43.375 M349.794 50.090 C 349.818 53.844,349.859 57.442,349.886 58.083 C 349.912 58.725,349.940 55.875,349.947 51.750 C 349.955 47.625,349.913 44.028,349.855 43.756 C 349.797 43.485,349.770 46.335,349.794 50.090 M160.913 43.958 C 160.977 44.119,161.180 44.649,161.364 45.137 C 161.548 45.624,161.733 45.989,161.774 45.949 C 161.862 45.861,161.003 43.667,160.881 43.667 C 160.835 43.667,160.850 43.798,160.913 43.958 M206.600 44.458 C 206.110 45.947,206.007 47.588,206.036 53.417 L 206.066 59.250 206.172 52.667 C 206.277 46.127,206.332 45.481,206.923 43.958 C 206.985 43.798,206.996 43.667,206.948 43.667 C 206.900 43.667,206.743 44.023,206.600 44.458 M4.370 45.938 C 4.338 47.850,4.370 48.155,4.625 48.355 C 4.882 48.556,4.892 48.552,4.714 48.323 C 4.585 48.157,4.491 47.272,4.458 45.906 L 4.406 43.750 4.370 45.938 M232.351 43.917 C 232.342 44.008,232.415 44.372,232.513 44.725 C 232.611 45.077,232.757 45.977,232.837 46.725 L 232.982 48.083 232.914 46.667 C 232.859 45.513,232.407 43.309,232.351 43.917 M272.960 43.951 C 273.168 43.991,273.468 43.990,273.627 43.948 C 273.786 43.906,273.617 43.874,273.250 43.875 C 272.883 43.877,272.753 43.911,272.960 43.951 M13.667 44.583 C 13.071 44.895,12.642 45.154,12.713 45.159 C 12.890 45.170,14.833 44.182,14.833 44.081 C 14.833 43.969,14.872 43.952,13.667 44.583 M274.708 44.115 C 274.869 44.157,275.131 44.157,275.292 44.115 C 275.452 44.073,275.321 44.039,275.000 44.039 C 274.679 44.039,274.548 44.073,274.708 44.115 M317.379 44.667 C 317.379 45.079,317.411 45.248,317.451 45.042 C 317.491 44.835,317.491 44.498,317.451 44.292 C 317.411 44.085,317.379 44.254,317.379 44.667 M284.333 45.413 L 284.333 46.659 281.125 46.709 L 277.917 46.758 281.208 46.795 L 284.500 46.833 284.500 45.500 C 284.500 44.767,284.462 44.167,284.417 44.167 C 284.371 44.167,284.333 44.728,284.333 45.413 M320.910 51.667 C 320.910 55.837,320.932 57.544,320.958 55.458 C 320.985 53.373,320.985 49.960,320.958 47.875 C 320.932 45.790,320.910 47.496,320.910 51.667 M353.410 51.667 C 353.410 55.837,353.432 57.544,353.458 55.458 C 353.485 53.373,353.485 49.960,353.458 47.875 C 353.432 45.790,353.410 47.496,353.410 51.667 M305.577 51.833 C 305.577 55.913,305.598 57.581,305.625 55.542 C 305.651 53.502,305.651 50.165,305.625 48.125 C 305.598 46.085,305.577 47.754,305.577 51.833 M361.440 45.035 C 361.384 45.245,361.344 45.567,361.352 45.750 C 361.360 45.933,361.435 45.791,361.519 45.433 C 361.682 44.741,361.612 44.392,361.440 45.035 M229.138 46.083 C 229.305 47.823,229.242 51.127,229.021 52.149 C 228.914 52.644,228.859 53.081,228.899 53.121 C 229.317 53.539,229.573 46.852,229.190 45.500 C 229.062 45.047,229.050 45.176,229.138 46.083 M249.739 45.235 C 250.214 46.689,250.224 50.126,249.758 52.333 C 249.710 52.563,249.784 52.413,249.923 52.000 C 250.451 50.434,250.373 45.957,249.805 45.156 C 249.672 44.969,249.658 44.986,249.739 45.235 M357.721 45.776 C 357.522 46.942,357.578 51.300,357.801 52.083 C 357.986 52.730,357.989 52.732,357.916 52.167 C 357.690 50.429,357.641 47.776,357.811 46.514 C 358.015 45.003,357.947 44.449,357.721 45.776 M297.209 45.750 C 297.211 46.117,297.245 46.247,297.285 46.040 C 297.324 45.832,297.323 45.532,297.281 45.373 C 297.239 45.214,297.207 45.383,297.209 45.750 M383.923 45.708 C 383.860 46.006,383.787 49.175,383.761 52.750 L 383.715 59.250 383.835 52.833 C 383.901 49.304,384.012 46.135,384.082 45.792 C 384.153 45.448,384.171 45.167,384.124 45.167 C 384.077 45.167,383.986 45.410,383.923 45.708 M10.616 45.773 C 10.491 45.898,10.628 46.167,10.815 46.167 C 10.886 46.167,10.944 46.054,10.944 45.917 C 10.944 45.655,10.798 45.591,10.616 45.773 M338.076 52.417 C 338.076 56.175,338.098 57.736,338.125 55.886 C 338.152 54.036,338.152 50.961,338.125 49.053 C 338.098 47.145,338.076 48.658,338.076 52.417 M239.872 46.333 C 239.872 46.654,239.906 46.785,239.948 46.625 C 239.990 46.465,239.990 46.202,239.948 46.042 C 239.906 45.881,239.872 46.012,239.872 46.333 M309.076 52.500 C 309.076 56.212,309.098 57.731,309.125 55.875 C 309.152 54.019,309.152 50.981,309.125 49.125 C 309.098 47.269,309.076 48.788,309.076 52.500 M372.167 46.333 L 372.167 46.833 366.762 46.833 L 361.357 46.833 361.284 46.458 C 361.222 46.137,361.209 46.149,361.189 46.542 L 361.167 47.000 366.750 47.000 L 372.333 47.000 372.333 46.417 C 372.333 46.096,372.296 45.833,372.250 45.833 C 372.204 45.833,372.167 46.058,372.167 46.333 M194.545 46.667 C 194.545 47.079,194.578 47.248,194.618 47.042 C 194.657 46.835,194.657 46.498,194.618 46.292 C 194.578 46.085,194.545 46.254,194.545 46.667 M329.576 52.667 C 329.576 56.288,329.598 57.769,329.625 55.958 C 329.652 54.148,329.652 51.185,329.625 49.375 C 329.598 47.565,329.576 49.046,329.576 52.667 M133.705 46.833 C 133.705 47.154,133.740 47.285,133.782 47.125 C 133.823 46.965,133.823 46.702,133.782 46.542 C 133.740 46.381,133.705 46.512,133.705 46.833 M144.720 47.333 C 144.720 47.929,144.750 48.173,144.787 47.875 C 144.824 47.577,144.824 47.090,144.787 46.792 C 144.750 46.494,144.720 46.737,144.720 47.333 M198.217 47.167 C 198.217 47.671,198.248 47.877,198.286 47.625 C 198.324 47.373,198.324 46.960,198.286 46.708 C 198.248 46.456,198.217 46.663,198.217 47.167 M148.399 48.750 C 148.399 50.033,148.426 50.536,148.457 49.868 C 148.489 49.199,148.489 48.149,148.457 47.534 C 148.425 46.920,148.399 47.467,148.399 48.750 M184.379 47.167 C 184.379 47.579,184.411 47.748,184.451 47.542 C 184.491 47.335,184.491 46.998,184.451 46.792 C 184.411 46.585,184.379 46.754,184.379 47.167 M297.076 52.833 C 297.076 56.362,297.098 57.806,297.125 56.042 C 297.152 54.277,297.152 51.390,297.125 49.625 C 297.098 47.860,297.076 49.304,297.076 52.833 M12.667 46.917 C 12.896 47.048,13.158 47.155,13.250 47.155 C 13.342 47.155,13.229 47.048,13.000 46.917 C 12.771 46.786,12.508 46.678,12.417 46.678 C 12.325 46.678,12.438 46.786,12.667 46.917 M107.077 46.874 C 107.032 46.990,107.016 49.822,107.042 53.167 L 107.088 59.250 107.127 53.042 L 107.167 46.833 114.331 46.833 L 121.496 46.833 121.543 53.042 L 121.590 59.250 121.586 53.000 L 121.583 46.750 114.370 46.707 C 108.676 46.672,107.141 46.708,107.077 46.874 M130.042 47.250 C 130.044 47.617,130.078 47.747,130.118 47.540 C 130.158 47.332,130.156 47.032,130.115 46.873 C 130.073 46.714,130.040 46.883,130.042 47.250 M218.232 48.833 C 218.232 50.071,218.258 50.577,218.290 49.958 C 218.322 49.340,218.322 48.327,218.290 47.708 C 218.258 47.090,218.232 47.596,218.232 48.833 M236.232 48.917 C 236.233 50.200,236.259 50.703,236.291 50.034 C 236.322 49.366,236.322 48.316,236.290 47.701 C 236.258 47.086,236.232 47.633,236.232 48.917 M174.685 47.352 C 174.583 47.646,174.528 47.917,174.563 47.952 C 174.599 47.988,174.712 47.776,174.815 47.481 C 174.917 47.187,174.972 46.917,174.937 46.881 C 174.901 46.845,174.788 47.057,174.685 47.352 M276.960 46.951 C 277.168 46.991,277.468 46.990,277.627 46.948 C 277.786 46.906,277.617 46.874,277.250 46.875 C 276.883 46.877,276.753 46.911,276.960 46.951 M214.563 48.833 C 214.563 49.887,214.590 50.319,214.623 49.792 C 214.656 49.265,214.656 48.402,214.623 47.875 C 214.590 47.348,214.563 47.779,214.563 48.833 M85.025 47.834 C 84.645 48.110,84.333 48.376,84.333 48.426 C 84.333 48.504,85.272 47.865,85.742 47.468 C 86.136 47.133,85.649 47.383,85.025 47.834 M375.864 48.458 L 375.833 49.500 368.475 49.500 L 361.117 49.500 361.217 50.797 C 361.272 51.511,361.398 52.279,361.497 52.506 L 361.676 52.917 361.587 52.500 C 361.539 52.271,361.451 51.540,361.392 50.875 L 361.284 49.667 368.564 49.667 C 376.725 49.667,376.059 49.789,375.957 48.313 L 375.895 47.417 375.864 48.458 M14.750 47.944 C 15.672 48.854,16.837 49.822,16.250 49.190 C 15.883 48.795,15.358 48.316,15.083 48.126 C 14.808 47.935,14.658 47.853,14.750 47.944 M170.687 49.353 C 170.403 50.200,170.199 50.921,170.234 50.956 C 170.269 50.991,170.529 50.327,170.813 49.480 C 171.097 48.633,171.301 47.912,171.266 47.877 C 171.231 47.843,170.971 48.507,170.687 49.353 M262.408 53.500 C 262.408 56.663,262.431 57.956,262.458 56.375 C 262.485 54.794,262.485 52.206,262.458 50.625 C 262.431 49.044,262.408 50.337,262.408 53.500 M272.699 48.775 L 271.917 49.549 272.750 48.830 C 273.208 48.434,273.615 48.085,273.653 48.055 C 273.691 48.025,273.668 48.000,273.601 48.000 C 273.535 48.000,273.129 48.349,272.699 48.775 M174.111 48.861 C 173.960 49.245,173.864 49.586,173.898 49.620 C 173.931 49.653,174.083 49.368,174.236 48.986 C 174.389 48.604,174.485 48.263,174.450 48.227 C 174.414 48.192,174.262 48.477,174.111 48.861 M233.039 48.833 C 233.039 49.154,233.073 49.285,233.115 49.125 C 233.157 48.965,233.157 48.702,233.115 48.542 C 233.073 48.381,233.039 48.512,233.039 48.833 M5.500 48.750 C 6.261 49.043,6.560 49.039,5.917 48.744 C 5.642 48.618,5.304 48.517,5.167 48.520 C 5.029 48.523,5.179 48.626,5.500 48.750 M83.491 49.125 L 82.917 49.750 83.542 49.176 C 83.885 48.860,84.167 48.578,84.167 48.551 C 84.167 48.423,84.026 48.543,83.491 49.125 M162.833 48.720 C 162.833 48.930,163.708 51.014,163.770 50.952 C 163.805 50.918,163.638 50.408,163.400 49.820 C 162.978 48.778,162.833 48.497,162.833 48.720 M92.500 49.250 C 92.271 49.381,92.158 49.488,92.250 49.488 C 92.342 49.488,92.604 49.381,92.833 49.250 C 93.063 49.119,93.175 49.012,93.083 49.012 C 92.992 49.012,92.729 49.119,92.500 49.250 M166.606 49.333 C 166.662 49.563,166.810 49.975,166.936 50.250 C 167.118 50.652,167.143 50.668,167.061 50.333 C 167.005 50.104,166.856 49.692,166.731 49.417 C 166.548 49.015,166.524 48.999,166.606 49.333 M284.392 50.500 C 284.392 51.279,284.420 51.598,284.455 51.208 C 284.490 50.819,284.490 50.181,284.455 49.792 C 284.420 49.402,284.392 49.721,284.392 50.500 M144.720 50.333 C 144.720 50.929,144.750 51.173,144.787 50.875 C 144.824 50.577,144.824 50.090,144.787 49.792 C 144.750 49.494,144.720 49.737,144.720 50.333 M198.218 50.250 C 198.219 50.800,198.250 51.005,198.287 50.705 C 198.325 50.406,198.324 49.956,198.286 49.705 C 198.248 49.455,198.217 49.700,198.218 50.250 M8.500 50.022 C 9.004 50.308,9.565 50.663,9.747 50.812 C 10.057 51.066,10.063 51.065,9.853 50.793 C 9.619 50.491,7.987 49.499,7.730 49.502 C 7.649 49.502,7.996 49.737,8.500 50.022 M232.864 50.268 C 232.847 50.645,232.797 51.320,232.753 51.768 L 232.672 52.583 232.843 51.917 C 232.936 51.550,232.987 50.875,232.954 50.417 C 232.899 49.639,232.893 49.629,232.864 50.268 M271.575 50.182 C 271.429 50.466,271.338 50.727,271.375 50.763 C 271.411 50.800,271.565 50.568,271.717 50.248 C 272.060 49.529,271.941 49.474,271.575 50.182 M130.042 50.417 C 130.044 50.783,130.078 50.914,130.118 50.706 C 130.158 50.499,130.156 50.199,130.115 50.040 C 130.073 49.880,130.040 50.050,130.042 50.417 M275.695 50.458 L 275.069 51.083 275.659 50.584 C 275.984 50.309,276.321 50.028,276.408 49.959 C 276.495 49.890,276.511 49.833,276.444 49.833 C 276.376 49.833,276.039 50.115,275.695 50.458 M184.379 50.833 C 184.379 51.246,184.411 51.415,184.451 51.208 C 184.491 51.002,184.491 50.665,184.451 50.458 C 184.411 50.252,184.379 50.421,184.379 50.833 M89.884 50.762 L 89.417 51.191 89.958 50.814 C 90.256 50.607,90.500 50.414,90.500 50.385 C 90.500 50.254,90.316 50.367,89.884 50.762 M133.705 50.833 C 133.705 51.154,133.740 51.285,133.782 51.125 C 133.823 50.965,133.823 50.702,133.782 50.542 C 133.740 50.381,133.705 50.512,133.705 50.833 M194.542 50.917 C 194.544 51.283,194.578 51.414,194.618 51.206 C 194.658 50.999,194.656 50.699,194.615 50.540 C 194.573 50.380,194.540 50.550,194.542 50.917 M239.872 51.333 C 239.872 51.654,239.906 51.785,239.948 51.625 C 239.990 51.465,239.990 51.202,239.948 51.042 C 239.906 50.881,239.872 51.012,239.872 51.333 M10.167 51.052 C 10.167 51.081,10.410 51.325,10.708 51.594 L 11.250 52.083 10.760 51.542 C 10.304 51.037,10.167 50.923,10.167 51.052 M144.523 51.755 C 144.510 51.942,144.394 52.504,144.264 53.005 C 144.134 53.506,144.054 53.943,144.087 53.976 C 144.212 54.101,144.687 52.150,144.618 51.792 C 144.553 51.458,144.543 51.454,144.523 51.755 M147.944 52.789 C 147.776 53.501,147.602 54.196,147.557 54.333 C 147.485 54.552,147.496 54.552,147.645 54.338 C 147.860 54.029,148.386 51.908,148.307 51.671 C 148.275 51.574,148.111 52.077,147.944 52.789 M270.941 52.120 C 270.884 52.466,270.847 53.163,270.858 53.667 C 270.876 54.401,270.906 54.286,271.012 53.086 C 271.151 51.514,271.117 51.053,270.941 52.120 M172.442 53.192 C 172.199 53.850,172.028 54.416,172.062 54.450 C 172.096 54.485,172.323 53.974,172.567 53.317 C 172.810 52.659,172.981 52.093,172.947 52.058 C 172.912 52.023,172.685 52.533,172.442 53.192 M284.031 52.630 C 283.919 53.003,283.559 53.707,283.231 54.194 C 282.875 54.724,282.777 54.952,282.988 54.760 C 283.419 54.371,284.394 52.433,284.301 52.153 C 284.264 52.042,284.142 52.257,284.031 52.630 M240.012 52.357 C 239.993 52.786,240.655 54.807,240.854 54.930 C 240.982 55.008,240.982 54.944,240.855 54.707 C 240.757 54.524,240.530 53.858,240.350 53.229 C 240.171 52.599,240.018 52.207,240.012 52.357 M274.542 52.750 C 274.544 53.117,274.578 53.247,274.618 53.040 C 274.658 52.832,274.656 52.532,274.615 52.373 C 274.573 52.214,274.540 52.383,274.542 52.750 M87.742 53.182 C 87.595 53.466,87.505 53.727,87.541 53.763 C 87.577 53.800,87.732 53.568,87.884 53.248 C 88.227 52.529,88.108 52.474,87.742 53.182 M164.563 53.083 C 164.945 54.181,165.563 55.659,165.617 55.605 C 165.688 55.534,164.691 52.963,164.542 52.833 C 164.490 52.788,164.499 52.900,164.563 53.083 M169.038 54.038 L 168.696 54.917 168.495 54.366 C 168.385 54.064,168.268 53.843,168.236 53.875 C 168.141 53.970,168.545 55.167,168.671 55.167 C 168.805 55.167,169.539 53.317,169.444 53.222 C 169.409 53.187,169.227 53.554,169.038 54.038 M81.441 53.953 C 81.384 54.300,81.346 54.883,81.357 55.250 C 81.370 55.686,81.426 55.489,81.520 54.679 C 81.671 53.373,81.618 52.883,81.441 53.953 M134.167 53.391 C 134.167 53.595,134.869 55.002,135.017 55.094 C 135.096 55.143,134.964 54.785,134.724 54.300 C 134.258 53.360,134.167 53.211,134.167 53.391 M236.685 53.917 C 236.683 54.100,236.788 54.475,236.917 54.750 L 237.153 55.250 237.052 54.750 C 236.996 54.475,236.891 54.100,236.819 53.917 L 236.688 53.583 236.685 53.917 M274.503 54.181 C 274.504 54.494,274.574 54.859,274.658 54.991 C 274.757 55.147,274.777 54.971,274.716 54.491 C 274.598 53.571,274.499 53.427,274.503 54.181 M18.212 54.500 C 18.212 54.913,18.245 55.081,18.284 54.875 C 18.324 54.669,18.324 54.331,18.284 54.125 C 18.245 53.919,18.212 54.087,18.212 54.500 M130.751 54.167 C 130.903 54.671,131.479 55.833,131.578 55.833 C 131.652 55.833,130.842 53.977,130.705 53.833 C 130.661 53.788,130.682 53.938,130.751 54.167 M372.022 54.292 C 371.825 54.748,371.826 54.748,372.120 54.390 C 372.283 54.192,372.567 53.994,372.750 53.951 C 373.015 53.888,372.995 53.868,372.652 53.853 C 372.330 53.838,372.170 53.950,372.022 54.292 M53.050 54.327 C 51.566 55.231,51.677 57.659,53.236 58.399 C 55.201 59.331,57.195 57.265,56.251 55.276 C 55.692 54.097,54.167 53.645,53.050 54.327 M219.000 54.059 C 219.000 54.536,220.704 56.500,221.118 56.500 C 221.186 56.500,220.952 56.261,220.597 55.968 C 220.243 55.676,219.738 55.099,219.476 54.686 C 219.214 54.273,219.000 53.991,219.000 54.059 M373.673 54.241 C 373.997 54.360,374.522 54.503,374.839 54.558 C 375.157 54.613,374.967 54.511,374.417 54.331 C 373.305 53.968,372.749 53.900,373.673 54.241 M193.676 54.643 C 193.443 55.206,192.456 56.187,191.750 56.558 C 191.475 56.702,191.332 56.823,191.433 56.827 C 192.023 56.848,194.000 54.909,194.000 54.308 C 194.000 54.038,193.873 54.169,193.676 54.643 M215.345 54.250 C 215.345 54.342,215.452 54.604,215.583 54.833 C 215.714 55.063,215.822 55.175,215.822 55.083 C 215.822 54.992,215.714 54.729,215.583 54.500 C 215.452 54.271,215.345 54.158,215.345 54.250 M12.362 54.500 C 12.370 54.933,12.633 55.644,12.638 55.250 C 12.641 55.067,12.579 54.767,12.500 54.583 C 12.412 54.379,12.359 54.347,12.362 54.500 M185.350 54.667 C 185.721 55.481,187.340 56.882,187.604 56.618 C 187.644 56.578,187.451 56.451,187.174 56.336 C 186.706 56.143,185.869 55.322,185.372 54.570 C 185.191 54.297,185.188 54.311,185.350 54.667 M197.000 55.588 C 196.679 56.258,196.501 56.736,196.603 56.650 C 196.811 56.477,197.729 54.505,197.640 54.422 C 197.609 54.393,197.321 54.918,197.000 55.588 M248.438 54.933 C 248.175 55.263,247.616 55.751,247.197 56.017 C 246.778 56.282,246.508 56.500,246.597 56.500 C 246.971 56.500,248.544 55.193,248.853 54.625 C 249.098 54.175,248.963 54.276,248.438 54.933 M362.298 54.583 C 362.747 55.408,364.143 56.522,365.000 56.740 C 365.229 56.799,365.026 56.652,364.549 56.414 C 364.071 56.176,363.329 55.592,362.898 55.116 C 362.468 54.639,362.198 54.400,362.298 54.583 M271.003 55.014 C 271.004 55.235,271.079 55.529,271.169 55.667 C 271.284 55.843,271.301 55.744,271.226 55.333 C 271.094 54.615,270.999 54.479,271.003 55.014 M227.498 55.585 C 227.282 55.815,226.725 56.193,226.261 56.425 C 225.797 56.657,225.604 56.797,225.833 56.737 C 226.536 56.554,228.427 55.167,227.975 55.167 C 227.929 55.167,227.714 55.355,227.498 55.585 M282.163 55.421 C 282.047 55.561,281.419 55.940,280.768 56.264 C 280.116 56.588,279.771 56.803,280.000 56.741 C 280.861 56.509,282.961 55.167,282.463 55.167 C 282.414 55.167,282.279 55.281,282.163 55.421 M371.020 55.562 C 370.816 55.780,370.352 56.091,369.989 56.255 C 369.627 56.418,369.361 56.583,369.399 56.621 C 369.525 56.748,370.745 56.038,371.154 55.600 C 371.376 55.361,371.521 55.167,371.475 55.167 C 371.429 55.167,371.224 55.345,371.020 55.562 M374.831 55.672 C 374.608 56.211,373.221 57.729,372.500 58.224 C 372.095 58.502,372.095 58.504,372.482 58.319 C 373.420 57.873,375.424 55.535,375.126 55.237 C 375.081 55.192,374.949 55.388,374.831 55.672 M135.406 55.647 C 135.823 56.118,136.821 56.734,136.953 56.602 C 137.010 56.546,136.974 56.500,136.874 56.500 C 136.774 56.500,136.330 56.226,135.888 55.891 C 135.445 55.557,135.228 55.447,135.406 55.647 M216.051 55.762 C 216.194 56.044,216.438 56.379,216.593 56.508 C 216.747 56.636,216.673 56.445,216.427 56.083 C 215.847 55.228,215.728 55.127,216.051 55.762 M241.418 55.643 C 241.768 56.057,242.838 56.669,243.202 56.663 C 243.320 56.661,243.079 56.506,242.667 56.319 C 242.254 56.132,241.730 55.815,241.501 55.615 L 241.086 55.250 241.418 55.643 M275.030 55.667 C 275.302 56.112,276.262 56.838,276.566 56.827 C 276.667 56.823,276.525 56.705,276.250 56.564 C 275.975 56.422,275.531 56.069,275.263 55.779 C 274.886 55.369,274.834 55.344,275.030 55.667 M283.930 56.042 C 283.483 56.749,283.483 56.750,283.907 56.250 C 284.141 55.975,284.333 55.675,284.335 55.583 C 284.337 55.492,284.411 55.529,284.500 55.667 C 284.638 55.880,284.662 55.874,284.664 55.625 C 284.668 55.142,284.403 55.293,283.930 56.042 M142.534 55.905 C 141.760 56.452,141.651 56.609,142.304 56.234 C 142.609 56.060,142.937 55.823,143.033 55.708 C 143.280 55.414,143.164 55.459,142.534 55.905 M231.179 56.063 C 230.832 56.624,229.791 57.651,229.000 58.212 L 228.583 58.508 229.086 58.270 C 229.623 58.016,231.152 56.483,231.480 55.871 C 231.789 55.293,231.567 55.435,231.179 56.063 M249.789 56.043 L 249.495 56.583 249.831 56.190 L 250.167 55.796 250.163 57.690 C 250.161 58.731,250.057 60.071,249.931 60.667 C 249.672 61.892,249.711 62.185,250.005 61.224 C 250.241 60.452,250.435 55.500,250.229 55.501 C 250.149 55.502,249.951 55.745,249.789 56.043 M359.188 55.829 C 359.481 56.443,361.006 57.998,361.581 58.270 L 362.083 58.508 361.667 58.219 C 361.131 57.848,359.655 56.373,359.280 55.833 L 358.990 55.417 359.188 55.829 M18.387 56.833 C 18.387 57.429,18.417 57.673,18.454 57.375 C 18.491 57.077,18.491 56.590,18.454 56.292 C 18.417 55.994,18.387 56.237,18.387 56.833 M146.122 56.736 C 145.784 57.140,145.131 57.716,144.670 58.014 C 143.755 58.607,143.569 58.813,144.292 58.435 C 144.921 58.105,146.083 57.086,146.506 56.492 C 147.020 55.770,146.827 55.893,146.122 56.736 M12.720 57.167 C 12.720 57.762,12.750 58.006,12.787 57.708 C 12.824 57.410,12.824 56.923,12.787 56.625 C 12.750 56.327,12.720 56.571,12.720 57.167 M132.667 57.227 C 133.227 57.845,134.355 58.672,134.622 58.661 C 134.692 58.659,134.461 58.478,134.107 58.261 C 133.754 58.044,133.154 57.577,132.774 57.225 L 132.084 56.583 132.667 57.227 M248.906 57.189 C 248.637 57.476,248.083 57.926,247.676 58.189 C 247.268 58.452,247.013 58.667,247.109 58.667 C 247.352 58.667,248.486 57.813,249.073 57.188 C 249.342 56.901,249.525 56.667,249.479 56.667 C 249.433 56.667,249.175 56.902,248.906 57.189 M170.529 58.196 C 170.243 58.949,170.036 59.592,170.070 59.625 C 170.103 59.658,170.365 59.071,170.652 58.319 C 170.939 57.567,171.146 56.924,171.112 56.889 C 171.077 56.855,170.815 57.443,170.529 58.196 M282.500 57.694 C 281.996 58.160,281.733 58.462,281.917 58.367 C 282.231 58.203,283.654 56.825,283.492 56.841 C 283.451 56.845,283.004 57.229,282.500 57.694 M290.829 56.943 C 290.923 56.990,291.000 57.465,291.000 58.000 C 291.000 58.535,290.923 59.010,290.829 59.057 C 290.735 59.104,290.754 59.122,290.871 59.099 C 291.016 59.069,291.083 58.722,291.083 58.000 C 291.083 57.278,291.016 56.931,290.871 56.901 C 290.754 56.878,290.735 56.896,290.829 56.943 M367.542 56.948 C 367.702 56.990,367.965 56.990,368.125 56.948 C 368.285 56.906,368.154 56.872,367.833 56.872 C 367.512 56.872,367.381 56.906,367.542 56.948 M195.500 57.750 C 195.095 58.163,194.801 58.500,194.847 58.500 C 194.893 58.500,195.262 58.163,195.667 57.750 C 196.072 57.337,196.365 57.000,196.319 57.000 C 196.274 57.000,195.905 57.337,195.500 57.750 M217.368 57.430 C 217.615 57.699,218.065 58.061,218.368 58.233 C 219.014 58.603,218.883 58.466,217.750 57.587 C 217.068 57.057,216.998 57.029,217.368 57.430 M185.500 57.728 C 185.821 58.076,186.233 58.440,186.417 58.536 C 186.600 58.633,186.713 58.677,186.667 58.634 C 185.601 57.643,184.970 57.153,185.500 57.728 M272.188 57.628 C 272.396 57.927,272.758 58.288,272.992 58.429 L 273.417 58.686 273.058 58.371 C 272.860 58.198,272.499 57.837,272.254 57.570 L 271.809 57.083 272.188 57.628 M238.475 57.543 C 238.758 57.896,240.163 58.834,240.404 58.831 C 240.502 58.829,240.307 58.660,239.970 58.456 C 239.632 58.251,239.107 57.899,238.803 57.673 C 238.499 57.448,238.351 57.389,238.475 57.543 M166.432 57.750 C 166.488 57.933,166.609 58.290,166.700 58.542 C 166.814 58.855,166.808 59.167,166.682 59.527 C 166.581 59.817,166.531 60.087,166.571 60.127 C 166.909 60.464,167.002 58.816,166.683 58.152 C 166.488 57.748,166.375 57.567,166.432 57.750 M285.005 57.622 C 285.002 57.736,285.206 58.039,285.458 58.297 C 285.710 58.555,285.796 58.612,285.648 58.425 C 285.500 58.237,285.296 57.933,285.194 57.750 C 285.093 57.567,285.008 57.509,285.005 57.622 M81.387 58.667 C 81.387 59.262,81.417 59.506,81.454 59.208 C 81.491 58.910,81.491 58.423,81.454 58.125 C 81.417 57.827,81.387 58.071,81.387 58.667 M18.223 59.500 C 18.223 60.188,18.252 60.469,18.288 60.125 C 18.324 59.781,18.324 59.219,18.288 58.875 C 18.252 58.531,18.223 58.813,18.223 59.500 M87.048 59.250 C 87.049 59.708,87.081 59.876,87.120 59.623 C 87.158 59.369,87.157 58.994,87.117 58.789 C 87.078 58.584,87.046 58.792,87.048 59.250 M12.553 60.333 C 12.553 60.929,12.584 61.173,12.621 60.875 C 12.658 60.577,12.658 60.090,12.621 59.792 C 12.584 59.494,12.553 59.737,12.553 60.333 M137.259 59.522 C 137.529 59.580,138.387 59.627,139.167 59.627 C 139.946 59.627,140.804 59.580,141.074 59.522 C 141.344 59.464,140.485 59.417,139.167 59.417 C 137.848 59.417,136.990 59.464,137.259 59.522 M189.093 59.522 C 189.363 59.580,190.071 59.627,190.667 59.627 C 191.262 59.627,191.971 59.580,192.241 59.522 C 192.510 59.464,191.802 59.417,190.667 59.417 C 189.531 59.417,188.823 59.464,189.093 59.522 M221.934 59.532 C 222.291 59.596,223.108 59.647,223.750 59.647 C 224.392 59.647,225.209 59.596,225.566 59.532 C 225.942 59.465,225.177 59.417,223.750 59.417 C 222.323 59.417,221.558 59.465,221.934 59.532 M253.548 60.083 C 253.549 60.542,253.581 60.709,253.620 60.456 C 253.658 60.203,253.657 59.828,253.617 59.623 C 253.578 59.418,253.546 59.625,253.548 60.083 M275.533 59.525 C 276.020 59.663,278.261 59.661,278.908 59.522 C 279.178 59.464,278.443 59.417,277.274 59.417 C 276.106 59.417,275.322 59.465,275.533 59.525 M288.044 59.453 C 288.297 59.491,288.672 59.490,288.877 59.451 C 289.082 59.411,288.875 59.380,288.417 59.381 C 287.958 59.382,287.791 59.415,288.044 59.453 M365.101 59.532 C 365.893 59.673,368.401 59.666,369.074 59.522 C 369.344 59.464,368.414 59.417,367.008 59.417 C 365.547 59.417,364.730 59.466,365.101 59.532 M81.555 61.083 C 81.555 61.725,81.586 61.967,81.622 61.621 C 81.658 61.275,81.657 60.750,81.620 60.455 C 81.583 60.159,81.554 60.442,81.555 61.083 M87.224 61.750 C 87.224 62.483,87.254 62.763,87.289 62.371 C 87.324 61.979,87.324 61.379,87.288 61.037 C 87.252 60.696,87.223 61.017,87.224 61.750 M18.053 62.000 C 18.053 62.596,18.084 62.840,18.121 62.542 C 18.158 62.244,18.158 61.756,18.121 61.458 C 18.084 61.160,18.053 61.404,18.053 62.000 M168.785 62.256 C 168.446 62.940,168.205 63.500,168.249 63.500 C 168.361 63.500,169.535 61.146,169.461 61.072 C 169.428 61.039,169.124 61.572,168.785 62.256 M253.271 61.521 C 253.132 62.216,253.267 62.350,253.417 61.667 C 253.480 61.379,253.497 61.108,253.455 61.066 C 253.412 61.023,253.329 61.228,253.271 61.521 M12.390 62.917 C 12.391 63.650,12.420 63.929,12.456 63.537 C 12.491 63.145,12.490 62.545,12.454 62.204 C 12.419 61.863,12.390 62.183,12.390 62.917 M165.108 62.511 C 164.761 62.975,164.130 63.575,163.706 63.844 C 163.282 64.113,163.013 64.333,163.109 64.333 C 163.556 64.333,164.994 63.048,165.580 62.125 C 166.051 61.384,165.789 61.598,165.108 62.511 M238.302 61.895 C 236.949 62.124,236.918 62.152,237.240 62.856 C 237.466 63.350,237.450 63.016,237.218 62.398 C 237.075 62.016,240.343 61.731,240.631 62.100 C 240.861 62.394,240.871 62.395,240.772 62.111 C 240.714 61.943,240.667 61.775,240.667 61.736 C 240.667 61.617,239.468 61.697,238.302 61.895 M241.417 63.313 C 241.925 63.872,242.798 64.424,242.945 64.278 C 242.989 64.233,242.861 64.145,242.661 64.081 C 242.460 64.018,241.986 63.695,241.607 63.364 C 240.921 62.766,240.920 62.766,241.417 63.313 M81.718 63.917 C 81.719 64.467,81.750 64.672,81.787 64.372 C 81.825 64.072,81.824 63.622,81.786 63.372 C 81.748 63.122,81.717 63.367,81.718 63.917 M248.348 63.565 C 248.242 63.693,247.931 63.891,247.656 64.005 C 247.381 64.118,247.189 64.244,247.229 64.285 C 247.336 64.392,248.239 63.898,248.491 63.594 C 248.610 63.451,248.670 63.333,248.624 63.333 C 248.578 63.333,248.454 63.438,248.348 63.565 M87.387 64.500 C 87.387 65.096,87.417 65.340,87.454 65.042 C 87.491 64.744,87.491 64.256,87.454 63.958 C 87.417 63.660,87.387 63.904,87.387 64.500 M17.898 65.833 C 17.898 66.979,17.924 67.448,17.957 66.875 C 17.989 66.302,17.989 65.365,17.957 64.792 C 17.924 64.219,17.898 64.688,17.898 65.833 M251.500 64.818 C 250.996 65.341,250.396 65.900,250.167 66.059 C 249.801 66.312,249.818 66.311,250.310 66.049 C 250.915 65.725,252.087 64.627,252.349 64.137 C 252.577 63.711,252.529 63.749,251.500 64.818 M244.625 64.621 C 244.923 64.658,245.410 64.658,245.708 64.621 C 246.006 64.584,245.762 64.553,245.167 64.553 C 244.571 64.553,244.327 64.584,244.625 64.621 M12.230 66.583 C 12.231 67.683,12.258 68.112,12.290 67.535 C 12.323 66.959,12.323 66.059,12.290 65.535 C 12.257 65.012,12.230 65.483,12.230 66.583 M166.658 65.458 L 166.083 66.083 166.708 65.509 C 167.290 64.974,167.410 64.833,167.283 64.833 C 167.255 64.833,166.974 65.115,166.658 65.458 M238.485 65.056 C 238.615 65.217,238.952 65.511,239.235 65.710 C 239.620 65.979,239.691 65.997,239.515 65.777 C 239.385 65.616,239.048 65.322,238.765 65.124 C 238.380 64.854,238.309 64.837,238.485 65.056 M164.109 66.946 C 164.047 67.009,163.266 67.114,162.373 67.182 L 160.750 67.304 162.333 67.269 C 163.204 67.250,164.067 67.147,164.250 67.039 C 164.433 66.931,164.502 66.841,164.403 66.838 C 164.303 66.836,164.171 66.884,164.109 66.946 M242.083 66.996 C 242.402 67.137,243.464 67.232,243.319 67.107 C 243.281 67.073,242.912 67.002,242.500 66.947 C 241.999 66.881,241.861 66.897,242.083 66.996 M247.619 66.937 C 247.562 66.993,246.594 67.100,245.466 67.174 L 243.417 67.307 245.417 67.255 C 247.021 67.214,249.061 66.887,247.986 66.844 C 247.841 66.838,247.676 66.880,247.619 66.937 M81.709 67.583 C 81.711 67.950,81.745 68.080,81.785 67.873 C 81.824 67.666,81.823 67.366,81.781 67.206 C 81.739 67.047,81.707 67.217,81.709 67.583 M87.379 68.667 C 87.379 69.079,87.411 69.248,87.451 69.042 C 87.491 68.835,87.491 68.498,87.451 68.292 C 87.411 68.085,87.379 68.254,87.379 68.667 M18.036 68.417 C 18.038 68.600,18.097 68.975,18.167 69.250 C 18.281 69.699,18.294 69.708,18.297 69.333 C 18.299 69.104,18.240 68.729,18.167 68.500 C 18.062 68.174,18.034 68.155,18.036 68.417 M12.375 69.417 C 12.377 69.783,12.411 69.914,12.451 69.706 C 12.491 69.499,12.490 69.199,12.448 69.040 C 12.406 68.880,12.374 69.050,12.375 69.417 M79.573 72.708 L 79.083 73.250 79.625 72.760 C 80.130 72.304,80.243 72.167,80.115 72.167 C 80.086 72.167,79.842 72.410,79.573 72.708 M19.948 72.685 C 20.149 72.904,20.562 73.226,20.865 73.401 C 21.559 73.800,21.466 73.699,20.417 72.912 C 19.926 72.544,19.733 72.450,19.948 72.685 M85.833 74.167 C 85.646 74.533,85.531 74.833,85.577 74.833 C 85.622 74.833,85.813 74.533,86.000 74.167 C 86.187 73.800,86.303 73.500,86.257 73.500 C 86.211 73.500,86.020 73.800,85.833 74.167 M74.375 74.782 C 74.535 74.823,74.798 74.823,74.958 74.782 C 75.119 74.740,74.987 74.705,74.667 74.705 C 74.346 74.705,74.215 74.740,74.375 74.782 M84.333 76.250 C 83.928 76.662,83.635 77.000,83.681 77.000 C 83.726 77.000,84.095 76.662,84.500 76.250 C 84.905 75.837,85.199 75.500,85.153 75.500 C 85.107 75.500,84.738 75.837,84.333 76.250 M73.061 77.917 C 73.061 78.833,73.089 79.187,73.123 78.703 C 73.157 78.218,73.156 77.468,73.122 77.036 C 73.088 76.604,73.060 77.000,73.061 77.917 M82.867 77.405 C 82.093 77.952,81.984 78.109,82.638 77.734 C 82.943 77.560,83.271 77.323,83.367 77.208 C 83.613 76.914,83.497 76.959,82.867 77.405 M81.333 78.250 C 81.104 78.381,80.992 78.488,81.083 78.488 C 81.175 78.488,81.438 78.381,81.667 78.250 C 81.896 78.119,82.008 78.012,81.917 78.012 C 81.825 78.012,81.563 78.119,81.333 78.250 M20.583 79.167 C 20.767 79.245,21.067 79.308,21.250 79.305 C 21.518 79.301,21.502 79.274,21.167 79.167 C 20.597 78.984,20.159 78.984,20.583 79.167 M26.519 79.364 C 26.504 79.718,26.404 79.826,26.042 79.881 L 25.583 79.950 26.047 79.975 C 26.540 80.002,26.748 79.725,26.617 79.218 C 26.564 79.016,26.532 79.064,26.519 79.364 M24.542 79.782 C 24.702 79.823,24.965 79.823,25.125 79.782 C 25.285 79.740,25.154 79.705,24.833 79.705 C 24.512 79.705,24.381 79.740,24.542 79.782 M74.627 79.785 C 74.834 79.824,75.134 79.823,75.294 79.781 C 75.453 79.739,75.283 79.707,74.917 79.709 C 74.550 79.711,74.420 79.745,74.627 79.785 M73.375 79.948 C 73.535 79.990,73.798 79.990,73.958 79.948 C 74.119 79.906,73.987 79.872,73.667 79.872 C 73.346 79.872,73.215 79.906,73.375 79.948 " stroke="none" fill="#3948ab" fill-rule="evenodd"></path></g></svg>
