<?xml version="1.0" encoding="UTF-8" standalone="no"?>
<svg
   xmlns:dc="http://purl.org/dc/elements/1.1/"
   xmlns:cc="http://creativecommons.org/ns#"
   xmlns:rdf="http://www.w3.org/1999/02/22-rdf-syntax-ns#"
   xmlns:svg="http://www.w3.org/2000/svg"
   xmlns="http://www.w3.org/2000/svg"
   height="100"
   width="100"
   xml:space="preserve"
   viewBox="0 0 100 100"
   version="1.1"
   id="Lager_1"><metadata
     id="metadata3815"><rdf:RDF><cc:Work
         rdf:about=""><dc:format>image/svg+xml</dc:format><dc:type
           rdf:resource="http://purl.org/dc/dcmitype/StillImage" /><dc:title></dc:title></cc:Work></rdf:RDF></metadata><defs
     id="defs3813" /><style
     id="style3800"
     type="text/css">
	.st0{fill:#1a237e;}
	.st1{fill:#bf360c;}
</style><path
     style="fill:#1a237e"
     id="path3802"
     d="M 50,0 C 22.4,0 0,22.4 0,50 0,77.6 22.4,100 50,100 77.6,100 100,77.6 100,50 100,22.4 77.6,0 50,0 Z"
     class="st0" /><g
     transform="translate(-14,-14)"
     id="g3808"><path
       style="fill:#bf360c"
       id="path3804"
       d="m 64,95.9 c -0.9,0 -1.7,-0.2 -2.5,-0.7 l -7.8,-4.6 c -1.2,-0.7 -0.6,-0.9 -0.2,-1 1.6,-0.6 1.9,-0.7 3.5,-1.6 0.2,-0.1 0.4,-0.1 0.6,0.1 l 6,3.6 c 0.2,0.1 0.5,0.1 0.7,0 L 87.7,78.2 c 0.2,-0.1 0.4,-0.4 0.4,-0.6 v -27 C 88.1,50.3 88,50.1 87.7,50 L 64.4,36.4 c -0.2,-0.1 -0.5,-0.1 -0.7,0 L 40.3,49.8 c -0.2,0.1 -0.4,0.4 -0.4,0.6 v 27 c 0,0.2 0.1,0.5 0.4,0.6 l 6.4,3.7 c 3.5,1.7 5.6,-0.3 5.6,-2.4 V 52.8 c 0,-0.4 0.3,-0.7 0.7,-0.7 h 3 c 0.4,0 0.7,0.3 0.7,0.7 v 26.6 c 0,4.7 -2.5,7.3 -6.9,7.3 -1.4,0 -2.4,0 -5.4,-1.5 l -6.1,-3.5 c -1.5,-0.9 -2.5,-2.5 -2.5,-4.3 v -27 c 0,-1.7 0.9,-3.4 2.5,-4.3 L 61.7,32.6 c 1.5,-0.8 3.5,-0.8 4.9,0 L 90,46.1 c 1.5,0.9 2.5,2.5 2.5,4.3 v 27 c 0,1.7 -0.9,3.4 -2.5,4.3 L 66.5,95.3 c -0.8,0.4 -1.6,0.6 -2.5,0.6 z"
       class="st1" /><path
       style="fill:#bf360c"
       id="path3806"
       d="m 71.3,77.3 c -10.2,0 -12.4,-4.7 -12.4,-8.6 0,-0.4 0.3,-0.7 0.7,-0.7 h 3 c 0.3,0 0.6,0.2 0.7,0.6 0.4,3.1 1.8,4.6 8,4.6 4.9,0 7,-1.1 7,-3.7 0,-1.5 -0.6,-2.6 -8.3,-3.4 -6.4,-0.6 -10.4,-2 -10.4,-7.2 0,-4.7 4,-7.5 10.7,-7.5 7.5,0 11.2,2.6 11.7,8.2 0,0.2 -0.1,0.4 -0.2,0.5 -0.1,0.1 -0.3,0.2 -0.5,0.2 h -3 c -0.3,0 -0.6,-0.2 -0.7,-0.5 -0.7,-3.2 -2.5,-4.3 -7.3,-4.3 -5.4,0 -6,1.9 -6,3.3 0,1.7 0.7,2.2 8,3.2 7.2,0.9 10.6,2.3 10.6,7.3 0,5.1 -4.2,8 -11.6,8 z"
       class="st1" /></g></svg>
