<?xml version="1.0" encoding="UTF-8" standalone="no"?>
<svg
   xmlns:dc="http://purl.org/dc/elements/1.1/"
   xmlns:cc="http://creativecommons.org/ns#"
   xmlns:rdf="http://www.w3.org/1999/02/22-rdf-syntax-ns#"
   xmlns:svg="http://www.w3.org/2000/svg"
   xmlns="http://www.w3.org/2000/svg"
   xmlns:sodipodi="http://sodipodi.sourceforge.net/DTD/sodipodi-0.dtd"
   xmlns:inkscape="http://www.inkscape.org/namespaces/inkscape"
   id="svg"
   width="400"
   height="400"
   viewBox="0 0 400 400"
   version="1.1"
   sodipodi:docname="pncandroid.svg"
   inkscape:version="0.92.4 (5da689c313, 2019-01-14)">
  <metadata
     id="metadata82">
    <rdf:RDF>
      <cc:Work
         rdf:about="">
        <dc:format>image/svg+xml</dc:format>
        <dc:type
           rdf:resource="http://purl.org/dc/dcmitype/StillImage" />
        <dc:title></dc:title>
      </cc:Work>
    </rdf:RDF>
  </metadata>
  <defs
     id="defs80" />
  <sodipodi:namedview
     pagecolor="#ffffff"
     bordercolor="#666666"
     borderopacity="1"
     objecttolerance="10"
     gridtolerance="10"
     guidetolerance="10"
     inkscape:pageopacity="0"
     inkscape:pageshadow="2"
     inkscape:window-width="1530"
     inkscape:window-height="836"
     id="namedview78"
     showgrid="false"
     inkscape:zoom="1.1596551"
     inkscape:cx="387.04939"
     inkscape:cy="189.37909"
     inkscape:window-x="70"
     inkscape:window-y="27"
     inkscape:window-maximized="1"
     inkscape:current-layer="svg" />
  <g
     id="svgg">
    <path
       id="path0"
       d="m 145,94.261 c -1.282,0.162 -5.07,1.946 -6.24,2.939 -3.032,2.573 -5.075,4.949 -5.418,6.3 -0.126,0.495 -0.396,0.9 -0.6,0.9 -0.204,0 -0.727,0.765 -1.162,1.7 -0.435,0.935 -1.227,2.42 -1.758,3.3 -0.532,0.88 -1.243,2.14 -1.581,2.8 -0.337,0.66 -1.071,1.92 -1.631,2.8 -0.561,0.88 -1.386,2.32 -1.836,3.2 -0.449,0.88 -1.34,2.41 -1.98,3.4 -0.64,0.99 -1.448,2.424 -1.795,3.186 -0.346,0.762 -0.758,1.482 -0.915,1.6 -0.156,0.118 -0.603,0.844 -0.992,1.614 -0.39,0.77 -1.144,2.12 -1.675,3 -1.707,2.824 -2.57,4.361 -3.407,6.068 -0.451,0.918 -0.952,1.728 -1.115,1.8 -0.162,0.073 -0.611,0.762 -0.998,1.532 -1.116,2.224 -3.654,6.653 -4.155,7.252 -0.252,0.302 -0.749,1.178 -1.103,1.948 -0.355,0.77 -1.087,2.12 -1.628,3 -0.54,0.88 -1.256,2.173 -1.591,2.873 -0.334,0.7 -0.793,1.387 -1.02,1.527 -0.227,0.14 -0.687,0.827 -1.024,1.527 -0.336,0.7 -1.136,2.173 -1.776,3.273 -0.64,1.1 -1.45,2.54 -1.798,3.2 -0.349,0.66 -1.07,1.92 -1.601,2.8 -0.532,0.88 -1.342,2.32 -1.801,3.2 -0.459,0.88 -1.231,2.257 -1.717,3.061 -0.486,0.803 -1.587,2.693 -2.447,4.2 -0.86,1.506 -1.895,3.168 -2.3,3.693 -0.405,0.525 -0.736,1.23 -0.736,1.568 0,0.338 -0.287,0.932 -0.637,1.319 -0.646,0.713 -0.937,1.209 -3.262,5.553 -3.49,6.519 -3.757,14.469 -0.621,18.493 0.22,0.282 0.677,1.053 1.016,1.713 1.568,3.057 2.311,4.345 2.854,4.948 0.323,0.358 0.711,1.147 0.862,1.752 0.151,0.605 0.43,1.1 0.62,1.1 0.189,0 0.804,0.971 1.365,2.157 0.561,1.186 1.423,2.761 1.915,3.5 0.493,0.739 1.127,1.793 1.411,2.343 0.284,0.55 0.956,1.72 1.494,2.6 0.538,0.88 1.301,2.23 1.697,3 0.878,1.71 2.297,4.038 2.84,4.659 0.22,0.253 0.68,1.063 1.02,1.8 0.34,0.738 1.156,2.241 1.813,3.341 0.656,1.1 1.474,2.54 1.817,3.2 0.343,0.66 1.061,1.92 1.595,2.8 1.752,2.887 4.726,8.013 5.569,9.6 0.351,0.66 1.08,1.92 1.621,2.8 0.54,0.88 1.27,2.14 1.621,2.8 0.351,0.66 1.171,2.1 1.822,3.2 0.65,1.1 1.447,2.573 1.769,3.273 0.323,0.7 0.772,1.387 0.999,1.527 0.227,0.14 0.686,0.827 1.02,1.527 0.335,0.7 1.051,1.993 1.593,2.873 0.542,0.88 1.354,2.32 1.806,3.2 0.452,0.88 1.435,2.59 2.186,3.8 0.75,1.21 1.371,2.403 1.379,2.651 0.009,0.248 0.296,0.684 0.639,0.968 0.343,0.285 0.89,1.072 1.216,1.749 0.913,1.899 1.924,3.747 2.476,4.525 0.606,0.854 1.812,3.029 2.676,4.824 0.349,0.725 0.899,1.419 1.222,1.543 0.323,0.124 0.587,0.404 0.587,0.622 0,0.898 3.014,3.345 5.6,4.547 0.77,0.358 1.67,0.889 2,1.179 2.37,2.089 112.308,2.114 114.8,0.026 0.33,-0.276 1.202,-0.741 1.939,-1.033 1.718,-0.68 6.129,-5.021 7.333,-7.214 0.51,-0.931 1.198,-2.168 1.528,-2.749 0.33,-0.582 1.5,-2.647 2.6,-4.589 1.1,-1.942 2.399,-4.188 2.886,-4.99 0.487,-0.803 1.159,-2.032 1.494,-2.732 0.334,-0.7 0.785,-1.382 1.003,-1.516 0.217,-0.134 0.755,-1.002 1.196,-1.928 0.44,-0.925 0.979,-1.953 1.197,-2.283 0.218,-0.33 0.987,-1.651 1.71,-2.936 0.723,-1.284 1.713,-2.994 2.2,-3.8 0.487,-0.805 1.182,-2.094 1.545,-2.864 0.362,-0.77 0.797,-1.49 0.967,-1.6 0.169,-0.11 0.644,-0.863 1.055,-1.674 1.232,-2.431 3.825,-6.861 4.611,-7.88 0.405,-0.525 0.736,-1.268 0.736,-1.651 0,-0.383 0.28,-0.93 0.623,-1.214 0.343,-0.285 0.889,-1.072 1.214,-1.749 0.325,-0.678 0.99,-1.888 1.477,-2.691 0.487,-0.802 1.786,-3.031 2.886,-4.952 1.1,-1.921 2.399,-4.145 2.886,-4.941 0.487,-0.796 1.17,-1.988 1.517,-2.648 0.346,-0.66 1.147,-2.1 1.779,-3.2 0.631,-1.1 1.442,-2.54 1.801,-3.2 0.359,-0.66 1.177,-2.1 1.817,-3.2 0.64,-1.1 1.432,-2.554 1.759,-3.232 0.327,-0.677 0.875,-1.464 1.218,-1.749 0.343,-0.284 0.623,-0.833 0.623,-1.219 0,-0.386 0.28,-0.935 0.623,-1.219 0.343,-0.285 0.89,-1.155 1.216,-1.935 0.325,-0.78 0.72,-1.514 0.877,-1.632 0.156,-0.118 0.6,-0.844 0.987,-1.614 0.387,-0.77 1.155,-2.12 1.708,-3 1.221,-1.942 1.156,-1.795 2.207,-4.992 1.557,-4.734 0.906,-9.733 -1.92,-14.742 -2.145,-3.802 -5.111,-8.97 -5.973,-10.407 -1.412,-2.355 -2.431,-4.151 -3.323,-5.859 -0.46,-0.88 -1.233,-2.257 -1.719,-3.061 -0.486,-0.803 -1.585,-2.693 -2.444,-4.2 -0.858,-1.506 -1.893,-3.217 -2.3,-3.801 -0.406,-0.584 -0.739,-1.327 -0.739,-1.651 0,-0.324 -0.28,-0.822 -0.623,-1.106 -0.343,-0.285 -0.884,-1.072 -1.203,-1.749 -0.319,-0.678 -1.016,-1.952 -1.549,-2.832 -1.059,-1.748 -2.08,-3.556 -3.36,-5.948 -0.455,-0.851 -1.085,-1.841 -1.399,-2.2 -0.314,-0.358 -0.705,-1.088 -0.868,-1.621 -0.163,-0.533 -0.634,-1.332 -1.047,-1.776 -0.413,-0.443 -0.751,-1.029 -0.751,-1.302 0,-0.273 -0.225,-0.734 -0.5,-1.024 -0.275,-0.291 -0.819,-1.159 -1.208,-1.929 -0.39,-0.77 -1.144,-2.12 -1.675,-3 -0.532,-0.88 -1.293,-2.167 -1.692,-2.86 -0.399,-0.694 -1.625,-2.827 -2.725,-4.741 -1.1,-1.915 -2.393,-4.138 -2.873,-4.94 -0.479,-0.803 -1.151,-1.999 -1.492,-2.659 -0.341,-0.66 -1.159,-2.1 -1.817,-3.2 -0.658,-1.1 -1.478,-2.54 -1.822,-3.2 -0.344,-0.66 -1.15,-2.01 -1.79,-3 -0.64,-0.99 -1.531,-2.52 -1.98,-3.4 -1.479,-2.898 -3.812,-6.81 -4.626,-7.756 -2.148,-2.499 -4.264,-4.333 -5.753,-4.987 -0.576,-0.253 -1.579,-0.819 -2.229,-1.258 C 256.323,94.259 150.503,93.565 145,94.261 m 24.354,51.791 c 0.546,0.248 1.212,0.984 1.482,1.634 0.269,0.65 0.686,1.392 0.927,1.648 0.24,0.256 1.036,1.636 1.767,3.066 0.732,1.43 1.852,3.5 2.49,4.6 0.638,1.1 1.443,2.54 1.788,3.2 0.345,0.66 1.143,2.1 1.773,3.2 0.629,1.1 1.519,2.72 1.976,3.6 0.458,0.88 1.375,2.5 2.039,3.6 0.664,1.1 1.404,2.495 1.645,3.1 0.24,0.605 0.572,1.1 0.737,1.1 0.166,0 0.597,0.675 0.959,1.5 0.362,0.825 1.188,2.4 1.835,3.5 0.646,1.1 1.306,2.27 1.467,2.6 0.429,0.884 5.289,9.635 5.997,10.8 0.334,0.55 0.864,1.54 1.176,2.2 0.313,0.66 1.081,1.806 1.707,2.547 l 1.137,1.347 1.988,-3.547 c 1.094,-1.951 2.215,-3.997 2.492,-4.547 0.276,-0.55 0.941,-1.72 1.478,-2.6 0.536,-0.88 1.34,-2.32 1.786,-3.2 0.446,-0.88 1.251,-2.32 1.789,-3.2 0.537,-0.88 1.344,-2.32 1.793,-3.2 0.449,-0.88 1.353,-2.5 2.007,-3.6 0.655,-1.1 1.467,-2.54 1.804,-3.2 0.337,-0.66 1.046,-1.92 1.576,-2.8 0.53,-0.88 1.334,-2.32 1.787,-3.2 0.453,-0.88 1.037,-1.96 1.297,-2.4 0.943,-1.595 1.181,-2.027 1.978,-3.6 0.446,-0.88 1.326,-2.41 1.956,-3.4 0.629,-0.99 1.797,-3.09 2.596,-4.666 0.799,-1.576 1.715,-3.083 2.035,-3.349 0.32,-0.266 0.582,-0.731 0.582,-1.034 0,-1.953 1.024,-2.151 11.12,-2.151 11.711,0 12.01,0.178 9.058,5.4 -0.746,1.32 -1.621,2.954 -1.944,3.632 -0.323,0.677 -0.857,1.455 -1.185,1.727 -0.329,0.273 -0.711,1.011 -0.849,1.641 -0.138,0.63 -0.501,1.352 -0.805,1.604 -0.305,0.253 -0.757,1.076 -1.006,1.828 -0.248,0.752 -0.598,1.368 -0.777,1.368 -0.179,0 -0.617,0.675 -0.975,1.5 -0.357,0.825 -1.182,2.4 -1.833,3.5 -0.651,1.1 -1.465,2.54 -1.808,3.2 -0.343,0.66 -1.065,1.92 -1.604,2.8 -0.539,0.88 -1.341,2.32 -1.781,3.2 -0.82,1.639 -1.12,2.152 -2.701,4.622 -0.501,0.781 -0.91,1.667 -0.91,1.968 0,0.301 -0.287,0.864 -0.637,1.251 -0.632,0.698 -1.337,1.881 -2.956,4.959 -0.462,0.88 -1.273,2.32 -1.802,3.2 -0.528,0.88 -1.31,2.342 -1.737,3.248 -0.428,0.907 -0.978,1.773 -1.223,1.924 -0.607,0.375 -0.564,3.246 0.058,3.899 0.276,0.291 1.2,1.879 2.053,3.529 0.852,1.65 1.686,3.09 1.852,3.2 0.166,0.11 0.592,0.83 0.947,1.6 0.355,0.77 1.116,2.21 1.693,3.2 1.806,3.102 2.147,3.785 2.15,4.3 10e-4,0.275 0.168,0.5 0.37,0.5 0.203,0 1.048,1.358 1.88,3.017 0.831,1.659 1.745,3.211 2.031,3.449 0.287,0.238 0.521,0.638 0.521,0.89 0,0.252 0.45,1.121 1,1.93 0.55,0.809 1,1.723 1,2.031 0,0.307 0.35,0.876 0.777,1.262 0.428,0.387 0.892,1.223 1.031,1.858 0.139,0.635 0.438,1.268 0.664,1.407 0.225,0.14 0.672,0.817 0.993,1.505 0.321,0.688 1.116,2.151 1.767,3.251 0.65,1.1 1.439,2.554 1.752,3.232 0.314,0.677 0.85,1.464 1.193,1.749 0.343,0.284 0.623,0.82 0.623,1.19 0,0.371 0.45,1.284 1,2.029 0.55,0.745 1,1.517 1,1.715 0,0.197 0.36,0.816 0.8,1.376 0.894,1.137 1.05,2.899 0.32,3.629 -0.348,0.348 -3.216,0.48 -10.392,0.48 h -9.912 l -0.826,-1.5 c -0.455,-0.825 -1.623,-2.94 -2.596,-4.7 -0.973,-1.76 -2.159,-3.92 -2.635,-4.8 -0.477,-0.88 -0.977,-1.69 -1.113,-1.8 -0.135,-0.11 -0.876,-1.409 -1.646,-2.887 -1.334,-2.56 -2.577,-4.825 -4.343,-7.913 -0.441,-0.77 -1.181,-2.12 -1.646,-3 -0.465,-0.88 -1.285,-2.32 -1.822,-3.2 -0.538,-0.88 -1.348,-2.32 -1.8,-3.2 -0.453,-0.88 -1.263,-2.32 -1.8,-3.2 -0.538,-0.88 -1.34,-2.32 -1.783,-3.2 -0.442,-0.88 -1.341,-2.5 -1.995,-3.6 -0.655,-1.1 -1.467,-2.54 -1.804,-3.2 -0.337,-0.66 -1.049,-1.92 -1.583,-2.8 -0.533,-0.88 -1.309,-2.2 -1.723,-2.934 l -0.754,-1.335 -1.037,1.36 c -0.57,0.748 -1.33,1.978 -1.688,2.734 -0.357,0.756 -1.093,2.095 -1.635,2.975 -0.542,0.88 -1.36,2.32 -1.818,3.2 -1.036,1.988 -1.881,3.482 -5.434,9.6 -0.511,0.88 -1.293,2.32 -1.738,3.2 -0.445,0.88 -1.25,2.32 -1.789,3.2 -0.539,0.88 -1.259,2.14 -1.6,2.8 -0.341,0.66 -1.151,2.1 -1.8,3.2 -0.649,1.1 -1.549,2.72 -2,3.6 -0.451,0.88 -1.252,2.32 -1.78,3.2 -0.528,0.88 -1.334,2.32 -1.79,3.2 -0.456,0.88 -1.556,2.86 -2.444,4.4 -0.888,1.54 -2.009,3.571 -2.491,4.514 -1.117,2.186 -0.786,2.132 -12.103,1.999 l -9.6,-0.113 -0.109,-1.4 c -0.07,-0.904 0.203,-1.896 0.771,-2.8 1.173,-1.865 3.831,-6.694 4.531,-8.232 0.308,-0.677 0.841,-1.464 1.184,-1.749 0.343,-0.284 0.623,-0.8 0.623,-1.146 0,-0.347 0.409,-1.27 0.91,-2.051 1.662,-2.596 1.901,-3.012 2.528,-4.38 0.342,-0.747 0.878,-1.615 1.192,-1.929 0.313,-0.314 0.57,-0.792 0.57,-1.064 0,-0.271 0.45,-1.104 1,-1.849 0.55,-0.745 1,-1.658 1,-2.029 0,-0.37 0.257,-0.886 0.57,-1.146 0.314,-0.261 0.963,-1.228 1.442,-2.149 1.154,-2.218 2.212,-4.124 3.371,-6.076 0.522,-0.88 1.32,-2.32 1.773,-3.2 0.453,-0.88 1.001,-1.87 1.217,-2.2 1.661,-2.539 5.627,-10.153 5.627,-10.803 0,-0.743 -0.608,-1.916 -3.698,-7.14 -0.604,-1.022 -1.202,-2.127 -1.329,-2.457 -0.127,-0.33 -0.399,-0.87 -0.604,-1.2 -0.206,-0.33 -0.688,-1.23 -1.071,-2 -0.384,-0.77 -0.805,-1.49 -0.936,-1.6 -0.209,-0.175 -2.268,-3.884 -4.413,-7.948 -0.391,-0.741 -0.976,-1.641 -1.299,-2 -0.323,-0.358 -0.711,-1.147 -0.862,-1.752 -0.151,-0.605 -0.413,-1.1 -0.583,-1.1 -0.169,0 -0.548,-0.585 -0.842,-1.3 -0.294,-0.715 -0.942,-1.904 -1.44,-2.643 -0.498,-0.739 -1.373,-2.269 -1.944,-3.4 -0.57,-1.131 -1.47,-2.777 -1.998,-3.657 -1.356,-2.258 -2.842,-4.968 -3.596,-6.558 -0.355,-0.747 -0.901,-1.615 -1.215,-1.929 -0.313,-0.314 -0.57,-0.792 -0.57,-1.064 0,-0.271 -0.45,-1.104 -1,-1.849 -0.971,-1.316 -1.254,-2.873 -0.757,-4.167 0.305,-0.796 18.205,-0.958 19.911,-0.181"
       inkscape:connector-curvature="0"
       style="fill:#ffffff;fill-rule:evenodd;stroke:none" />
    <path
       id="path1"
       d="M 0,200 V 400 H 200 400 V 200 0 H 200 0 V 200 M 257.418,94.999 c 0.65,0.439 1.653,1.005 2.229,1.258 1.489,0.654 3.605,2.488 5.753,4.987 0.814,0.946 3.147,4.858 4.626,7.756 0.449,0.88 1.34,2.41 1.98,3.4 0.64,0.99 1.446,2.34 1.79,3 0.344,0.66 1.164,2.1 1.822,3.2 0.658,1.1 1.476,2.54 1.817,3.2 0.341,0.66 1.013,1.856 1.492,2.659 0.48,0.802 1.773,3.025 2.873,4.94 1.1,1.914 2.326,4.047 2.725,4.741 0.399,0.693 1.16,1.98 1.692,2.86 0.531,0.88 1.285,2.23 1.675,3 0.389,0.77 0.933,1.638 1.208,1.929 0.275,0.29 0.5,0.751 0.5,1.024 0,0.273 0.338,0.859 0.751,1.302 0.413,0.444 0.884,1.243 1.047,1.776 0.163,0.533 0.554,1.263 0.868,1.621 0.314,0.359 0.944,1.349 1.399,2.2 1.28,2.392 2.301,4.2 3.36,5.948 0.533,0.88 1.23,2.154 1.549,2.832 0.319,0.677 0.86,1.464 1.203,1.749 0.343,0.284 0.623,0.782 0.623,1.106 0,0.324 0.333,1.067 0.739,1.651 0.407,0.584 1.442,2.295 2.3,3.801 0.859,1.507 1.958,3.397 2.444,4.2 0.486,0.804 1.259,2.181 1.719,3.061 0.892,1.708 1.911,3.504 3.323,5.859 0.862,1.437 3.828,6.605 5.973,10.407 2.826,5.009 3.477,10.008 1.92,14.742 -1.051,3.197 -0.986,3.05 -2.207,4.992 -0.553,0.88 -1.321,2.23 -1.708,3 -0.387,0.77 -0.831,1.496 -0.987,1.614 -0.157,0.118 -0.552,0.852 -0.877,1.632 -0.326,0.78 -0.873,1.65 -1.216,1.935 -0.343,0.284 -0.623,0.833 -0.623,1.219 0,0.386 -0.28,0.935 -0.623,1.219 -0.343,0.285 -0.891,1.072 -1.218,1.749 -0.327,0.678 -1.119,2.132 -1.759,3.232 -0.64,1.1 -1.458,2.54 -1.817,3.2 -0.359,0.66 -1.17,2.1 -1.801,3.2 -0.632,1.1 -1.433,2.54 -1.779,3.2 -0.347,0.66 -1.03,1.852 -1.517,2.648 -0.487,0.796 -1.786,3.02 -2.886,4.941 -1.1,1.921 -2.399,4.15 -2.886,4.952 -0.487,0.803 -1.152,2.013 -1.477,2.691 -0.325,0.677 -0.871,1.464 -1.214,1.749 -0.343,0.284 -0.623,0.831 -0.623,1.214 0,0.383 -0.331,1.126 -0.736,1.651 -0.786,1.019 -3.379,5.449 -4.611,7.88 -0.411,0.811 -0.886,1.564 -1.055,1.674 -0.17,0.11 -0.605,0.83 -0.967,1.6 -0.363,0.77 -1.058,2.059 -1.545,2.864 -0.487,0.806 -1.477,2.516 -2.2,3.8 -0.723,1.285 -1.492,2.606 -1.71,2.936 -0.218,0.33 -0.757,1.358 -1.197,2.283 -0.441,0.926 -0.979,1.794 -1.196,1.928 -0.218,0.134 -0.669,0.816 -1.003,1.516 -0.335,0.7 -1.007,1.929 -1.494,2.732 -0.487,0.802 -1.786,3.048 -2.886,4.99 -1.1,1.942 -2.27,4.007 -2.6,4.589 -0.33,0.581 -1.018,1.818 -1.528,2.749 -1.204,2.193 -5.615,6.534 -7.333,7.214 -0.737,0.292 -1.609,0.757 -1.939,1.033 -2.492,2.088 -112.43,2.063 -114.8,-0.026 -0.33,-0.29 -1.23,-0.821 -2,-1.179 -2.586,-1.202 -5.6,-3.649 -5.6,-4.547 0,-0.218 -0.264,-0.498 -0.587,-0.622 -0.323,-0.124 -0.873,-0.818 -1.222,-1.543 -0.864,-1.795 -2.07,-3.97 -2.676,-4.824 -0.552,-0.778 -1.563,-2.626 -2.476,-4.525 -0.326,-0.677 -0.873,-1.464 -1.216,-1.749 -0.343,-0.284 -0.63,-0.72 -0.639,-0.968 -0.008,-0.248 -0.629,-1.441 -1.379,-2.651 -0.751,-1.21 -1.734,-2.92 -2.186,-3.8 -0.452,-0.88 -1.264,-2.32 -1.806,-3.2 -0.542,-0.88 -1.258,-2.173 -1.593,-2.873 -0.334,-0.7 -0.793,-1.387 -1.02,-1.527 -0.227,-0.14 -0.676,-0.827 -0.999,-1.527 -0.322,-0.7 -1.119,-2.173 -1.769,-3.273 -0.651,-1.1 -1.471,-2.54 -1.822,-3.2 -0.351,-0.66 -1.081,-1.92 -1.621,-2.8 -0.541,-0.88 -1.27,-2.14 -1.621,-2.8 -0.843,-1.587 -3.817,-6.713 -5.569,-9.6 -0.534,-0.88 -1.252,-2.14 -1.595,-2.8 -0.343,-0.66 -1.161,-2.1 -1.817,-3.2 -0.657,-1.1 -1.473,-2.603 -1.813,-3.341 -0.34,-0.737 -0.8,-1.547 -1.02,-1.8 -0.543,-0.621 -1.962,-2.949 -2.84,-4.659 -0.396,-0.77 -1.159,-2.12 -1.697,-3 -0.538,-0.88 -1.21,-2.05 -1.494,-2.6 -0.284,-0.55 -0.918,-1.604 -1.411,-2.343 -0.492,-0.739 -1.354,-2.314 -1.915,-3.5 -0.561,-1.186 -1.176,-2.157 -1.365,-2.157 -0.19,0 -0.469,-0.495 -0.62,-1.1 -0.151,-0.605 -0.539,-1.394 -0.862,-1.752 -0.543,-0.603 -1.286,-1.891 -2.854,-4.948 -0.339,-0.66 -0.796,-1.431 -1.016,-1.713 -3.136,-4.024 -2.869,-11.974 0.621,-18.493 2.325,-4.344 2.616,-4.84 3.262,-5.553 0.35,-0.387 0.637,-0.981 0.637,-1.319 0,-0.338 0.331,-1.043 0.736,-1.568 0.405,-0.525 1.44,-2.187 2.3,-3.693 0.86,-1.507 1.961,-3.397 2.447,-4.2 0.486,-0.804 1.258,-2.181 1.717,-3.061 0.459,-0.88 1.269,-2.32 1.801,-3.2 0.531,-0.88 1.252,-2.14 1.601,-2.8 0.348,-0.66 1.158,-2.1 1.798,-3.2 0.64,-1.1 1.44,-2.573 1.776,-3.273 0.337,-0.7 0.797,-1.387 1.024,-1.527 0.227,-0.14 0.686,-0.827 1.02,-1.527 0.335,-0.7 1.051,-1.993 1.591,-2.873 0.541,-0.88 1.273,-2.23 1.628,-3 0.354,-0.77 0.851,-1.646 1.103,-1.948 0.501,-0.599 3.039,-5.028 4.155,-7.252 0.387,-0.77 0.836,-1.459 0.998,-1.532 0.163,-0.072 0.664,-0.882 1.115,-1.8 0.837,-1.707 1.7,-3.244 3.407,-6.068 0.531,-0.88 1.285,-2.23 1.675,-3 0.389,-0.77 0.836,-1.496 0.992,-1.614 0.157,-0.118 0.569,-0.838 0.915,-1.6 0.347,-0.762 1.155,-2.196 1.795,-3.186 0.64,-0.99 1.531,-2.52 1.98,-3.4 0.45,-0.88 1.275,-2.32 1.836,-3.2 0.56,-0.88 1.294,-2.14 1.631,-2.8 0.338,-0.66 1.049,-1.92 1.581,-2.8 0.531,-0.88 1.323,-2.365 1.758,-3.3 0.435,-0.935 0.958,-1.7 1.162,-1.7 0.204,0 0.474,-0.405 0.6,-0.9 0.343,-1.351 2.386,-3.727 5.418,-6.3 1.17,-0.993 4.958,-2.777 6.24,-2.939 5.503,-0.696 111.323,-0.002 112.418,0.738 m -107.975,51.234 c -0.497,1.294 -0.214,2.851 0.757,4.167 0.55,0.745 1,1.578 1,1.849 0,0.272 0.257,0.75 0.57,1.064 0.314,0.314 0.86,1.182 1.215,1.929 0.754,1.59 2.24,4.3 3.596,6.558 0.528,0.88 1.428,2.526 1.998,3.657 0.571,1.131 1.446,2.661 1.944,3.4 0.498,0.739 1.146,1.928 1.44,2.643 0.294,0.715 0.673,1.3 0.842,1.3 0.17,0 0.432,0.495 0.583,1.1 0.151,0.605 0.539,1.394 0.862,1.752 0.323,0.359 0.908,1.259 1.299,2 2.145,4.064 4.204,7.773 4.413,7.948 0.131,0.11 0.552,0.83 0.936,1.6 0.383,0.77 0.865,1.67 1.071,2 0.205,0.33 0.477,0.87 0.604,1.2 0.127,0.33 0.725,1.435 1.329,2.457 3.09,5.224 3.698,6.397 3.698,7.14 0,0.65 -3.966,8.264 -5.627,10.803 -0.216,0.33 -0.764,1.32 -1.217,2.2 -0.453,0.88 -1.251,2.32 -1.773,3.2 -1.159,1.952 -2.217,3.858 -3.371,6.076 -0.479,0.921 -1.128,1.888 -1.442,2.149 -0.313,0.26 -0.57,0.776 -0.57,1.146 0,0.371 -0.45,1.284 -1,2.029 -0.55,0.745 -1,1.578 -1,1.849 0,0.272 -0.257,0.75 -0.57,1.064 -0.314,0.314 -0.85,1.182 -1.192,1.929 -0.627,1.368 -0.866,1.784 -2.528,4.38 -0.501,0.781 -0.91,1.704 -0.91,2.051 0,0.346 -0.28,0.862 -0.623,1.146 -0.343,0.285 -0.876,1.072 -1.184,1.749 -0.7,1.538 -3.358,6.367 -4.531,8.232 -0.568,0.904 -0.841,1.896 -0.771,2.8 l 0.109,1.4 9.6,0.113 c 11.317,0.133 10.986,0.187 12.103,-1.999 0.482,-0.943 1.603,-2.974 2.491,-4.514 0.888,-1.54 1.988,-3.52 2.444,-4.4 0.456,-0.88 1.262,-2.32 1.79,-3.2 0.528,-0.88 1.329,-2.32 1.78,-3.2 0.451,-0.88 1.351,-2.5 2,-3.6 0.649,-1.1 1.459,-2.54 1.8,-3.2 0.341,-0.66 1.061,-1.92 1.6,-2.8 0.539,-0.88 1.344,-2.32 1.789,-3.2 0.445,-0.88 1.227,-2.32 1.738,-3.2 3.553,-6.118 4.398,-7.612 5.434,-9.6 0.458,-0.88 1.276,-2.32 1.818,-3.2 0.542,-0.88 1.278,-2.219 1.635,-2.975 0.358,-0.756 1.118,-1.986 1.688,-2.734 l 1.037,-1.36 0.754,1.335 c 0.414,0.734 1.19,2.054 1.723,2.934 0.534,0.88 1.246,2.14 1.583,2.8 0.337,0.66 1.149,2.1 1.804,3.2 0.654,1.1 1.553,2.72 1.995,3.6 0.443,0.88 1.245,2.32 1.783,3.2 0.537,0.88 1.347,2.32 1.8,3.2 0.452,0.88 1.262,2.32 1.8,3.2 0.537,0.88 1.357,2.32 1.822,3.2 0.465,0.88 1.205,2.23 1.646,3 1.766,3.088 3.009,5.353 4.343,7.913 0.77,1.478 1.511,2.777 1.646,2.887 0.136,0.11 0.636,0.92 1.113,1.8 0.476,0.88 1.662,3.04 2.635,4.8 0.973,1.76 2.141,3.875 2.596,4.7 l 0.826,1.5 h 9.912 c 7.176,0 10.044,-0.132 10.392,-0.48 0.73,-0.73 0.574,-2.492 -0.32,-3.629 -0.44,-0.56 -0.8,-1.179 -0.8,-1.376 0,-0.198 -0.45,-0.97 -1,-1.715 -0.55,-0.745 -1,-1.658 -1,-2.029 0,-0.37 -0.28,-0.906 -0.623,-1.19 -0.343,-0.285 -0.879,-1.072 -1.193,-1.749 -0.313,-0.678 -1.102,-2.132 -1.752,-3.232 -0.651,-1.1 -1.446,-2.563 -1.767,-3.251 -0.321,-0.688 -0.768,-1.365 -0.993,-1.505 -0.226,-0.139 -0.525,-0.772 -0.664,-1.407 -0.139,-0.635 -0.603,-1.471 -1.031,-1.858 -0.427,-0.386 -0.777,-0.955 -0.777,-1.262 0,-0.308 -0.45,-1.222 -1,-2.031 -0.55,-0.809 -1,-1.678 -1,-1.93 0,-0.252 -0.234,-0.652 -0.521,-0.89 -0.286,-0.238 -1.2,-1.79 -2.031,-3.449 -0.832,-1.659 -1.677,-3.017 -1.88,-3.017 -0.202,0 -0.369,-0.225 -0.37,-0.5 -0.003,-0.515 -0.344,-1.198 -2.15,-4.3 -0.577,-0.99 -1.338,-2.43 -1.693,-3.2 -0.355,-0.77 -0.781,-1.49 -0.947,-1.6 -0.166,-0.11 -1,-1.55 -1.852,-3.2 -0.853,-1.65 -1.777,-3.238 -2.053,-3.529 -0.622,-0.653 -0.665,-3.524 -0.058,-3.899 0.245,-0.151 0.795,-1.017 1.223,-1.924 0.427,-0.906 1.209,-2.368 1.737,-3.248 0.529,-0.88 1.34,-2.32 1.802,-3.2 1.619,-3.078 2.324,-4.261 2.956,-4.959 0.35,-0.387 0.637,-0.95 0.637,-1.251 0,-0.301 0.409,-1.187 0.91,-1.968 1.581,-2.47 1.881,-2.983 2.701,-4.622 0.44,-0.88 1.242,-2.32 1.781,-3.2 0.539,-0.88 1.261,-2.14 1.604,-2.8 0.343,-0.66 1.157,-2.1 1.808,-3.2 0.651,-1.1 1.476,-2.675 1.833,-3.5 0.358,-0.825 0.796,-1.5 0.975,-1.5 0.179,0 0.529,-0.616 0.777,-1.368 0.249,-0.752 0.701,-1.575 1.006,-1.828 0.304,-0.252 0.667,-0.974 0.805,-1.604 0.138,-0.63 0.52,-1.368 0.849,-1.641 0.328,-0.272 0.862,-1.05 1.185,-1.727 0.323,-0.678 1.198,-2.312 1.944,-3.632 2.952,-5.222 2.653,-5.4 -9.058,-5.4 -10.096,0 -11.12,0.198 -11.12,2.151 0,0.303 -0.262,0.768 -0.582,1.034 -0.32,0.266 -1.236,1.773 -2.035,3.349 -0.799,1.576 -1.967,3.676 -2.596,4.666 -0.63,0.99 -1.51,2.52 -1.956,3.4 -0.797,1.573 -1.035,2.005 -1.978,3.6 -0.26,0.44 -0.844,1.52 -1.297,2.4 -0.453,0.88 -1.257,2.32 -1.787,3.2 -0.53,0.88 -1.239,2.14 -1.576,2.8 -0.337,0.66 -1.149,2.1 -1.804,3.2 -0.654,1.1 -1.558,2.72 -2.007,3.6 -0.449,0.88 -1.256,2.32 -1.793,3.2 -0.538,0.88 -1.343,2.32 -1.789,3.2 -0.446,0.88 -1.25,2.32 -1.786,3.2 -0.537,0.88 -1.202,2.05 -1.478,2.6 -0.277,0.55 -1.398,2.596 -2.492,4.547 l -1.988,3.547 -1.137,-1.347 c -0.626,-0.741 -1.394,-1.887 -1.707,-2.547 -0.312,-0.66 -0.842,-1.65 -1.176,-2.2 -0.708,-1.165 -5.568,-9.916 -5.997,-10.8 -0.161,-0.33 -0.821,-1.5 -1.467,-2.6 -0.647,-1.1 -1.473,-2.675 -1.835,-3.5 -0.362,-0.825 -0.793,-1.5 -0.959,-1.5 -0.165,0 -0.497,-0.495 -0.737,-1.1 -0.241,-0.605 -0.981,-2 -1.645,-3.1 -0.664,-1.1 -1.581,-2.72 -2.039,-3.6 -0.457,-0.88 -1.347,-2.5 -1.976,-3.6 -0.63,-1.1 -1.428,-2.54 -1.773,-3.2 -0.345,-0.66 -1.15,-2.1 -1.788,-3.2 -0.638,-1.1 -1.758,-3.17 -2.49,-4.6 -0.731,-1.43 -1.527,-2.81 -1.767,-3.066 -0.241,-0.256 -0.658,-0.998 -0.927,-1.648 -0.801,-1.934 -1.664,-2.086 -11.812,-2.086 -8.146,0 -9.369,0.081 -9.581,0.633"
       inkscape:connector-curvature="0"
       style="fill:#4b4b4b;fill-rule:evenodd;stroke:none" />
  </g>
</svg>
