<svg id="svg" xmlns="http://www.w3.org/2000/svg" xmlns:xlink="http://www.w3.org/1999/xlink" width="400" height="400" viewBox="0, 0, 400,400"><g id="svgg"><path id="path0" d="M196.200 57.749 C 189.879 59.405,190.237 59.083,189.486 63.800 C 187.450 76.603,187.112 82.530,186.906 109.029 C 186.657 141.209,187.422 155.064,190.925 181.732 C 191.559 186.565,191.706 186.362,186.400 187.992 C 180.644 189.760,165.831 194.697,158.800 197.191 C 155.610 198.322,152.190 199.523,151.200 199.859 C 147.319 201.178,127.486 208.651,125.400 209.581 C 124.960 209.777,121.810 211.060,118.400 212.433 C 109.541 215.999,103.068 218.989,93.223 224.062 C 88.480 226.506,83.215 229.194,81.521 230.036 C 78.076 231.749,78.383 231.155,77.610 237.600 C 77.385 239.470,77.024 242.326,76.806 243.946 C 76.588 245.567,76.509 247.052,76.629 247.246 C 77.416 248.521,86.090 245.849,96.110 241.245 C 97.601 240.560,98.901 240.000,98.999 240.000 C 99.098 240.000,100.128 239.566,101.289 239.037 C 104.060 237.772,109.976 235.413,117.400 232.612 C 120.700 231.367,124.030 230.100,124.800 229.795 C 126.603 229.082,135.095 226.002,136.400 225.588 C 136.950 225.413,140.820 224.075,145.000 222.614 C 160.661 217.141,190.127 207.555,193.143 206.951 C 194.591 206.662,194.470 206.410,195.376 211.600 C 196.377 217.327,197.579 223.735,198.490 228.200 C 198.940 230.400,199.440 232.920,199.602 233.800 C 200.000 235.958,201.118 241.258,201.797 244.200 C 202.102 245.520,202.733 248.310,203.200 250.400 C 204.138 254.599,204.859 257.676,206.999 266.600 C 207.790 269.900,208.800 274.130,209.243 276.000 C 214.925 299.974,216.551 305.836,220.950 318.200 C 223.232 324.614,227.931 334.652,229.182 335.783 C 229.808 336.350,239.493 329.149,240.913 327.060 C 241.253 326.560,240.964 321.525,240.393 318.000 C 239.523 312.630,238.726 308.077,238.395 306.600 C 236.526 298.237,235.039 291.891,234.600 290.400 C 234.308 289.410,233.980 288.150,233.871 287.600 C 233.762 287.050,232.670 282.550,231.445 277.600 C 230.219 272.650,229.043 267.790,228.831 266.800 C 228.619 265.810,228.081 263.380,227.635 261.400 C 226.737 257.414,224.967 249.194,224.404 246.400 C 224.205 245.410,223.572 242.440,222.999 239.800 C 222.425 237.160,221.808 234.190,221.627 233.200 C 221.446 232.210,220.662 228.250,219.883 224.400 C 219.105 220.550,218.078 215.240,217.601 212.600 C 217.123 209.960,216.478 206.503,216.167 204.917 C 215.157 199.781,214.369 200.474,224.200 197.849 C 227.940 196.850,232.440 195.646,234.200 195.175 C 235.960 194.703,238.300 194.081,239.400 193.792 C 240.500 193.503,242.840 192.881,244.600 192.411 C 246.360 191.941,250.140 190.945,253.000 190.198 C 255.860 189.452,259.280 188.546,260.600 188.185 C 261.920 187.825,265.250 186.924,268.000 186.183 C 279.313 183.134,289.126 180.369,295.800 178.349 C 309.954 174.065,322.512 169.923,325.200 168.651 L 327.000 167.800 327.262 164.200 C 327.867 155.866,327.912 156.617,326.800 156.450 C 324.538 156.110,301.778 158.810,291.600 160.627 C 285.138 161.780,277.394 163.242,275.800 163.610 C 274.920 163.813,272.400 164.366,270.200 164.838 C 268.000 165.309,265.570 165.831,264.800 165.997 C 259.982 167.033,246.825 170.302,240.000 172.159 C 230.251 174.810,227.146 175.675,222.600 177.003 C 217.369 178.532,216.776 178.703,214.909 179.222 C 212.552 179.878,212.158 179.607,211.875 177.135 C 211.741 175.961,211.347 172.570,211.000 169.600 C 208.451 147.799,207.210 125.671,207.204 101.906 C 207.199 77.849,206.449 68.774,203.567 57.900 C 203.072 56.035,202.770 56.029,196.200 57.749 M256.600 69.180 C 231.593 73.300,223.485 120.385,244.735 138.084 C 260.929 151.571,285.870 141.588,291.847 119.228 C 293.359 113.570,293.415 103.117,291.962 97.800 C 290.582 92.750,290.176 91.537,288.990 88.936 C 282.628 74.973,269.614 67.035,256.600 69.180 M265.052 89.225 C 275.805 94.431,276.619 118.806,266.200 123.640 C 257.798 127.538,248.263 116.507,250.636 105.634 C 253.730 91.459,258.485 86.046,265.052 89.225 M132.116 122.249 C 128.989 124.745,124.981 128.991,121.306 133.700 C 117.650 138.385,117.905 138.355,114.584 134.500 C 110.396 129.639,106.013 125.245,103.444 123.335 C 100.676 121.276,100.944 121.196,96.100 125.536 C 92.746 128.542,92.789 128.362,94.538 132.149 C 96.814 137.074,98.426 139.386,104.900 147.007 C 109.053 151.895,109.000 151.480,106.071 156.114 C 100.371 165.134,96.000 174.426,96.000 177.523 C 96.000 178.904,107.617 187.200,109.551 187.200 C 110.921 187.200,115.123 181.664,120.026 173.400 C 124.128 166.487,123.392 166.821,127.856 169.848 C 133.128 173.423,139.208 176.373,143.340 177.362 C 144.546 177.651,152.800 170.252,152.800 168.882 C 152.800 167.650,143.694 159.234,136.500 153.817 C 133.909 151.866,133.903 152.038,136.723 147.521 C 140.725 141.110,144.362 133.340,145.032 129.771 C 145.258 128.565,145.099 128.382,141.134 125.312 C 138.860 123.552,136.657 121.726,136.238 121.256 C 135.167 120.053,134.735 120.158,132.116 122.249 M292.742 222.700 C 289.406 229.637,287.079 234.584,285.780 237.500 C 284.565 240.225,284.761 240.291,279.300 235.337 C 274.427 230.917,267.407 225.153,265.940 224.368 C 264.926 223.825,256.796 231.501,256.805 232.993 C 256.815 234.767,264.296 245.084,270.296 251.600 C 277.083 258.970,276.591 257.400,274.025 263.503 C 270.606 271.636,268.307 279.531,269.027 280.667 C 269.467 281.361,280.719 288.000,281.455 288.000 C 282.598 288.000,287.117 281.910,289.767 276.800 C 291.679 273.112,291.449 273.132,295.667 276.284 C 300.379 279.805,307.067 283.600,308.558 283.600 C 309.012 283.600,317.600 271.431,317.600 270.789 C 317.600 269.330,310.470 261.810,303.700 256.129 C 301.225 254.052,299.200 252.210,299.200 252.036 C 299.200 251.861,300.261 248.047,301.557 243.559 C 306.583 226.160,306.784 223.213,303.111 220.709 C 295.751 215.692,296.150 215.615,292.742 222.700 M143.200 243.633 C 112.683 251.413,112.293 305.707,142.678 316.205 C 170.369 325.772,192.497 293.389,178.674 263.525 C 171.431 247.878,157.404 240.012,143.200 243.633 M153.400 261.493 C 159.528 263.628,165.142 274.801,164.704 283.987 C 163.770 303.574,142.078 304.873,137.158 285.637 C 133.539 271.484,142.755 257.783,153.400 261.493 " stroke="none" fill="#f9f9f9" fill-rule="evenodd"></path><path id="path1" d="M173.136 0.297 C 171.074 0.388,169.913 0.623,169.587 1.016 C 169.249 1.423,168.277 1.600,166.375 1.600 C 164.875 1.600,163.536 1.780,163.400 2.000 C 163.264 2.220,162.168 2.400,160.964 2.400 C 159.387 2.400,158.710 2.568,158.545 3.000 C 158.384 3.419,157.731 3.600,156.381 3.600 C 155.317 3.600,154.336 3.780,154.200 4.000 C 154.064 4.220,153.164 4.400,152.200 4.400 C 151.236 4.400,150.336 4.580,150.200 4.800 C 150.064 5.020,149.346 5.200,148.605 5.200 C 147.864 5.200,146.987 5.470,146.657 5.800 C 146.327 6.130,145.425 6.400,144.652 6.400 C 143.879 6.400,143.136 6.580,143.000 6.800 C 142.864 7.020,142.245 7.200,141.625 7.200 C 141.005 7.200,140.274 7.470,140.000 7.800 C 139.726 8.130,138.894 8.400,138.151 8.400 C 137.408 8.400,136.800 8.580,136.800 8.800 C 136.800 9.020,136.271 9.200,135.624 9.200 C 134.977 9.200,134.336 9.380,134.200 9.600 C 134.064 9.820,133.526 10.000,133.005 10.000 C 132.484 10.000,131.787 10.270,131.457 10.600 C 131.127 10.930,130.495 11.200,130.052 11.200 C 129.609 11.200,129.136 11.380,129.000 11.600 C 128.864 11.820,128.223 12.000,127.576 12.000 C 126.797 12.000,126.400 12.203,126.400 12.600 C 126.400 12.997,126.003 13.200,125.224 13.200 C 124.577 13.200,123.936 13.380,123.800 13.600 C 123.664 13.820,123.113 14.000,122.576 14.000 C 122.039 14.000,121.600 14.180,121.600 14.400 C 121.600 14.620,121.150 14.800,120.600 14.800 C 119.978 14.800,119.600 15.027,119.600 15.400 C 119.600 15.769,119.225 16.000,118.624 16.000 C 118.087 16.000,117.536 16.180,117.400 16.400 C 117.264 16.620,116.816 16.800,116.405 16.800 C 115.994 16.800,115.387 17.070,115.057 17.400 C 114.727 17.730,114.084 18.000,113.629 18.000 C 113.173 18.000,112.800 18.180,112.800 18.400 C 112.800 18.620,112.558 18.800,112.261 18.800 C 111.574 18.800,109.288 19.933,108.984 20.425 C 108.857 20.631,108.403 20.800,107.976 20.800 C 107.549 20.800,107.200 20.980,107.200 21.200 C 107.200 21.420,106.834 21.600,106.387 21.600 C 105.941 21.600,105.471 21.870,105.345 22.200 C 105.218 22.530,104.819 22.804,104.457 22.809 C 104.096 22.814,103.350 23.170,102.800 23.600 C 102.250 24.030,101.485 24.386,101.100 24.391 C 100.715 24.396,100.400 24.670,100.400 25.000 C 100.400 25.373,100.022 25.600,99.400 25.600 C 98.850 25.600,98.400 25.747,98.400 25.926 C 98.400 26.105,97.770 26.552,97.000 26.919 C 96.230 27.287,95.600 27.770,95.600 27.994 C 95.600 28.217,95.232 28.400,94.783 28.400 C 94.333 28.400,93.480 28.850,92.887 29.400 C 92.293 29.950,91.581 30.400,91.304 30.400 C 91.027 30.400,90.800 30.580,90.800 30.800 C 90.800 31.020,90.556 31.200,90.258 31.200 C 89.961 31.200,89.231 31.650,88.638 32.200 C 88.044 32.750,87.343 33.200,87.079 33.200 C 86.816 33.200,85.892 33.830,85.027 34.600 C 84.162 35.370,83.230 36.000,82.956 36.000 C 82.682 36.000,82.104 36.450,81.671 37.000 C 81.239 37.550,80.712 38.000,80.501 38.000 C 80.290 38.000,79.631 38.450,79.038 39.000 C 78.444 39.550,77.788 40.000,77.579 40.000 C 77.371 40.000,77.200 40.168,77.200 40.373 C 77.200 40.578,76.864 40.853,76.453 40.983 C 76.042 41.114,74.655 42.206,73.371 43.410 C 72.087 44.615,70.902 45.600,70.737 45.600 C 70.571 45.600,69.986 46.050,69.436 46.600 C 68.886 47.150,68.325 47.600,68.190 47.600 C 67.783 47.600,66.800 48.711,66.800 49.171 C 66.800 49.407,66.623 49.600,66.406 49.600 C 65.396 49.600,49.600 65.396,49.600 66.406 C 49.600 66.623,49.407 66.800,49.171 66.800 C 48.711 66.800,47.600 67.783,47.600 68.190 C 47.600 68.325,47.150 68.886,46.600 69.436 C 46.050 69.986,45.600 70.615,45.600 70.833 C 45.600 71.051,44.824 71.988,43.876 72.915 C 42.927 73.842,41.808 75.185,41.389 75.900 C 40.970 76.615,40.486 77.200,40.314 77.200 C 40.141 77.200,40.000 77.371,40.000 77.579 C 40.000 77.788,39.550 78.444,39.000 79.038 C 38.450 79.631,38.000 80.290,38.000 80.501 C 38.000 80.712,37.550 81.239,37.000 81.671 C 36.450 82.104,36.000 82.739,36.000 83.083 C 36.000 83.427,35.595 84.090,35.100 84.557 C 34.605 85.024,33.930 85.935,33.600 86.582 C 33.270 87.228,32.595 88.198,32.100 88.737 C 31.605 89.276,31.200 89.961,31.200 90.258 C 31.200 90.556,31.020 90.800,30.800 90.800 C 30.580 90.800,30.400 91.027,30.400 91.304 C 30.400 91.581,29.950 92.293,29.400 92.887 C 28.850 93.480,28.400 94.333,28.400 94.783 C 28.400 95.232,28.217 95.600,27.994 95.600 C 27.770 95.600,27.287 96.230,26.919 97.000 C 26.552 97.770,26.105 98.400,25.926 98.400 C 25.747 98.400,25.600 98.850,25.600 99.400 C 25.600 100.022,25.373 100.400,25.000 100.400 C 24.627 100.400,24.400 100.778,24.400 101.400 C 24.400 101.950,24.220 102.400,24.000 102.400 C 23.780 102.400,23.600 102.670,23.600 103.000 C 23.600 103.330,23.420 103.600,23.200 103.600 C 22.980 103.600,22.800 103.941,22.800 104.357 C 22.800 104.774,22.530 105.218,22.200 105.345 C 21.870 105.471,21.600 105.941,21.600 106.387 C 21.600 106.834,21.420 107.200,21.200 107.200 C 20.980 107.200,20.800 107.549,20.800 107.976 C 20.800 108.403,20.625 108.861,20.411 108.993 C 20.197 109.126,19.731 109.901,19.377 110.717 C 19.023 111.533,18.568 112.513,18.366 112.895 C 18.165 113.277,18.000 113.784,18.000 114.023 C 18.000 114.262,17.730 114.727,17.400 115.057 C 17.070 115.387,16.800 115.994,16.800 116.405 C 16.800 116.816,16.620 117.264,16.400 117.400 C 16.180 117.536,16.000 118.087,16.000 118.624 C 16.000 119.225,15.769 119.600,15.400 119.600 C 15.027 119.600,14.800 119.978,14.800 120.600 C 14.800 121.150,14.620 121.600,14.400 121.600 C 14.180 121.600,14.000 122.129,14.000 122.776 C 14.000 123.423,13.820 124.064,13.600 124.200 C 13.380 124.336,13.200 124.887,13.200 125.424 C 13.200 126.025,12.969 126.400,12.600 126.400 C 12.181 126.400,12.000 126.822,12.000 127.800 C 12.000 128.570,11.820 129.200,11.600 129.200 C 11.380 129.200,11.200 129.573,11.200 130.029 C 11.200 130.484,10.930 131.127,10.600 131.457 C 10.270 131.787,10.000 132.484,10.000 133.005 C 10.000 133.526,9.820 134.064,9.600 134.200 C 9.380 134.336,9.200 134.977,9.200 135.624 C 9.200 136.271,9.020 136.800,8.800 136.800 C 8.580 136.800,8.400 137.408,8.400 138.151 C 8.400 138.894,8.130 139.726,7.800 140.000 C 7.470 140.274,7.200 141.095,7.200 141.825 C 7.200 142.555,7.020 143.264,6.800 143.400 C 6.580 143.536,6.400 144.189,6.400 144.852 C 6.400 145.515,6.130 146.327,5.800 146.657 C 5.470 146.987,5.200 147.964,5.200 148.829 C 5.200 149.693,5.020 150.400,4.800 150.400 C 4.580 150.400,4.400 151.199,4.400 152.176 C 4.400 153.153,4.220 154.064,4.000 154.200 C 3.780 154.336,3.600 155.407,3.600 156.581 C 3.600 158.108,3.430 158.780,3.000 158.945 C 2.578 159.107,2.400 159.765,2.400 161.164 C 2.400 162.258,2.220 163.264,2.000 163.400 C 1.780 163.536,1.600 164.922,1.600 166.480 C 1.600 168.715,1.453 169.420,0.900 169.824 C -0.183 170.616,-0.183 229.093,0.900 230.289 C 1.419 230.863,1.600 231.751,1.600 233.731 C 1.600 235.244,1.773 236.400,2.000 236.400 C 2.220 236.400,2.400 237.396,2.400 238.613 C 2.400 240.210,2.567 240.889,3.000 241.055 C 3.430 241.220,3.600 241.892,3.600 243.419 C 3.600 244.593,3.780 245.664,4.000 245.800 C 4.220 245.936,4.400 246.847,4.400 247.824 C 4.400 248.801,4.580 249.600,4.800 249.600 C 5.020 249.600,5.200 250.307,5.200 251.171 C 5.200 252.036,5.470 253.013,5.800 253.343 C 6.130 253.673,6.400 254.496,6.400 255.171 C 6.400 255.847,6.580 256.400,6.800 256.400 C 7.020 256.400,7.200 257.098,7.200 257.951 C 7.200 258.842,7.455 259.714,7.800 260.000 C 8.130 260.274,8.400 261.106,8.400 261.849 C 8.400 262.592,8.580 263.200,8.800 263.200 C 9.020 263.200,9.200 263.729,9.200 264.376 C 9.200 265.023,9.380 265.664,9.600 265.800 C 9.820 265.936,10.000 266.474,10.000 266.995 C 10.000 267.516,10.270 268.213,10.600 268.543 C 10.930 268.873,11.200 269.516,11.200 269.971 C 11.200 270.427,11.380 270.800,11.600 270.800 C 11.820 270.800,12.000 271.411,12.000 272.157 C 12.000 272.995,12.230 273.603,12.600 273.745 C 12.930 273.871,13.200 274.341,13.200 274.787 C 13.200 275.234,13.380 275.600,13.600 275.600 C 13.820 275.600,14.000 276.230,14.000 277.000 C 14.000 277.770,14.180 278.400,14.400 278.400 C 14.620 278.400,14.800 278.850,14.800 279.400 C 14.800 280.022,15.027 280.400,15.400 280.400 C 15.773 280.400,16.000 280.778,16.000 281.400 C 16.000 281.950,16.180 282.400,16.400 282.400 C 16.620 282.400,16.800 282.828,16.800 283.351 C 16.800 283.874,17.070 284.526,17.400 284.800 C 17.730 285.074,18.000 285.548,18.000 285.854 C 18.000 286.160,18.165 286.723,18.366 287.105 C 18.568 287.487,19.023 288.467,19.377 289.283 C 19.731 290.099,20.197 290.874,20.411 291.007 C 20.625 291.139,20.800 291.597,20.800 292.024 C 20.800 292.451,20.960 292.800,21.157 292.800 C 21.353 292.800,21.626 293.250,21.764 293.800 C 21.902 294.350,22.192 294.800,22.408 294.800 C 22.623 294.800,22.800 295.070,22.800 295.400 C 22.800 295.730,22.980 296.000,23.200 296.000 C 23.420 296.000,23.600 296.349,23.600 296.776 C 23.600 297.203,23.780 297.664,24.000 297.800 C 24.220 297.936,24.400 298.397,24.400 298.824 C 24.400 299.251,24.670 299.600,25.000 299.600 C 25.373 299.600,25.600 299.978,25.600 300.600 C 25.600 301.150,25.759 301.600,25.954 301.600 C 26.149 301.600,26.608 302.230,26.973 303.000 C 27.339 303.770,27.809 304.400,28.019 304.400 C 28.228 304.400,28.400 304.734,28.400 305.142 C 28.400 305.549,28.850 306.369,29.400 306.962 C 29.950 307.556,30.400 308.302,30.400 308.621 C 30.400 308.939,30.580 309.200,30.800 309.200 C 31.020 309.200,31.200 309.470,31.200 309.800 C 31.200 310.130,31.380 310.400,31.600 310.400 C 31.820 310.400,32.000 310.627,32.000 310.904 C 32.000 311.181,32.450 311.893,33.000 312.487 C 33.550 313.080,34.000 313.818,34.000 314.127 C 34.000 314.435,34.450 315.026,35.000 315.439 C 35.550 315.852,36.000 316.494,36.000 316.866 C 36.000 317.238,36.450 317.896,37.000 318.329 C 37.550 318.761,38.000 319.314,38.000 319.558 C 38.000 319.801,38.180 320.000,38.400 320.000 C 38.620 320.000,38.800 320.276,38.800 320.613 C 38.800 320.949,39.070 321.329,39.400 321.455 C 39.730 321.582,40.000 321.897,40.000 322.154 C 40.000 322.412,40.360 322.883,40.800 323.200 C 41.240 323.517,41.600 323.979,41.600 324.226 C 41.600 324.473,42.500 325.614,43.600 326.761 C 44.700 327.908,45.600 328.934,45.600 329.040 C 45.600 329.147,45.784 329.451,46.008 329.717 C 47.771 331.805,48.399 332.641,48.400 332.900 C 48.400 333.065,48.670 333.200,49.000 333.200 C 49.330 333.200,49.600 333.376,49.600 333.590 C 49.600 334.520,62.644 347.600,63.571 347.600 C 63.807 347.600,64.000 347.788,64.000 348.018 C 64.000 348.561,65.839 350.400,66.382 350.400 C 66.612 350.400,66.800 350.670,66.800 351.000 C 66.800 351.330,66.937 351.600,67.104 351.600 C 67.272 351.600,68.127 352.227,69.004 352.992 C 69.882 353.758,70.724 354.388,70.876 354.392 C 71.029 354.397,72.092 355.300,73.239 356.400 C 74.386 357.500,75.527 358.400,75.774 358.400 C 76.021 358.400,76.483 358.760,76.800 359.200 C 77.117 359.640,77.588 360.000,77.846 360.000 C 78.103 360.000,78.418 360.270,78.545 360.600 C 78.671 360.930,79.051 361.200,79.387 361.200 C 79.724 361.200,80.000 361.380,80.000 361.600 C 80.000 361.820,80.270 362.000,80.600 362.000 C 80.930 362.000,81.200 362.236,81.200 362.525 C 81.200 362.814,81.830 363.298,82.600 363.600 C 83.370 363.902,84.000 364.296,84.000 364.475 C 84.000 364.654,84.270 364.800,84.600 364.800 C 84.930 364.800,85.200 365.036,85.200 365.325 C 85.200 365.614,85.823 366.095,86.583 366.393 C 87.344 366.692,88.059 367.176,88.171 367.468 C 88.283 367.761,88.651 368.000,88.987 368.000 C 89.324 368.000,89.600 368.180,89.600 368.400 C 89.600 368.620,89.870 368.800,90.200 368.800 C 90.530 368.800,90.800 368.980,90.800 369.200 C 90.800 369.420,91.115 369.603,91.500 369.607 C 91.885 369.611,92.624 370.061,93.142 370.607 C 93.660 371.153,94.406 371.600,94.799 371.600 C 95.193 371.600,95.618 371.870,95.745 372.200 C 95.871 372.530,96.206 372.804,96.487 372.809 C 96.769 372.814,97.450 373.170,98.000 373.600 C 98.550 374.030,99.296 374.386,99.657 374.391 C 100.019 374.396,100.418 374.670,100.545 375.000 C 100.671 375.330,101.141 375.600,101.587 375.600 C 102.034 375.600,102.400 375.780,102.400 376.000 C 102.400 376.220,102.760 376.400,103.200 376.400 C 103.640 376.400,104.000 376.564,104.000 376.764 C 104.000 377.178,107.883 379.200,108.679 379.200 C 108.965 379.200,109.200 379.345,109.200 379.523 C 109.200 379.877,111.988 381.200,112.734 381.200 C 112.990 381.200,113.200 381.345,113.200 381.523 C 113.200 381.927,116.036 383.200,116.934 383.200 C 117.300 383.200,117.600 383.380,117.600 383.600 C 117.600 383.820,118.031 384.000,118.557 384.000 C 119.084 384.000,119.618 384.270,119.745 384.600 C 119.871 384.930,120.330 385.200,120.764 385.200 C 121.198 385.200,121.664 385.380,121.800 385.600 C 121.936 385.820,122.577 386.000,123.224 386.000 C 123.871 386.000,124.400 386.145,124.400 386.323 C 124.400 386.772,127.282 388.000,128.334 388.000 C 128.810 388.000,129.200 388.180,129.200 388.400 C 129.200 388.620,129.746 388.800,130.413 388.800 C 131.121 388.800,131.721 389.049,131.855 389.400 C 131.985 389.738,132.581 390.000,133.219 390.000 C 133.843 390.000,134.464 390.180,134.600 390.400 C 134.736 390.620,135.299 390.800,135.852 390.800 C 136.405 390.800,137.127 391.070,137.457 391.400 C 137.787 391.730,138.574 392.000,139.205 392.000 C 139.836 392.000,140.464 392.180,140.600 392.400 C 140.736 392.620,141.467 392.800,142.224 392.800 C 142.981 392.800,143.600 392.980,143.600 393.200 C 143.600 393.420,144.298 393.600,145.151 393.600 C 146.042 393.600,146.914 393.855,147.200 394.200 C 147.474 394.530,148.295 394.800,149.025 394.800 C 149.755 394.800,150.464 394.980,150.600 395.200 C 150.736 395.420,151.536 395.600,152.378 395.600 C 153.220 395.600,154.424 395.869,155.054 396.198 C 155.684 396.526,156.774 396.796,157.476 396.798 C 158.178 396.799,158.864 396.980,159.000 397.200 C 159.136 397.420,160.306 397.600,161.600 397.600 C 162.894 397.600,164.064 397.780,164.200 398.000 C 164.336 398.220,165.547 398.400,166.892 398.400 C 168.659 398.400,169.551 398.594,170.110 399.100 C 171.306 400.182,228.694 400.182,229.890 399.100 C 230.449 398.594,231.341 398.400,233.108 398.400 C 234.453 398.400,235.664 398.220,235.800 398.000 C 235.936 397.780,237.016 397.600,238.200 397.600 C 239.384 397.600,240.450 397.443,240.568 397.252 C 240.686 397.060,241.706 396.815,242.834 396.706 C 243.962 396.598,245.001 396.325,245.143 396.101 C 245.284 395.876,246.210 395.587,247.200 395.459 C 251.568 394.893,252.472 394.677,252.673 394.155 C 252.810 393.798,253.513 393.600,254.643 393.600 C 255.609 393.600,256.400 393.420,256.400 393.200 C 256.400 392.980,257.019 392.800,257.776 392.800 C 258.533 392.800,259.264 392.620,259.400 392.400 C 259.536 392.180,260.052 392.000,260.547 392.000 C 261.042 392.000,261.796 391.736,262.224 391.413 C 262.651 391.090,263.495 390.820,264.100 390.813 C 264.705 390.806,265.200 390.620,265.200 390.400 C 265.200 390.180,265.830 390.000,266.600 390.000 C 267.578 390.000,268.000 389.819,268.000 389.400 C 268.000 388.981,268.422 388.800,269.400 388.800 C 270.170 388.800,270.800 388.620,270.800 388.400 C 270.800 388.180,271.109 388.000,271.487 388.000 C 272.491 388.000,275.600 386.750,275.600 386.346 C 275.600 386.156,275.915 385.997,276.300 385.994 C 277.417 385.984,280.158 384.926,280.319 384.442 C 280.400 384.199,280.902 384.000,281.433 384.000 C 281.965 384.000,282.400 383.820,282.400 383.600 C 282.400 383.380,282.850 383.200,283.400 383.200 C 283.950 383.200,284.400 383.020,284.400 382.800 C 284.400 382.580,284.738 382.400,285.151 382.400 C 285.564 382.400,286.126 382.130,286.400 381.800 C 286.674 381.470,287.191 381.187,287.549 381.171 C 287.907 381.155,288.740 380.803,289.400 380.389 C 290.597 379.638,292.235 378.817,294.700 377.734 C 295.415 377.420,296.000 376.991,296.000 376.781 C 296.000 376.572,296.360 376.400,296.800 376.400 C 297.240 376.400,297.600 376.220,297.600 376.000 C 297.600 375.780,297.966 375.600,298.413 375.600 C 298.859 375.600,299.329 375.330,299.455 375.000 C 299.582 374.670,299.981 374.396,300.343 374.391 C 300.704 374.386,301.450 374.030,302.000 373.600 C 302.550 373.170,303.231 372.814,303.513 372.809 C 303.794 372.804,304.129 372.530,304.255 372.200 C 304.382 371.870,304.826 371.600,305.243 371.600 C 305.659 371.600,306.000 371.420,306.000 371.200 C 306.000 370.980,306.276 370.800,306.613 370.800 C 306.949 370.800,307.329 370.530,307.455 370.200 C 307.582 369.870,308.026 369.600,308.443 369.600 C 308.859 369.600,309.200 369.420,309.200 369.200 C 309.200 368.980,309.393 368.800,309.629 368.800 C 309.864 368.800,310.308 368.575,310.615 368.300 C 311.938 367.113,312.391 366.800,312.783 366.800 C 313.012 366.800,313.200 366.620,313.200 366.400 C 313.200 366.180,313.427 366.000,313.704 366.000 C 313.981 366.000,314.693 365.550,315.287 365.000 C 315.880 364.450,316.527 364.000,316.724 364.000 C 316.922 364.000,317.569 363.550,318.162 363.000 C 318.756 362.450,319.330 362.000,319.437 362.000 C 319.628 362.000,320.230 361.536,321.385 360.500 C 321.692 360.225,322.096 360.000,322.283 360.000 C 322.470 360.000,322.883 359.640,323.200 359.200 C 323.517 358.760,324.007 358.400,324.288 358.400 C 324.570 358.400,324.800 358.214,324.800 357.987 C 324.800 357.761,325.115 357.459,325.500 357.317 C 325.885 357.175,326.773 356.461,327.473 355.730 C 328.173 354.998,328.938 354.400,329.173 354.400 C 329.408 354.400,329.600 354.265,329.601 354.100 C 329.601 353.935,330.407 353.260,331.392 352.600 C 332.377 351.940,333.186 351.175,333.191 350.900 C 333.196 350.625,333.392 350.400,333.626 350.400 C 334.213 350.400,351.560 332.929,352.800 331.089 C 353.350 330.273,353.935 329.604,354.100 329.603 C 354.265 329.601,354.400 329.408,354.400 329.173 C 354.400 328.938,355.030 328.152,355.800 327.426 C 356.570 326.700,357.200 325.896,357.200 325.640 C 357.200 325.384,357.470 325.071,357.800 324.945 C 358.130 324.818,358.400 324.503,358.400 324.246 C 358.400 323.988,358.760 323.517,359.200 323.200 C 359.640 322.883,360.000 322.470,360.000 322.283 C 360.000 322.096,360.225 321.692,360.500 321.385 C 361.536 320.230,362.000 319.628,362.000 319.437 C 362.000 319.330,362.450 318.756,363.000 318.162 C 363.550 317.569,364.000 316.922,364.000 316.724 C 364.000 316.527,364.450 315.880,365.000 315.287 C 365.550 314.693,366.000 313.981,366.000 313.704 C 366.000 313.427,366.180 313.200,366.400 313.200 C 366.620 313.200,366.800 313.007,366.800 312.771 C 366.800 312.536,367.025 312.092,367.300 311.785 C 368.487 310.462,368.800 310.009,368.800 309.617 C 368.800 309.388,368.980 309.200,369.200 309.200 C 369.420 309.200,369.600 308.840,369.600 308.400 C 369.600 307.960,369.772 307.600,369.981 307.600 C 370.191 307.600,370.676 306.925,371.060 306.100 C 371.443 305.275,371.992 304.456,372.278 304.280 C 372.565 304.104,372.804 303.744,372.809 303.480 C 372.814 303.216,373.170 302.550,373.600 302.000 C 374.030 301.450,374.386 300.704,374.391 300.343 C 374.396 299.981,374.670 299.582,375.000 299.455 C 375.330 299.329,375.600 298.859,375.600 298.413 C 375.600 297.966,375.780 297.600,376.000 297.600 C 376.220 297.600,376.400 297.259,376.400 296.843 C 376.400 296.426,376.670 295.982,377.000 295.855 C 377.330 295.729,377.600 295.259,377.600 294.813 C 377.600 294.366,377.780 294.000,378.000 294.000 C 378.220 294.000,378.400 293.550,378.400 293.000 C 378.400 292.450,378.559 292.000,378.753 292.000 C 378.948 292.000,379.216 291.685,379.349 291.300 C 379.482 290.915,379.940 290.060,380.366 289.400 C 380.793 288.740,381.155 287.814,381.171 287.343 C 381.187 286.871,381.470 286.382,381.800 286.255 C 382.130 286.129,382.400 285.659,382.400 285.213 C 382.400 284.766,382.580 284.400,382.800 284.400 C 383.020 284.400,383.200 283.950,383.200 283.400 C 383.200 282.850,383.380 282.400,383.600 282.400 C 383.820 282.400,384.000 281.969,384.000 281.443 C 384.000 280.916,384.270 280.382,384.600 280.255 C 384.930 280.129,385.200 279.580,385.200 279.036 C 385.200 278.492,385.380 277.936,385.600 277.800 C 385.820 277.664,386.000 277.113,386.000 276.576 C 386.000 276.039,386.156 275.600,386.346 275.600 C 386.750 275.600,388.000 272.491,388.000 271.487 C 388.000 271.109,388.180 270.800,388.400 270.800 C 388.620 270.800,388.800 270.170,388.800 269.400 C 388.800 268.422,388.981 268.000,389.400 268.000 C 389.819 268.000,390.000 267.578,390.000 266.600 C 390.000 265.830,390.180 265.200,390.400 265.200 C 390.620 265.200,390.800 264.647,390.800 263.971 C 390.800 263.296,391.070 262.473,391.400 262.143 C 391.730 261.813,392.000 261.116,392.000 260.595 C 392.000 260.074,392.180 259.536,392.400 259.400 C 392.620 259.264,392.800 258.533,392.800 257.776 C 392.800 257.019,392.980 256.400,393.200 256.400 C 393.420 256.400,393.600 255.609,393.600 254.643 C 393.600 253.450,393.793 252.812,394.200 252.655 C 394.594 252.504,394.800 251.880,394.800 250.836 C 394.800 249.962,394.980 249.136,395.200 249.000 C 395.420 248.864,395.600 247.968,395.600 247.010 C 395.600 246.051,395.803 245.199,396.051 245.116 C 396.299 245.034,396.592 244.025,396.702 242.875 C 396.813 241.724,397.060 240.686,397.252 240.568 C 397.443 240.450,397.600 239.384,397.600 238.200 C 397.600 237.016,397.780 235.936,398.000 235.800 C 398.220 235.664,398.400 234.278,398.400 232.720 C 398.400 230.485,398.547 229.780,399.100 229.376 C 399.756 228.897,399.800 227.024,399.800 199.904 C 399.800 172.855,399.754 170.897,399.100 170.243 C 398.583 169.726,398.400 168.891,398.400 167.051 C 398.400 165.681,398.236 164.389,398.035 164.180 C 397.835 163.971,397.581 162.810,397.472 161.600 C 397.201 158.599,396.515 155.224,396.063 154.663 C 395.858 154.408,395.575 153.390,395.435 152.400 C 394.849 148.250,394.692 147.608,394.159 147.166 C 393.852 146.911,393.600 146.004,393.600 145.151 C 393.600 144.298,393.420 143.600,393.200 143.600 C 392.980 143.600,392.800 142.970,392.800 142.200 C 392.800 141.430,392.620 140.800,392.400 140.800 C 392.180 140.800,392.000 140.183,392.000 139.429 C 392.000 138.674,391.730 137.787,391.400 137.457 C 391.070 137.127,390.800 136.405,390.800 135.852 C 390.800 135.299,390.620 134.736,390.400 134.600 C 390.180 134.464,390.000 133.823,390.000 133.176 C 390.000 132.397,389.797 132.000,389.400 132.000 C 388.981 132.000,388.800 131.578,388.800 130.600 C 388.800 129.830,388.620 129.200,388.400 129.200 C 388.180 129.200,388.000 128.671,388.000 128.024 C 388.000 127.377,387.820 126.736,387.600 126.600 C 387.380 126.464,387.200 125.998,387.200 125.564 C 387.200 125.130,386.930 124.671,386.600 124.545 C 386.262 124.415,386.000 123.819,386.000 123.181 C 386.000 122.557,385.820 121.936,385.600 121.800 C 385.380 121.664,385.200 121.198,385.200 120.764 C 385.200 120.330,384.930 119.871,384.600 119.745 C 384.270 119.618,384.000 119.084,384.000 118.557 C 384.000 118.031,383.820 117.600,383.600 117.600 C 383.380 117.600,383.200 117.150,383.200 116.600 C 383.200 116.050,383.020 115.600,382.800 115.600 C 382.580 115.600,382.400 115.253,382.400 114.829 C 382.400 114.404,382.130 113.787,381.800 113.457 C 381.470 113.127,381.200 112.725,381.200 112.563 C 381.200 111.946,379.831 109.200,379.523 109.200 C 379.345 109.200,379.200 108.965,379.200 108.679 C 379.200 107.883,377.178 104.000,376.764 104.000 C 376.564 104.000,376.400 103.640,376.400 103.200 C 376.400 102.760,376.220 102.400,376.000 102.400 C 375.780 102.400,375.600 101.950,375.600 101.400 C 375.600 100.778,375.373 100.400,375.000 100.400 C 374.670 100.400,374.400 100.074,374.400 99.675 C 374.400 99.277,374.040 98.564,373.600 98.092 C 373.160 97.620,372.800 96.950,372.800 96.604 C 372.800 96.258,372.530 95.871,372.200 95.745 C 371.870 95.618,371.594 95.219,371.587 94.857 C 371.571 94.028,370.657 92.800,370.056 92.800 C 369.805 92.800,369.600 92.350,369.600 91.800 C 369.600 91.250,369.420 90.800,369.200 90.800 C 368.980 90.800,368.800 90.530,368.800 90.200 C 368.800 89.870,368.620 89.600,368.400 89.600 C 368.180 89.600,368.000 89.324,368.000 88.987 C 368.000 88.651,367.730 88.271,367.400 88.145 C 367.070 88.018,366.800 87.664,366.800 87.357 C 366.800 87.051,366.620 86.800,366.400 86.800 C 366.180 86.800,366.000 86.440,366.000 86.000 C 366.000 85.556,365.733 85.200,365.400 85.200 C 365.070 85.200,364.800 84.930,364.800 84.600 C 364.800 84.270,364.654 84.000,364.475 84.000 C 364.296 84.000,363.902 83.370,363.600 82.600 C 363.298 81.830,362.814 81.200,362.525 81.200 C 362.236 81.200,362.000 80.930,362.000 80.600 C 362.000 80.270,361.820 80.000,361.600 80.000 C 361.380 80.000,361.200 79.724,361.200 79.387 C 361.200 79.051,360.930 78.671,360.600 78.545 C 360.270 78.418,360.000 78.103,360.000 77.846 C 360.000 77.588,359.640 77.117,359.200 76.800 C 358.760 76.483,358.400 76.021,358.400 75.774 C 358.400 75.527,357.500 74.386,356.400 73.239 C 355.300 72.092,354.400 71.061,354.400 70.948 C 354.400 70.835,354.175 70.506,353.900 70.216 C 353.625 69.926,353.040 69.185,352.600 68.569 C 351.373 66.852,348.524 64.000,348.036 64.000 C 347.796 64.000,347.600 63.807,347.600 63.571 C 347.600 63.156,345.322 60.575,342.359 57.631 C 338.250 53.550,333.938 49.600,333.592 49.600 C 333.376 49.600,333.200 49.330,333.200 49.000 C 333.200 48.670,333.063 48.400,332.896 48.400 C 332.728 48.400,331.873 47.773,330.996 47.008 C 330.118 46.242,329.276 45.612,329.124 45.608 C 328.971 45.603,327.908 44.700,326.761 43.600 C 325.614 42.500,324.473 41.600,324.226 41.600 C 323.979 41.600,323.517 41.240,323.200 40.800 C 322.883 40.360,322.492 40.000,322.332 40.000 C 322.172 40.000,321.556 39.550,320.962 39.000 C 320.369 38.450,319.710 38.000,319.499 38.000 C 319.288 38.000,318.761 37.550,318.329 37.000 C 317.896 36.450,317.238 36.000,316.866 36.000 C 316.494 36.000,315.852 35.550,315.439 35.000 C 315.026 34.450,314.512 34.000,314.298 34.000 C 314.083 34.000,313.049 33.370,312.000 32.600 C 310.951 31.830,309.892 31.200,309.646 31.200 C 309.401 31.200,309.200 31.020,309.200 30.800 C 309.200 30.580,309.008 30.400,308.773 30.400 C 308.539 30.400,307.757 29.950,307.036 29.400 C 306.314 28.850,305.526 28.400,305.283 28.400 C 305.040 28.400,304.356 27.950,303.762 27.400 C 303.169 26.850,302.439 26.400,302.142 26.400 C 301.844 26.400,301.600 26.220,301.600 26.000 C 301.600 25.780,301.150 25.600,300.600 25.600 C 299.978 25.600,299.600 25.373,299.600 25.000 C 299.600 24.670,299.347 24.400,299.038 24.400 C 298.373 24.400,295.229 22.816,294.471 22.100 C 294.181 21.825,293.686 21.600,293.371 21.600 C 293.057 21.600,292.800 21.420,292.800 21.200 C 292.800 20.980,292.451 20.800,292.024 20.800 C 291.597 20.800,291.139 20.625,291.007 20.411 C 290.874 20.197,290.099 19.731,289.283 19.377 C 288.467 19.023,287.487 18.568,287.105 18.366 C 286.723 18.165,286.216 18.000,285.977 18.000 C 285.738 18.000,285.273 17.730,284.943 17.400 C 284.613 17.070,284.006 16.800,283.595 16.800 C 283.184 16.800,282.736 16.620,282.600 16.400 C 282.464 16.180,281.913 16.000,281.376 16.000 C 280.775 16.000,280.400 15.769,280.400 15.400 C 280.400 15.027,280.022 14.800,279.400 14.800 C 278.850 14.800,278.400 14.620,278.400 14.400 C 278.400 14.180,277.770 14.000,277.000 14.000 C 276.230 14.000,275.600 13.820,275.600 13.600 C 275.600 13.380,275.262 13.200,274.849 13.200 C 274.436 13.200,273.874 12.930,273.600 12.600 C 273.326 12.270,272.584 12.000,271.951 12.000 C 271.318 12.000,270.800 11.820,270.800 11.600 C 270.800 11.380,270.427 11.200,269.971 11.200 C 269.516 11.200,268.873 10.930,268.543 10.600 C 268.213 10.270,267.516 10.000,266.995 10.000 C 266.474 10.000,265.936 9.820,265.800 9.600 C 265.664 9.380,265.023 9.200,264.376 9.200 C 263.729 9.200,263.200 9.020,263.200 8.800 C 263.200 8.580,262.592 8.400,261.849 8.400 C 261.106 8.400,260.274 8.130,260.000 7.800 C 259.726 7.470,258.905 7.200,258.175 7.200 C 257.445 7.200,256.736 7.020,256.600 6.800 C 256.464 6.580,255.811 6.400,255.148 6.400 C 254.485 6.400,253.673 6.130,253.343 5.800 C 253.013 5.470,252.036 5.200,251.171 5.200 C 250.307 5.200,249.600 5.020,249.600 4.800 C 249.600 4.580,248.801 4.400,247.824 4.400 C 246.847 4.400,245.936 4.220,245.800 4.000 C 245.664 3.780,244.683 3.600,243.619 3.600 C 242.269 3.600,241.616 3.419,241.455 3.000 C 241.286 2.558,240.588 2.400,238.813 2.400 C 237.471 2.400,236.400 2.222,236.400 2.000 C 236.400 1.772,235.211 1.600,233.633 1.600 C 231.783 1.600,230.812 1.435,230.701 1.103 C 230.399 0.197,188.601 -0.388,173.136 0.297 M203.567 57.900 C 206.449 68.774,207.199 77.849,207.204 101.906 C 207.210 125.671,208.451 147.799,211.000 169.600 C 211.347 172.570,211.741 175.961,211.875 177.135 C 212.158 179.607,212.552 179.878,214.909 179.222 C 216.776 178.703,217.369 178.532,222.600 177.003 C 227.146 175.675,230.251 174.810,240.000 172.159 C 246.825 170.302,259.982 167.033,264.800 165.997 C 265.570 165.831,268.000 165.309,270.200 164.838 C 272.400 164.366,274.920 163.813,275.800 163.610 C 277.394 163.242,285.138 161.780,291.600 160.627 C 301.778 158.810,324.538 156.110,326.800 156.450 C 327.912 156.617,327.867 155.866,327.262 164.200 L 327.000 167.800 325.200 168.651 C 322.512 169.923,309.954 174.065,295.800 178.349 C 289.126 180.369,279.313 183.134,268.000 186.183 C 265.250 186.924,261.920 187.825,260.600 188.185 C 259.280 188.546,255.860 189.452,253.000 190.198 C 250.140 190.945,246.360 191.941,244.600 192.411 C 242.840 192.881,240.500 193.503,239.400 193.792 C 238.300 194.081,235.960 194.703,234.200 195.175 C 232.440 195.646,227.940 196.850,224.200 197.849 C 214.369 200.474,215.157 199.781,216.167 204.917 C 216.478 206.503,217.123 209.960,217.601 212.600 C 218.078 215.240,219.105 220.550,219.883 224.400 C 220.662 228.250,221.446 232.210,221.627 233.200 C 221.808 234.190,222.425 237.160,222.999 239.800 C 223.572 242.440,224.205 245.410,224.404 246.400 C 224.967 249.194,226.737 257.414,227.635 261.400 C 228.081 263.380,228.619 265.810,228.831 266.800 C 229.043 267.790,230.219 272.650,231.445 277.600 C 232.670 282.550,233.762 287.050,233.871 287.600 C 233.980 288.150,234.308 289.410,234.600 290.400 C 235.039 291.891,236.526 298.237,238.395 306.600 C 238.726 308.077,239.523 312.630,240.393 318.000 C 241.818 326.799,241.970 326.388,235.231 331.960 C 228.735 337.332,229.216 337.590,224.081 326.000 C 220.909 318.843,217.343 308.303,214.810 298.600 C 212.758 290.740,212.191 288.438,209.243 276.000 C 208.800 274.130,207.790 269.900,206.999 266.600 C 204.859 257.676,204.138 254.599,203.200 250.400 C 202.733 248.310,202.102 245.520,201.797 244.200 C 201.118 241.258,200.000 235.958,199.602 233.800 C 199.440 232.920,198.940 230.400,198.490 228.200 C 197.579 223.735,196.377 217.327,195.376 211.600 C 194.470 206.410,194.591 206.662,193.143 206.951 C 190.127 207.555,160.661 217.141,145.000 222.614 C 140.820 224.075,136.950 225.413,136.400 225.588 C 135.095 226.002,126.603 229.082,124.800 229.795 C 124.030 230.100,120.700 231.367,117.400 232.612 C 109.976 235.413,104.060 237.772,101.289 239.037 C 100.128 239.566,99.098 240.000,98.999 240.000 C 98.901 240.000,97.601 240.560,96.110 241.245 C 86.090 245.849,77.416 248.521,76.629 247.246 C 76.509 247.052,76.588 245.567,76.806 243.946 C 77.024 242.326,77.385 239.470,77.610 237.600 C 78.383 231.155,78.076 231.749,81.521 230.036 C 83.215 229.194,88.480 226.506,93.223 224.062 C 103.068 218.989,109.541 215.999,118.400 212.433 C 121.810 211.060,124.960 209.777,125.400 209.581 C 127.486 208.651,147.319 201.178,151.200 199.859 C 152.190 199.523,155.610 198.322,158.800 197.191 C 165.831 194.697,180.644 189.760,186.400 187.992 C 191.706 186.362,191.559 186.565,190.925 181.732 C 187.422 155.064,186.657 141.209,186.906 109.029 C 187.112 82.530,187.450 76.603,189.486 63.800 C 190.237 59.083,189.879 59.405,196.200 57.749 C 202.770 56.029,203.072 56.035,203.567 57.900 M268.600 70.063 C 277.612 72.727,284.517 79.119,288.990 88.936 C 290.176 91.537,290.582 92.750,291.962 97.800 C 299.153 124.110,276.669 150.755,253.800 143.025 C 239.124 138.065,230.830 122.245,232.749 102.872 C 235.156 78.573,250.351 64.667,268.600 70.063 M258.512 89.188 C 253.942 91.975,248.722 106.670,250.389 112.057 C 255.218 127.665,269.148 128.869,272.852 114.000 C 276.332 100.030,267.055 83.979,258.512 89.188 M136.238 121.256 C 136.657 121.726,138.860 123.552,141.134 125.312 C 145.099 128.382,145.258 128.565,145.032 129.771 C 144.362 133.340,140.725 141.110,136.723 147.521 C 133.903 152.038,133.909 151.866,136.500 153.817 C 143.694 159.234,152.800 167.650,152.800 168.882 C 152.800 170.252,144.546 177.651,143.340 177.362 C 139.208 176.373,133.128 173.423,127.856 169.848 C 123.392 166.821,124.128 166.487,120.026 173.400 C 115.123 181.664,110.921 187.200,109.551 187.200 C 107.617 187.200,96.000 178.904,96.000 177.523 C 96.000 174.426,100.371 165.134,106.071 156.114 C 109.000 151.480,109.053 151.895,104.900 147.007 C 98.426 139.386,96.814 137.074,94.538 132.149 C 92.789 128.362,92.746 128.542,96.100 125.536 C 100.944 121.196,100.676 121.276,103.444 123.335 C 106.013 125.245,110.396 129.639,114.584 134.500 C 117.905 138.355,117.650 138.385,121.306 133.700 C 126.275 127.332,133.389 120.400,134.954 120.400 C 135.241 120.400,135.819 120.785,136.238 121.256 M298.882 218.035 C 302.965 220.416,305.222 222.150,305.457 223.085 C 306.141 225.812,305.092 231.323,301.557 243.559 C 300.261 248.047,299.200 251.861,299.200 252.036 C 299.200 252.210,301.225 254.052,303.700 256.129 C 310.470 261.810,317.600 269.330,317.600 270.789 C 317.600 271.431,309.012 283.600,308.558 283.600 C 307.067 283.600,300.379 279.805,295.667 276.284 C 291.449 273.132,291.679 273.112,289.767 276.800 C 287.117 281.910,282.598 288.000,281.455 288.000 C 280.719 288.000,269.467 281.361,269.027 280.667 C 268.307 279.531,270.606 271.636,274.025 263.503 C 276.591 257.400,277.083 258.970,270.296 251.600 C 264.296 245.084,256.815 234.767,256.805 232.993 C 256.796 231.501,264.926 223.825,265.940 224.368 C 267.407 225.153,274.427 230.917,279.300 235.337 C 284.761 240.291,284.565 240.225,285.780 237.500 C 290.495 226.917,295.574 216.800,296.172 216.800 C 296.498 216.800,297.718 217.356,298.882 218.035 M155.600 243.356 C 177.914 248.124,190.118 279.250,178.280 301.200 C 164.359 327.014,130.276 321.927,122.005 292.800 C 113.976 264.528,131.815 238.273,155.600 243.356 M146.507 261.582 C 132.821 266.508,133.118 293.172,146.917 298.334 C 158.519 302.675,167.761 291.010,163.988 276.787 C 160.820 264.846,153.977 258.894,146.507 261.582 " stroke="none" fill="#c42633" fill-rule="evenodd"></path></g></svg>
