<svg id="svg" xmlns="http://www.w3.org/2000/svg" xmlns:xlink="http://www.w3.org/1999/xlink" width="400" height="400" viewBox="0, 0, 400,400"><g id="svgg"><path id="path0" d="M187.800 30.034 C 174.910 31.200,163.831 32.993,156.000 35.180 C 150.061 36.839,142.758 39.122,140.600 39.995 C 140.160 40.174,139.170 40.539,138.400 40.807 C 137.630 41.075,136.460 41.526,135.800 41.809 C 135.140 42.092,133.880 42.618,133.000 42.977 C 128.751 44.711,120.415 48.790,114.000 52.272 C 98.398 60.742,77.969 78.010,66.290 92.600 C 59.376 101.237,56.035 106.136,49.095 117.814 C 47.844 119.918,42.474 130.931,41.593 133.200 C 41.122 134.410,40.495 135.940,40.198 136.600 C 38.700 139.929,36.112 147.416,34.459 153.200 C 31.303 164.244,29.930 171.987,28.358 187.600 C 27.340 197.708,28.406 216.123,30.766 229.200 C 32.008 236.086,35.587 249.985,36.791 252.600 C 36.994 253.040,37.422 254.210,37.742 255.200 C 50.399 294.336,84.411 332.181,124.156 351.352 C 133.938 356.070,140.479 358.643,149.200 361.203 C 150.850 361.687,152.650 362.231,153.200 362.411 C 154.174 362.731,158.342 363.751,163.600 364.956 C 172.892 367.085,188.823 368.805,199.200 368.799 C 215.215 368.789,235.338 365.874,249.000 361.585 C 252.939 360.349,257.913 358.710,258.600 358.422 C 259.040 358.237,261.560 357.231,264.200 356.186 C 271.675 353.225,281.685 348.242,288.541 344.069 C 290.048 343.151,291.338 342.400,291.407 342.400 C 291.573 342.400,300.301 336.413,302.262 334.954 C 316.779 324.154,329.401 311.146,341.419 294.597 C 342.852 292.624,348.023 284.367,349.308 282.000 C 354.732 272.010,357.902 264.971,362.012 253.800 C 372.169 226.186,373.921 191.626,366.725 160.800 C 364.935 153.136,360.761 139.828,359.865 138.932 C 359.719 138.786,359.600 138.431,359.600 138.143 C 359.600 137.856,359.092 136.491,358.470 135.110 C 357.849 133.730,357.100 131.970,356.806 131.200 C 355.762 128.471,349.691 116.930,346.767 112.116 C 327.830 80.943,297.578 55.326,264.200 42.201 C 261.560 41.163,259.040 40.163,258.600 39.978 C 241.452 32.793,208.480 28.162,187.800 30.034 M215.800 47.000 C 226.601 48.269,231.375 49.157,241.000 51.687 C 242.567 52.099,243.503 52.389,250.400 54.608 C 289.142 67.068,325.320 100.150,341.597 138.000 C 343.769 143.051,343.882 143.325,344.786 145.800 C 345.269 147.120,345.830 148.513,346.032 148.895 C 346.234 149.277,346.400 149.864,346.400 150.200 C 346.400 150.536,346.563 151.123,346.763 151.505 C 347.615 153.135,349.551 160.246,351.205 167.821 C 355.633 188.094,355.402 214.589,350.640 232.800 C 350.054 235.042,349.333 235.044,344.552 232.815 C 329.775 225.926,323.202 214.890,322.385 195.600 C 321.965 185.676,321.362 180.737,319.624 173.000 C 314.490 150.151,303.808 130.921,286.835 113.974 C 278.444 105.597,271.877 100.391,263.400 95.398 C 262.300 94.750,260.860 93.903,260.200 93.515 C 253.089 89.335,240.432 84.204,231.600 81.919 C 213.127 77.141,193.768 76.424,176.800 79.890 C 175.150 80.227,173.080 80.635,172.200 80.796 C 159.901 83.046,140.453 91.612,128.857 99.887 C 126.495 101.573,118.775 107.614,117.751 108.578 C 95.075 129.930,83.910 150.152,78.162 180.284 C 76.958 186.594,76.466 200.309,77.367 202.451 C 80.667 210.298,93.200 207.896,93.200 199.416 C 93.200 170.227,126.528 152.212,151.110 168.114 C 178.365 185.745,171.823 226.563,140.395 234.975 L 136.591 235.993 93.036 236.004 C 69.080 236.009,49.394 235.928,49.289 235.823 C 49.112 235.646,48.925 234.876,48.016 230.600 C 35.720 172.718,58.346 113.078,106.200 77.231 C 110.781 73.800,117.100 69.519,119.747 68.054 C 120.876 67.429,122.700 66.388,123.800 65.740 C 133.639 59.949,148.768 54.006,162.400 50.578 C 164.889 49.952,165.846 49.752,170.800 48.816 C 184.970 46.141,202.466 45.435,215.800 47.000 M208.200 94.587 C 237.240 97.278,264.608 111.301,281.223 132.000 C 282.194 133.210,283.090 134.290,283.213 134.400 C 284.104 135.195,290.453 144.640,292.488 148.198 C 294.194 151.182,297.454 158.183,299.007 162.200 C 300.786 166.800,301.136 167.876,302.462 172.800 C 304.535 180.493,305.994 191.659,306.007 199.914 C 306.043 222.554,319.674 241.061,342.900 250.007 C 344.165 250.494,345.200 251.048,345.200 251.238 C 345.200 251.667,344.162 254.439,343.156 256.696 C 342.740 257.628,342.400 258.492,342.400 258.616 C 342.400 259.063,337.868 268.227,337.116 269.300 L 336.346 270.400 330.073 270.396 C 322.299 270.391,314.028 269.492,308.000 267.997 C 307.010 267.752,305.703 267.451,305.095 267.329 C 304.487 267.207,303.892 266.949,303.771 266.754 C 303.651 266.559,303.248 266.401,302.876 266.402 C 300.864 266.409,291.240 261.771,285.715 258.132 C 266.777 245.661,254.049 223.211,254.006 202.200 C 253.935 168.250,237.637 139.590,209.137 123.299 C 203.495 120.074,196.139 116.878,191.400 115.594 C 190.740 115.416,189.164 114.986,187.898 114.639 C 172.174 110.335,152.279 111.044,136.670 116.464 C 132.342 117.967,133.192 116.956,140.200 112.263 C 160.323 98.787,184.819 92.420,208.200 94.587 M172.200 128.614 C 175.280 128.951,178.520 129.391,179.400 129.593 C 180.280 129.796,181.810 130.136,182.800 130.350 C 184.564 130.731,190.219 132.504,191.800 133.171 C 253.870 159.382,251.331 245.340,187.860 266.563 C 176.529 270.352,175.942 270.383,115.127 270.392 L 62.854 270.400 62.097 269.300 C 60.720 267.302,54.800 254.300,54.800 253.275 C 54.800 252.975,67.192 252.803,96.300 252.700 C 142.887 252.535,140.652 252.677,149.814 249.293 C 191.220 234.002,197.384 179.318,160.503 154.457 C 148.986 146.694,128.213 143.306,117.451 147.436 C 116.326 147.868,116.740 146.947,118.310 145.529 C 122.392 141.841,129.688 137.152,135.003 134.800 C 136.541 134.120,138.160 133.399,138.600 133.198 C 139.883 132.614,145.655 130.770,147.400 130.388 C 148.280 130.195,149.900 129.837,151.000 129.592 C 157.483 128.146,164.827 127.808,172.200 128.614 M246.400 238.027 C 246.400 238.209,247.531 240.302,248.913 242.678 C 254.751 252.719,263.187 262.188,272.346 268.982 C 276.662 272.183,276.695 271.823,271.679 276.277 C 255.660 290.501,239.409 298.569,219.000 302.429 C 209.429 304.239,204.210 304.375,143.939 304.388 L 87.278 304.400 85.470 302.500 C 84.476 301.455,82.547 299.250,81.184 297.600 C 79.821 295.950,78.281 294.112,77.763 293.515 C 75.708 291.149,73.216 287.498,73.426 287.159 C 73.554 286.950,93.063 286.800,119.924 286.799 C 165.906 286.798,173.313 286.625,180.400 285.389 C 185.032 284.581,192.743 282.590,195.000 281.620 C 195.440 281.431,197.330 280.684,199.200 279.960 C 216.828 273.133,233.930 257.778,243.390 240.281 C 245.140 237.046,246.400 236.102,246.400 238.027 M293.905 280.791 C 297.886 283.031,310.960 285.849,319.717 286.355 C 322.751 286.531,325.428 286.868,325.665 287.105 C 326.297 287.737,315.462 301.456,312.411 303.887 C 311.695 304.458,262.993 304.636,262.643 304.069 C 262.530 303.887,263.552 303.032,264.913 302.169 C 272.887 297.114,280.332 291.142,287.000 284.451 C 291.109 280.328,292.126 279.789,293.905 280.791 M292.800 321.056 C 292.800 321.480,279.275 330.800,278.659 330.800 C 278.551 330.800,276.964 331.663,275.132 332.718 C 269.629 335.885,259.770 340.406,253.200 342.776 C 252.430 343.054,251.440 343.432,251.000 343.616 C 249.161 344.387,238.765 347.399,235.800 348.019 C 234.920 348.203,233.300 348.554,232.200 348.799 C 212.136 353.264,187.064 353.264,167.000 348.799 C 165.900 348.554,164.280 348.198,163.400 348.007 C 162.520 347.816,161.080 347.455,160.200 347.204 C 159.320 346.952,157.970 346.602,157.200 346.426 C 153.512 345.581,138.248 339.998,135.252 338.399 C 134.894 338.207,132.553 337.041,130.051 335.808 C 121.651 331.666,106.400 322.154,106.400 321.056 C 106.400 320.915,148.340 320.800,199.600 320.800 C 250.860 320.800,292.800 320.915,292.800 321.056 " stroke="none" fill="#4db1ac" fill-rule="evenodd"></path><path id="path1" d="M0.000 200.000 L 0.000 400.000 200.000 400.000 L 400.000 400.000 400.000 200.000 L 400.000 0.000 200.000 0.000 L 0.000 0.000 0.000 200.000 M211.000 30.001 C 227.262 31.330,239.748 33.779,254.200 38.474 C 256.180 39.117,258.160 39.794,258.600 39.978 C 259.040 40.163,261.560 41.163,264.200 42.201 C 297.578 55.326,327.830 80.943,346.767 112.116 C 349.691 116.930,355.762 128.471,356.806 131.200 C 357.100 131.970,357.849 133.730,358.470 135.110 C 359.092 136.491,359.600 137.856,359.600 138.143 C 359.600 138.431,359.719 138.786,359.865 138.932 C 360.146 139.213,361.034 141.587,362.582 146.200 C 371.851 173.821,373.665 203.729,367.821 232.600 C 366.547 238.893,363.779 248.996,362.012 253.800 C 357.902 264.971,354.732 272.010,349.308 282.000 C 348.023 284.367,342.852 292.624,341.419 294.597 C 329.401 311.146,316.779 324.154,302.262 334.954 C 300.301 336.413,291.573 342.400,291.407 342.400 C 291.338 342.400,290.048 343.151,288.541 344.069 C 281.685 348.242,271.675 353.225,264.200 356.186 C 261.560 357.231,259.040 358.237,258.600 358.422 C 257.913 358.710,252.939 360.349,249.000 361.585 C 235.338 365.874,215.215 368.789,199.200 368.799 C 188.823 368.805,172.892 367.085,163.600 364.956 C 158.342 363.751,154.174 362.731,153.200 362.411 C 152.650 362.231,150.850 361.687,149.200 361.203 C 140.479 358.643,133.938 356.070,124.156 351.352 C 86.542 333.209,55.540 300.212,40.396 262.200 C 39.256 259.340,38.062 256.190,37.742 255.200 C 37.422 254.210,36.994 253.040,36.791 252.600 C 36.299 251.531,33.434 241.455,32.412 237.200 C 30.909 230.941,29.715 223.670,28.765 215.000 C 28.091 208.854,27.850 192.640,28.358 187.600 C 29.930 171.987,31.303 164.244,34.459 153.200 C 36.112 147.416,38.700 139.929,40.198 136.600 C 40.495 135.940,41.122 134.410,41.593 133.200 C 42.474 130.931,47.844 119.918,49.095 117.814 C 56.035 106.136,59.376 101.237,66.290 92.600 C 77.969 78.010,98.398 60.742,114.000 52.272 C 120.415 48.790,128.751 44.711,133.000 42.977 C 133.880 42.618,135.140 42.092,135.800 41.809 C 136.460 41.526,137.630 41.075,138.400 40.807 C 139.170 40.539,140.160 40.174,140.600 39.995 C 142.758 39.122,150.061 36.839,156.000 35.180 C 163.831 32.993,174.910 31.200,187.800 30.034 C 193.005 29.562,205.424 29.545,211.000 30.001 M192.200 46.232 C 186.229 46.575,176.351 47.768,170.800 48.816 C 165.846 49.752,164.889 49.952,162.400 50.578 C 148.768 54.006,133.639 59.949,123.800 65.740 C 122.700 66.388,120.876 67.429,119.747 68.054 C 117.100 69.519,110.781 73.800,106.200 77.231 C 58.346 113.078,35.720 172.718,48.016 230.600 C 48.925 234.876,49.112 235.646,49.289 235.823 C 49.394 235.928,69.080 236.009,93.036 236.004 L 136.591 235.993 140.395 234.975 C 171.823 226.563,178.365 185.745,151.110 168.114 C 126.528 152.212,93.200 170.227,93.200 199.416 C 93.200 207.896,80.667 210.298,77.367 202.451 C 76.466 200.309,76.958 186.594,78.162 180.284 C 83.910 150.152,95.075 129.930,117.751 108.578 C 118.775 107.614,126.495 101.573,128.857 99.887 C 140.453 91.612,159.901 83.046,172.200 80.796 C 173.080 80.635,175.150 80.227,176.800 79.890 C 189.627 77.270,202.520 77.048,218.400 79.176 C 231.296 80.903,249.180 87.038,260.200 93.515 C 260.860 93.903,262.300 94.750,263.400 95.398 C 293.128 112.908,315.380 145.305,320.820 179.000 C 321.822 185.205,322.046 187.585,322.385 195.600 C 323.202 214.890,329.775 225.926,344.552 232.815 C 349.333 235.044,350.054 235.042,350.640 232.800 C 355.402 214.589,355.633 188.094,351.205 167.821 C 349.551 160.246,347.615 153.135,346.763 151.505 C 346.563 151.123,346.400 150.536,346.400 150.200 C 346.400 149.864,346.234 149.277,346.032 148.895 C 345.830 148.513,345.269 147.120,344.786 145.800 C 343.882 143.325,343.769 143.051,341.597 138.000 C 325.320 100.150,289.142 67.068,250.400 54.608 C 242.176 51.963,242.431 52.039,237.800 50.858 C 224.358 47.433,205.168 45.486,192.200 46.232 M190.400 94.624 C 171.604 96.401,155.367 102.106,140.200 112.263 C 133.192 116.956,132.342 117.967,136.670 116.464 C 152.279 111.044,172.174 110.335,187.898 114.639 C 189.164 114.986,190.740 115.416,191.400 115.594 C 196.139 116.878,203.495 120.074,209.137 123.299 C 237.637 139.590,253.935 168.250,254.006 202.200 C 254.049 223.211,266.777 245.661,285.715 258.132 C 291.240 261.771,300.864 266.409,302.876 266.402 C 303.248 266.401,303.651 266.559,303.771 266.754 C 303.892 266.949,304.487 267.207,305.095 267.329 C 305.703 267.451,307.010 267.752,308.000 267.997 C 314.028 269.492,322.299 270.391,330.073 270.396 L 336.346 270.400 337.116 269.300 C 337.868 268.227,342.400 259.063,342.400 258.616 C 342.400 258.492,342.740 257.628,343.156 256.696 C 344.162 254.439,345.200 251.667,345.200 251.238 C 345.200 251.048,344.165 250.494,342.900 250.007 C 319.674 241.061,306.043 222.554,306.007 199.914 C 305.994 191.659,304.535 180.493,302.462 172.800 C 301.136 167.876,300.786 166.800,299.007 162.200 C 297.454 158.183,294.194 151.182,292.488 148.198 C 290.453 144.640,284.104 135.195,283.213 134.400 C 283.090 134.290,282.194 133.210,281.223 132.000 C 260.791 106.545,224.086 91.440,190.400 94.624 M157.600 128.623 C 155.070 128.911,152.100 129.346,151.000 129.592 C 149.900 129.837,148.280 130.195,147.400 130.388 C 145.655 130.770,139.883 132.614,138.600 133.198 C 138.160 133.399,136.541 134.120,135.003 134.800 C 129.688 137.152,122.392 141.841,118.310 145.529 C 116.740 146.947,116.326 147.868,117.451 147.436 C 128.213 143.306,148.986 146.694,160.503 154.457 C 197.384 179.318,191.220 234.002,149.814 249.293 C 140.652 252.677,142.887 252.535,96.300 252.700 C 67.192 252.803,54.800 252.975,54.800 253.275 C 54.800 254.300,60.720 267.302,62.097 269.300 L 62.854 270.400 115.127 270.392 C 172.176 270.384,172.919 270.359,182.400 268.131 C 206.210 262.536,226.472 243.769,233.717 220.600 C 244.943 184.704,227.454 148.227,191.800 133.171 C 190.219 132.504,184.564 130.731,182.800 130.350 C 181.810 130.136,180.280 129.796,179.400 129.593 C 173.398 128.215,164.624 127.825,157.600 128.623 M243.390 240.281 C 233.930 257.778,216.828 273.133,199.200 279.960 C 197.330 280.684,195.440 281.431,195.000 281.620 C 192.743 282.590,185.032 284.581,180.400 285.389 C 173.313 286.625,165.906 286.798,119.924 286.799 C 93.063 286.800,73.554 286.950,73.426 287.159 C 73.216 287.498,75.708 291.149,77.763 293.515 C 78.281 294.112,79.821 295.950,81.184 297.600 C 82.547 299.250,84.476 301.455,85.470 302.500 L 87.278 304.400 143.939 304.388 C 204.210 304.375,209.429 304.239,219.000 302.429 C 239.409 298.569,255.660 290.501,271.679 276.277 C 276.695 271.823,276.662 272.183,272.346 268.982 C 263.187 262.188,254.751 252.719,248.913 242.678 C 247.531 240.302,246.400 238.209,246.400 238.027 C 246.400 236.102,245.140 237.046,243.390 240.281 M287.000 284.451 C 280.332 291.142,272.887 297.114,264.913 302.169 C 263.552 303.032,262.530 303.887,262.643 304.069 C 262.993 304.636,311.695 304.458,312.411 303.887 C 315.462 301.456,326.297 287.737,325.665 287.105 C 325.428 286.868,322.751 286.531,319.717 286.355 C 310.960 285.849,297.886 283.031,293.905 280.791 C 292.126 279.789,291.109 280.328,287.000 284.451 M106.400 321.056 C 106.400 322.154,121.651 331.666,130.051 335.808 C 132.553 337.041,134.894 338.207,135.252 338.399 C 138.248 339.998,153.512 345.581,157.200 346.426 C 157.970 346.602,159.320 346.952,160.200 347.204 C 161.080 347.455,162.520 347.816,163.400 348.007 C 164.280 348.198,165.900 348.554,167.000 348.799 C 187.064 353.264,212.136 353.264,232.200 348.799 C 233.300 348.554,234.920 348.203,235.800 348.019 C 238.765 347.399,249.161 344.387,251.000 343.616 C 251.440 343.432,252.430 343.054,253.200 342.776 C 259.770 340.406,269.629 335.885,275.132 332.718 C 276.964 331.663,278.551 330.800,278.659 330.800 C 279.275 330.800,292.800 321.480,292.800 321.056 C 292.800 320.915,250.860 320.800,199.600 320.800 C 148.340 320.800,106.400 320.915,106.400 321.056 " stroke="none" fill="#e3f4fb" fill-rule="evenodd"></path></g></svg>